<svg width="512" height="512" viewBox="0 0 512 512" fill="none" xmlns="http://www.w3.org/2000/svg">
<path fill-rule="evenodd" clip-rule="evenodd" d="M120.583 302C118.537 308.516 112.667 313.222 105.745 313.222C98.8781 313.222 93.0465 308.591 90.9565 302.155C78.7563 307.173 69.417 318.13 66.2011 331.617C66.6758 331.542 67.1618 331.503 67.6564 331.503C72.9796 331.503 77.2948 336.011 77.2948 341.572C77.2948 347.132 72.9796 351.64 67.6564 351.64C67.0916 351.64 66.5382 351.59 66 351.492C69.0135 365.39 78.5002 376.722 90.9748 381.845C93.0806 375.439 98.8981 370.835 105.745 370.835C112.647 370.835 118.503 375.513 120.565 382C133.337 376.909 143.045 365.335 146 351.129C145.044 351.461 144.022 351.64 142.959 351.64C137.636 351.64 133.321 347.132 133.321 341.572C133.321 336.011 137.636 331.503 142.959 331.503C143.948 331.503 144.901 331.658 145.799 331.947C142.625 318.168 133.071 306.985 120.583 302ZM130.75 341.729C130.75 356.321 119.427 368.15 105.458 368.15C91.4897 368.15 80.166 356.321 80.166 341.729C80.166 327.137 91.4897 315.307 105.458 315.307C111.487 315.307 117.023 317.511 121.369 321.189H117.38L117.03 327.397L118.667 327.935C118.821 327.75 119.041 327.577 119.327 327.414C119.619 327.251 119.984 327.169 120.424 327.169C120.79 327.169 121.126 327.262 121.434 327.446C121.741 327.625 121.985 327.873 122.165 328.188C122.35 328.497 122.443 328.842 122.443 329.222C122.443 329.602 122.353 329.95 122.173 330.265C121.993 330.575 121.749 330.822 121.441 331.006C121.134 331.191 120.795 331.283 120.424 331.283C120.138 331.283 119.86 331.221 119.589 331.096C119.325 330.971 119.091 330.795 118.89 330.566C118.694 330.338 118.559 330.067 118.485 329.752L116.641 330.257C116.8 330.833 117.059 331.338 117.42 331.772C117.785 332.207 118.22 332.549 118.723 332.799C119.227 333.043 119.77 333.165 120.353 333.165C121.073 333.165 121.736 332.989 122.34 332.636C122.949 332.283 123.439 331.81 123.81 331.218C124.181 330.621 124.366 329.955 124.366 329.222C124.366 328.489 124.208 327.835 123.89 327.259C123.577 326.683 123.142 326.23 122.586 325.898C122.035 325.562 121.402 325.393 120.686 325.393C120.321 325.393 119.942 325.461 119.55 325.597C119.32 325.676 119.107 325.78 118.91 325.908L119.08 323.031L123.328 323.031C127.913 327.813 130.75 334.425 130.75 341.729ZM92.5552 361.331L92.5552 325.475H106.166C108.486 325.475 110.384 325.965 111.862 326.944C113.356 327.907 114.46 329.144 115.176 330.654C115.906 332.165 116.272 333.725 116.272 335.336C116.272 337.311 115.819 338.988 114.913 340.365C114.356 341.229 113.67 341.916 112.856 342.428C114.249 343.023 115.356 343.921 116.177 345.121C117.305 346.748 117.869 348.599 117.869 350.674C117.869 352.799 117.48 354.658 116.701 356.252C115.922 357.845 114.762 359.09 113.221 359.987C111.695 360.883 109.804 361.331 107.548 361.331H92.5552ZM98.3712 355.679H106.833C107.834 355.679 108.732 355.471 109.526 355.056C110.321 354.625 110.941 354.027 111.386 353.264C111.846 352.483 112.077 351.562 112.077 350.5C112.077 349.537 111.878 348.674 111.481 347.91C111.084 347.147 110.504 346.541 109.741 346.092C108.978 345.628 108.064 345.395 107 345.395H98.3712V355.679ZM98.3712 339.793H106.094C106.92 339.793 107.659 339.627 108.311 339.295C108.962 338.963 109.479 338.473 109.86 337.826C110.241 337.178 110.432 336.381 110.432 335.435C110.432 334.19 110.051 333.153 109.288 332.323C108.525 331.493 107.461 331.078 106.094 331.078H98.3712V339.793Z" fill="url(#paint0_linear_213_4746)"/>
<path fill-rule="evenodd" clip-rule="evenodd" d="M270.584 67C268.538 73.5163 262.668 78.2222 255.746 78.2222C248.878 78.2222 243.047 73.5908 240.957 67.1549C228.757 72.173 219.417 83.13 216.201 96.6171C216.676 96.5419 217.162 96.5029 217.657 96.5029C222.98 96.5029 227.296 101.011 227.296 106.572C227.296 112.132 222.98 116.64 217.657 116.64C217.092 116.64 216.538 116.589 216 116.492C219.013 130.39 228.501 141.722 240.975 146.845C243.081 140.439 248.899 135.835 255.746 135.835C262.647 135.835 268.503 140.513 270.566 147C283.338 141.909 293.045 130.335 296 116.129C295.044 116.461 294.022 116.64 292.96 116.64C287.637 116.64 283.321 112.132 283.321 106.572C283.321 101.011 287.637 96.5029 292.96 96.5029C293.948 96.5029 294.901 96.6583 295.799 96.9469C292.625 83.1678 283.071 71.9849 270.584 67ZM280.751 106.729C280.751 121.321 269.427 133.15 255.459 133.15C241.49 133.15 230.167 121.321 230.167 106.729C230.167 92.1366 241.49 80.3074 255.459 80.3074C261.488 80.3074 267.024 82.511 271.37 86.1894H267.38L267.03 92.3973L268.668 92.935C268.821 92.7504 269.041 92.5766 269.328 92.4136C269.619 92.2507 269.985 92.1692 270.424 92.1692C270.79 92.1692 271.127 92.2615 271.434 92.4462C271.741 92.6254 271.985 92.8726 272.165 93.1876C272.351 93.4972 272.443 93.842 272.443 94.2222C272.443 94.6024 272.353 94.95 272.173 95.265C271.993 95.5746 271.749 95.8217 271.442 96.0064C271.134 96.1911 270.795 96.2834 270.424 96.2834C270.138 96.2834 269.86 96.2209 269.59 96.096C269.325 95.9711 269.092 95.7946 268.89 95.5665C268.694 95.3384 268.559 95.0668 268.485 94.7518L266.641 95.2569C266.8 95.8326 267.06 96.3377 267.42 96.7722C267.786 97.2067 268.22 97.5489 268.723 97.7987C269.227 98.0431 269.77 98.1653 270.353 98.1653C271.074 98.1653 271.736 97.9888 272.34 97.6358C272.949 97.2828 273.44 96.8102 273.81 96.2182C274.181 95.6208 274.367 94.9555 274.367 94.2222C274.367 93.489 274.208 92.8345 273.89 92.2588C273.577 91.6831 273.143 91.2296 272.586 90.8983C272.035 90.5615 271.402 90.3932 270.687 90.3932C270.321 90.3932 269.942 90.4611 269.55 90.5968C269.321 90.6763 269.107 90.78 268.911 90.9078L269.08 88.0306L273.328 88.0306C277.914 92.8131 280.751 99.4248 280.751 106.729ZM242.556 126.331L242.556 90.4752H256.166C258.486 90.4752 260.385 90.9649 261.863 91.9443C263.356 92.9071 264.461 94.1438 265.176 95.6544C265.907 97.1651 266.272 98.7255 266.272 100.336C266.272 102.311 265.819 103.988 264.914 105.365C264.356 106.229 263.67 106.917 262.857 107.428C264.249 108.023 265.356 108.921 266.177 110.121C267.305 111.748 267.869 113.599 267.869 115.674C267.869 117.799 267.48 119.658 266.701 121.252C265.923 122.845 264.763 124.09 263.221 124.987C261.696 125.883 259.805 126.331 257.548 126.331H242.556ZM248.372 120.679H256.833C257.834 120.679 258.732 120.472 259.527 120.057C260.321 119.625 260.941 119.027 261.386 118.264C261.847 117.484 262.077 116.562 262.077 115.5C262.077 114.537 261.879 113.674 261.481 112.91C261.084 112.147 260.504 111.541 259.741 111.093C258.979 110.628 258.065 110.395 257 110.395H248.372V120.679ZM248.372 104.793H256.094C256.921 104.793 257.66 104.627 258.311 104.295C258.963 103.963 259.479 103.473 259.86 102.826C260.242 102.178 260.433 101.381 260.433 100.435C260.433 99.1903 260.051 98.1528 259.288 97.3228C258.526 96.4928 257.461 96.0777 256.094 96.0777H248.372V104.793Z" fill="url(#paint1_linear_213_4746)"/>
<path fill-rule="evenodd" clip-rule="evenodd" d="M399.583 285C397.537 291.516 391.667 296.222 384.745 296.222C377.878 296.222 372.046 291.591 369.956 285.155C357.756 290.173 348.417 301.13 345.201 314.617C345.676 314.542 346.162 314.503 346.656 314.503C351.98 314.503 356.295 319.011 356.295 324.572C356.295 330.132 351.98 334.64 346.656 334.64C346.092 334.64 345.538 334.59 345 334.492C348.013 348.39 357.5 359.722 369.975 364.845C372.081 358.439 377.898 353.835 384.745 353.835C391.647 353.835 397.503 358.513 399.565 365C412.337 359.909 422.045 348.335 425 334.129C424.044 334.461 423.022 334.64 421.959 334.64C416.636 334.64 412.321 330.132 412.321 324.572C412.321 319.011 416.636 314.503 421.959 314.503C422.948 314.503 423.901 314.659 424.799 314.947C421.625 301.168 412.071 289.985 399.583 285ZM409.75 324.729C409.75 339.321 398.427 351.15 384.458 351.15C370.49 351.15 359.166 339.321 359.166 324.729C359.166 310.137 370.49 298.307 384.458 298.307C390.487 298.307 396.023 300.511 400.369 304.189H396.38L396.03 310.397L397.667 310.935C397.821 310.75 398.041 310.577 398.327 310.414C398.619 310.251 398.984 310.169 399.424 310.169C399.79 310.169 400.126 310.262 400.434 310.446C400.741 310.625 400.985 310.873 401.165 311.188C401.35 311.497 401.443 311.842 401.443 312.222C401.443 312.602 401.353 312.95 401.173 313.265C400.993 313.575 400.749 313.822 400.441 314.006C400.134 314.191 399.795 314.283 399.424 314.283C399.138 314.283 398.86 314.221 398.589 314.096C398.325 313.971 398.091 313.795 397.89 313.566C397.694 313.338 397.559 313.067 397.485 312.752L395.641 313.257C395.8 313.833 396.059 314.338 396.42 314.772C396.785 315.207 397.22 315.549 397.723 315.799C398.227 316.043 398.77 316.165 399.353 316.165C400.073 316.165 400.736 315.989 401.34 315.636C401.949 315.283 402.439 314.81 402.81 314.218C403.181 313.621 403.366 312.955 403.366 312.222C403.366 311.489 403.208 310.835 402.89 310.259C402.577 309.683 402.142 309.23 401.586 308.898C401.035 308.562 400.402 308.393 399.686 308.393C399.321 308.393 398.942 308.461 398.55 308.597C398.32 308.676 398.107 308.78 397.91 308.908L398.08 306.031L402.328 306.031C406.913 310.813 409.75 317.425 409.75 324.729ZM371.555 344.331L371.555 308.475H385.166C387.486 308.475 389.384 308.965 390.862 309.944C392.356 310.907 393.46 312.144 394.176 313.654C394.906 315.165 395.272 316.725 395.272 318.336C395.272 320.311 394.819 321.988 393.913 323.365C393.356 324.229 392.67 324.917 391.856 325.428C393.249 326.023 394.356 326.921 395.177 328.121C396.305 329.748 396.869 331.599 396.869 333.674C396.869 335.799 396.48 337.658 395.701 339.252C394.922 340.845 393.762 342.09 392.221 342.987C390.695 343.883 388.804 344.331 386.548 344.331H371.555ZM377.371 338.679H385.833C386.834 338.679 387.732 338.472 388.526 338.057C389.321 337.625 389.941 337.027 390.386 336.264C390.846 335.484 391.077 334.562 391.077 333.5C391.077 332.537 390.878 331.674 390.481 330.91C390.084 330.147 389.504 329.541 388.741 329.093C387.978 328.628 387.064 328.395 386 328.395H377.371V338.679ZM377.371 322.793H385.094C385.92 322.793 386.659 322.627 387.311 322.295C387.962 321.963 388.479 321.473 388.86 320.826C389.241 320.178 389.432 319.381 389.432 318.435C389.432 317.19 389.051 316.153 388.288 315.323C387.525 314.493 386.461 314.078 385.094 314.078H377.371V322.793Z" fill="url(#paint2_linear_213_4746)"/>
<defs>
<linearGradient id="paint0_linear_213_4746" x1="106" y1="302" x2="161.211" y2="357.211" gradientUnits="userSpaceOnUse">
<stop stop-color="#EE9B4F"/>
<stop offset="1" stop-color="#EE9B4F" stop-opacity="0"/>
</linearGradient>
<linearGradient id="paint1_linear_213_4746" x1="256" y1="67" x2="311.211" y2="122.211" gradientUnits="userSpaceOnUse">
<stop stop-color="#E9E9E9"/>
<stop offset="1" stop-color="#E9E9E9" stop-opacity="0"/>
</linearGradient>
<linearGradient id="paint2_linear_213_4746" x1="385" y1="285" x2="435.78" y2="316.773" gradientUnits="userSpaceOnUse">
<stop stop-color="#EE6C4F"/>
<stop offset="1" stop-color="#EE6C4F" stop-opacity="0"/>
</linearGradient>
</defs>
</svg>
