<svg width="512" height="512" viewBox="0 0 512 512" fill="none" xmlns="http://www.w3.org/2000/svg">
<g opacity="0.5">
<path d="M346.919 369.763C346.998 370.463 347.051 371.17 347.077 371.884L345.509 371.942C345.521 372.277 345.528 372.612 345.528 372.949C345.528 373.287 345.521 373.622 345.509 373.957L347.077 374.015C347.051 374.729 346.998 375.436 346.919 376.136L345.359 375.96C345.283 376.63 345.183 377.292 345.058 377.947L346.6 378.24C346.467 378.94 346.308 379.631 346.124 380.312L344.608 379.903C344.433 380.552 344.234 381.192 344.011 381.822L345.491 382.345C345.255 383.015 344.993 383.674 344.708 384.322L343.272 383.69C343.001 384.304 342.708 384.908 342.393 385.499L343.779 386.236C343.445 386.863 343.089 387.477 342.711 388.076L341.383 387.238C341.025 387.806 340.646 388.36 340.247 388.901L341.51 389.833C341.089 390.403 340.647 390.959 340.186 391.498L338.993 390.477C338.557 390.987 338.102 391.482 337.629 391.96L338.745 393.063C338.247 393.567 337.731 394.054 337.197 394.523L336.161 393.343C335.657 393.786 335.136 394.212 334.6 394.62L335.55 395.869C334.986 396.298 334.407 396.708 333.812 397.098L332.951 395.785C332.39 396.153 331.815 396.502 331.226 396.832L331.994 398.201C331.377 398.547 330.746 398.873 330.103 399.177L329.432 397.758C328.825 398.044 328.207 398.311 327.578 398.557L328.149 400.019C327.491 400.276 326.822 400.512 326.142 400.725L325.672 399.227C325.033 399.428 324.383 399.608 323.725 399.765L324.091 401.292C323.405 401.456 322.71 401.598 322.007 401.717L321.746 400.17C321.085 400.281 320.416 400.371 319.741 400.439L319.897 402.001C319.197 402.071 318.489 402.118 317.776 402.142L317.724 400.573C317.387 400.584 317.049 400.59 316.71 400.59C316.37 400.59 316.032 400.584 315.696 400.573L315.644 402.142C314.93 402.118 314.223 402.071 313.522 402.001L313.679 400.439C313.003 400.371 312.335 400.281 311.674 400.17L311.412 401.717C310.709 401.598 310.014 401.456 309.329 401.292L309.695 399.765C309.036 399.608 308.387 399.428 307.747 399.227L307.278 400.725C306.598 400.512 305.928 400.276 305.271 400.019L305.842 398.557C305.212 398.311 304.594 398.044 303.988 397.758L303.317 399.177C302.673 398.873 302.043 398.547 301.426 398.201L302.193 396.832C301.605 396.502 301.029 396.153 300.468 395.785L299.607 397.098C299.013 396.708 298.433 396.298 297.87 395.869L298.82 394.62C298.283 394.212 297.763 393.786 297.258 393.343L296.223 394.523C295.689 394.054 295.172 393.567 294.674 393.063L295.791 391.96C295.318 391.482 294.863 390.987 294.426 390.477L293.234 391.498C292.772 390.959 292.33 390.403 291.909 389.833L293.172 388.901C292.773 388.36 292.395 387.806 292.036 387.238L290.709 388.076C290.331 387.477 289.974 386.863 289.641 386.236L291.026 385.499C290.712 384.908 290.419 384.304 290.148 383.69L288.711 384.322C288.426 383.674 288.165 383.015 287.928 382.345L289.408 381.822C289.186 381.192 288.987 380.552 288.811 379.903L287.296 380.312C287.112 379.631 286.953 378.94 286.819 378.24L288.361 377.947C288.237 377.292 288.136 376.63 288.061 375.96L286.501 376.136C286.422 375.436 286.369 374.729 286.342 374.015L287.911 373.956C287.898 373.622 287.892 373.287 287.892 372.949C287.892 372.612 287.898 372.277 287.911 371.942L286.342 371.884C286.369 371.17 286.422 370.463 286.501 369.763L288.061 369.939C288.136 369.269 288.237 368.607 288.361 367.952L286.819 367.659C286.953 366.959 287.112 366.268 287.296 365.586L288.811 365.996C288.987 365.347 289.186 364.707 289.408 364.077L287.928 363.554C288.165 362.884 288.426 362.224 288.711 361.577L290.148 362.209C290.419 361.595 290.712 360.991 291.026 360.4L289.641 359.663C289.974 359.036 290.331 358.422 290.709 357.823L292.036 358.66C292.395 358.093 292.773 357.539 293.172 356.998L291.909 356.066C292.33 355.496 292.772 354.94 293.234 354.401L294.426 355.422C294.863 354.912 295.318 354.417 295.791 353.939L294.674 352.836C295.172 352.332 295.689 351.845 296.223 351.376L297.258 352.555C297.763 352.113 298.283 351.687 298.82 351.279L297.87 350.03C298.433 349.601 299.013 349.191 299.607 348.801L300.468 350.114C301.029 349.746 301.605 349.397 302.193 349.067L301.426 347.698C302.043 347.352 302.673 347.026 303.317 346.722L303.988 348.141C304.594 347.855 305.212 347.588 305.842 347.342L305.271 345.88C305.928 345.623 306.598 345.387 307.278 345.174L307.747 346.672C308.387 346.471 309.036 346.291 309.695 346.133L309.329 344.607C310.014 344.443 310.709 344.301 311.412 344.182L311.674 345.729C312.335 345.618 313.003 345.528 313.679 345.46L313.523 343.898C314.223 343.828 314.93 343.781 315.644 343.757L315.696 345.326C316.032 345.315 316.37 345.309 316.71 345.309C317.049 345.309 317.387 345.315 317.724 345.326L317.776 343.757C318.489 343.781 319.197 343.828 319.897 343.898L319.741 345.46C320.416 345.528 321.085 345.618 321.746 345.729L322.007 344.182C322.71 344.301 323.405 344.443 324.091 344.607L323.725 346.133C324.383 346.291 325.033 346.471 325.672 346.672L326.142 345.174C326.822 345.387 327.491 345.623 328.149 345.88L327.578 347.342C328.207 347.588 328.825 347.855 329.432 348.141L330.103 346.722C330.746 347.026 331.377 347.352 331.994 347.698L331.226 349.067C331.815 349.397 332.39 349.746 332.951 350.114L333.812 348.801C334.407 349.191 334.986 349.601 335.55 350.03L334.6 351.279C335.136 351.687 335.657 352.113 336.161 352.555L337.197 351.376C337.731 351.845 338.247 352.332 338.745 352.836L337.629 353.939C338.102 354.417 338.557 354.912 338.993 355.422L340.186 354.401C340.647 354.94 341.089 355.496 341.51 356.066L340.247 356.998C340.646 357.539 341.025 358.093 341.383 358.66L342.711 357.823C343.089 358.422 343.445 359.036 343.779 359.663L342.393 360.4C342.708 360.991 343.001 361.595 343.272 362.209L344.708 361.577C344.993 362.224 345.255 362.884 345.491 363.554L344.011 364.077C344.234 364.707 344.433 365.347 344.608 365.996L346.124 365.586C346.308 366.268 346.467 366.959 346.6 367.659L345.058 367.952C345.183 368.607 345.283 369.269 345.359 369.939L346.919 369.763Z" stroke="url(#paint0_linear_213_4777)" stroke-width="3.1392" stroke-dasharray="2.12 2.12"/>
<g filter="url(#filter0_bi_213_4777)">
<ellipse cx="316.71" cy="372.949" rx="23.8626" ry="22.9379" fill="url(#paint1_linear_213_4777)" fill-opacity="0.14"/>
</g>
<g filter="url(#filter1_dd_213_4777)">
<path fill-rule="evenodd" clip-rule="evenodd" d="M307.348 362.17L307.348 386.383L318.35 386.383C320.006 386.383 321.394 386.08 322.513 385.475C323.645 384.87 324.496 384.029 325.067 382.953C325.639 381.877 325.924 380.621 325.924 379.186C325.924 377.785 325.511 376.535 324.683 375.437C324.08 374.626 323.268 374.02 322.246 373.618C322.843 373.273 323.346 372.808 323.755 372.225C324.42 371.295 324.753 370.163 324.753 368.829C324.753 367.741 324.484 366.688 323.948 365.668C323.423 364.647 322.613 363.812 321.516 363.162C320.432 362.501 319.038 362.17 317.336 362.17L307.348 362.17ZM317.826 382.566L311.616 382.566L311.616 375.622L317.948 375.622C318.729 375.622 319.4 375.779 319.96 376.092C320.519 376.395 320.945 376.804 321.237 377.32C321.528 377.836 321.674 378.418 321.674 379.069C321.674 379.786 321.505 380.408 321.167 380.935C320.84 381.451 320.385 381.854 319.802 382.146C319.219 382.426 318.56 382.566 317.826 382.566ZM317.283 371.838L311.616 371.838L311.616 365.953L317.283 365.953C318.286 365.953 319.068 366.234 319.627 366.794C320.187 367.355 320.467 368.055 320.467 368.896C320.467 369.535 320.327 370.073 320.047 370.51C319.767 370.947 319.388 371.278 318.91 371.502C318.432 371.726 317.89 371.838 317.283 371.838ZM326.551 367.115C326.92 367.281 327.319 367.363 327.746 367.363C328.275 367.363 328.761 367.244 329.205 367.005C329.652 366.767 330.012 366.448 330.284 366.048C330.556 365.645 330.692 365.195 330.692 364.7C330.692 364.205 330.576 363.763 330.342 363.375C330.113 362.986 329.794 362.679 329.386 362.456C328.981 362.228 328.516 362.115 327.991 362.115C327.723 362.115 327.445 362.161 327.157 362.252C326.989 362.306 326.833 362.376 326.688 362.462L326.812 360.519L330.126 360.519L330.126 359.276L325.565 359.276L325.308 363.468L326.51 363.831C326.623 363.706 326.784 363.589 326.994 363.479C327.208 363.369 327.476 363.314 327.799 363.314C328.067 363.314 328.314 363.376 328.54 363.501C328.765 363.622 328.944 363.789 329.076 364.002C329.213 364.211 329.281 364.444 329.281 364.7C329.281 364.957 329.214 365.192 329.082 365.405C328.95 365.614 328.771 365.78 328.546 365.905C328.32 366.03 328.071 366.092 327.799 366.092C327.589 366.092 327.385 366.05 327.187 365.966C326.992 365.881 326.821 365.762 326.673 365.608C326.529 365.454 326.43 365.271 326.376 365.058L325.022 365.399C325.139 365.788 325.33 366.129 325.594 366.422C325.862 366.716 326.181 366.947 326.551 367.115Z" fill="url(#paint2_linear_213_4777)" shape-rendering="crispEdges"/>
</g>
<path fill-rule="evenodd" clip-rule="evenodd" d="M320.019 352.894L319.804 353.397L321.224 353.956L322.264 351.514L323.719 351.946L323.45 354.289L324.885 354.442L325.123 352.364L325.955 352.611L325.983 354.066L325.192 355.522L326.552 356.205L326.764 355.813L327.071 355.904L327.146 356.286L328.216 356.707L331.632 360.073L332.445 360.99L332.449 360.986L332.973 361.66C333.074 362.055 333.242 362.434 333.476 362.797C333.728 363.189 334.03 363.523 334.381 363.801C334.475 364.271 334.636 364.752 334.865 365.245C335.012 365.563 335.174 365.858 335.351 366.129C335.408 366.408 335.487 366.693 335.586 366.984C335.798 367.604 336.069 368.148 336.4 368.615L336.366 368.639L336.533 369.413L337.31 369.592L337.35 369.624C337.437 369.693 337.526 369.759 337.616 369.822L337.239 369.794L337.12 371.296L339.774 371.491L339.8 372.918L337.401 373.396L337.699 374.773L339.825 374.349L339.839 375.143L338.745 375.523L336.825 375.22L336.571 376.709L336.983 376.774L336.993 377.36L336.623 377.565L336.547 378.513L334.329 382.56L333.67 383.601L333.09 384.395C332.706 384.622 332.361 384.91 332.055 385.259C331.765 385.591 331.536 385.945 331.368 386.321C330.913 386.561 330.468 386.87 330.033 387.249C329.794 387.456 329.578 387.668 329.382 387.884C329.083 388.037 328.785 388.219 328.488 388.428C327.944 388.81 327.492 389.221 327.131 389.662L327.056 389.612L326.341 390.003L326.41 390.845L326.402 390.863C326.336 391.022 326.279 391.183 326.23 391.344L326.061 390.672L324.556 391.023L325.197 393.571L323.845 394.019L322.664 392.025L321.391 392.722L322.436 394.486L321.645 394.748L320.901 393.821L320.596 391.925L319.069 392.152L319.144 392.62L318.622 392.793L318.275 392.483L317.351 392.698L317.368 392.599L312.8 391.86L312.801 391.856L311.532 391.569L311.533 391.565L310.551 391.277C310.217 390.995 309.834 390.769 309.402 390.601C308.966 390.432 308.526 390.335 308.08 390.311C307.704 389.957 307.256 389.637 306.737 389.352C306.446 389.192 306.157 389.056 305.87 388.944C305.641 388.734 305.387 388.532 305.109 388.34C304.565 387.964 304.018 387.684 303.469 387.499L303.489 387.439L302.889 386.915L302.108 387.237L302.091 387.236C301.926 387.228 301.763 387.228 301.601 387.235L302.079 386.953L301.27 385.687L298.959 387.052L298.127 385.984L299.792 384.222L298.724 383.289L297.246 384.853L296.708 384.162L297.401 383.204L299.131 382.374L298.44 381.042L298.073 381.218L297.723 380.768L297.898 380.407L297.322 379.505L296.628 374.97L296.525 373.781L296.521 373.781L296.507 372.967C296.666 372.58 296.761 372.169 296.792 371.732C296.824 371.285 296.788 370.855 296.684 370.444C296.891 370.005 297.053 369.52 297.168 368.988C297.238 368.662 297.285 368.347 297.309 368.041C297.441 367.769 297.557 367.478 297.66 367.168C297.87 366.532 297.984 365.926 298.002 365.349L298.083 365.347L298.424 364.62L297.844 363.96C297.795 363.779 297.736 363.602 297.668 363.43L298.193 363.861L299.213 362.714L297.181 361.044L297.995 359.93L300.171 360.872L300.778 359.578L298.858 358.747L299.347 358.078L300.526 358.402L301.879 359.725L302.997 358.669L302.664 358.343L303.003 357.879L303.468 357.928L303.985 357.346L304.008 357.391L308.238 355.38L308.241 355.385L309.485 354.889L309.487 354.895L310.375 354.605C310.824 354.643 311.279 354.606 311.74 354.496C312.178 354.391 312.579 354.231 312.943 354.015C313.457 354.083 314.007 354.086 314.593 354.024C314.917 353.99 315.227 353.939 315.52 353.871C315.85 353.915 316.195 353.936 316.557 353.933C317.25 353.929 317.883 353.842 318.456 353.672L318.49 353.771L319.297 353.857L319.8 353.047C319.875 352.998 319.947 352.947 320.019 352.894ZM349.237 372.472L349.251 373.269L349.641 373.124L349.349 374.836L343.463 377.033L344.883 378.17L348.896 378.464L348.776 379.967L347.021 379.838L346.999 379.865L348.31 380.915L348.017 382.627L347.715 382.385L347.455 383.139L345.448 382.422L345.466 383.004L347.414 383.991L345.897 386.758L346.21 386.97L343.646 390.481L343.776 390.6L342.475 392.086L340.393 394.938L340.132 394.762L339.684 395.274C339.399 395.661 339.051 396.033 338.639 396.391C338.412 396.589 338.182 396.768 337.95 396.928L338.131 397.233L336.911 397.901L336.798 397.825C336.579 398.024 336.338 398.215 336.075 398.4C335.184 399.026 334.287 399.405 333.386 399.534L333.598 399.995L329.099 401.903C329.041 401.928 328.977 401.953 328.907 401.98L328.99 402.309L328.742 402.367L328.742 402.371L327.507 403.047L327.228 402.575L326.364 402.862L326.619 403.169L324.862 403.43L320.896 398.65L320.241 400.295L321.204 404.12L319.699 404.47L319.302 402.894L319.219 402.864L318.625 404.357L316.868 404.618L317 404.286L316.07 404.281L316.159 402.183L315.661 402.361L315.286 404.502L311.972 403.966L311.866 404.299L307.64 403.059L307.568 403.205L305.828 402.528L302.408 401.524L302.5 401.233L301.462 400.829L301.465 400.823C301.057 400.692 300.645 400.512 300.229 400.284C299.938 400.124 299.669 399.953 299.423 399.772L299.206 400.002L298.182 399.108L298.212 399.015C297.962 398.883 297.713 398.731 297.464 398.559C296.542 397.922 295.889 397.19 295.503 396.364L295.089 396.72L291.851 393.228C291.807 393.181 291.761 393.129 291.712 393.07L291.438 393.232L291.358 393.106L291.325 393.12L290.289 392.215L290.683 391.797L290.061 390.998L289.845 391.309L289.05 389.778L292.569 384.69L290.804 384.593L287.257 386.685L286.449 385.42L287.907 384.559L287.914 384.433L286.227 384.341L285.433 382.809L285.821 382.83L285.547 381.997L287.633 381.44L287.367 381.113L285.121 381.431L284.641 378.296L284.271 378.303L284.195 374.081L284.029 374.06L284.162 372.203L284.098 368.611L284.419 368.606L284.477 367.796C284.485 367.379 284.538 366.943 284.636 366.489C284.697 366.206 284.771 365.936 284.858 365.68L284.535 365.541L285.116 364.3L285.246 364.296C285.302 364.019 285.378 363.735 285.474 363.445C285.821 362.394 286.335 361.555 287.014 360.927L286.541 360.663L289.043 356.534C289.066 356.495 289.093 356.453 289.122 356.408L288.85 356.185L289.015 355.999L289.01 355.992L289.598 354.737L290.128 354.966L290.656 354.243L290.24 354.136L291.526 352.921L297.628 354.493L297.175 352.757L294.125 350.252L295.145 349.104L296.484 350.204L296.507 350.198L296.092 348.607L297.378 347.392L297.47 347.746L298.116 347.302L299.303 349.029L299.537 348.699L298.518 346.717L301.598 345.254L301.472 344.9L305.538 343.569L305.505 343.397L307.591 342.897L310.941 341.8L311.037 342.07L311.554 341.946C312.043 341.771 312.583 341.652 313.172 341.59C313.542 341.551 313.897 341.537 314.238 341.549L314.279 341.191L315.654 341.337L315.691 341.44C315.944 341.413 316.207 341.398 316.479 341.397C317.619 341.39 318.6 341.611 319.421 342.06L319.545 341.504L324.291 342.487C324.336 342.496 324.385 342.507 324.437 342.52L324.57 342.206L324.863 342.322L324.868 342.315L326.26 342.462L326.199 342.993L327.31 343.323L327.339 345.12C327.347 345.155 327.354 345.189 327.361 345.224C327.452 345.699 327.453 346.199 327.366 346.724L327.419 349.96L327.609 350.92L327.351 342.964L328.915 343.749L329.119 349.886L330.146 349.242L331.912 345.095L333.332 345.654L332.603 347.365L332.852 347.191L333.02 347.442L334.466 346.535L336.03 347.32L335.721 347.514L336.358 347.965L334.997 349.617L335.496 349.75L337.126 348.222L339.462 350.523L339.761 350.308L342.46 353.773L342.607 353.697L343.595 355.231L345.716 357.955L345.465 358.136L346.043 359.034C346.291 359.373 346.512 359.753 346.707 360.173C346.825 360.427 346.925 360.678 347.007 360.926L347.331 360.861L347.616 362.181L347.519 362.252C347.651 362.518 347.769 362.803 347.872 363.105C348.214 364.105 348.308 365.035 348.155 365.893L348.656 365.843L349.159 370.565C349.163 370.597 349.166 370.632 349.169 370.669L349.512 370.694L349.487 371.012L349.524 371.021L349.812 372.357L349.237 372.472ZM344.148 384.045L344.128 384.514L345.069 384.512L345.415 384.687L343.871 387.502C343.796 387.64 343.713 387.764 343.624 387.876L340.507 386.052C340.536 385.984 340.57 385.917 340.607 385.849L342.15 383.033L342.189 383.053L342.219 383.147L342.309 383.114L344.148 384.045ZM342.705 381.605L343.857 381.28L342.574 379.634L342.73 379.523L337.895 379.169L342.705 381.605ZM344.232 379.633L344.855 380.571L345.069 380.268L344.28 379.637L344.232 379.633ZM346.035 381.041L345.843 381.274L346.585 381.482L346.035 381.041ZM339.307 377.761L340.181 377.279L341.617 377.506L342.201 377.974L339.307 377.761ZM347.702 370.561L347.4 367.732C347.161 368.084 346.872 368.412 346.532 368.716C346.017 369.178 345.409 369.57 344.708 369.894L347.494 370.546L347.702 370.561ZM342.958 371.724L345.023 371.876L343.172 372.245C343.108 372.132 343.052 372.008 343.005 371.875C342.988 371.826 342.972 371.776 342.958 371.724ZM341.206 371.596L341.451 371.614C341.455 371.638 341.459 371.663 341.464 371.688C341.467 371.705 341.47 371.723 341.473 371.74C341.501 371.9 341.535 372.053 341.574 372.2C341.606 372.318 341.642 372.432 341.681 372.542L341.225 372.633L341.206 371.596ZM341.261 374.648L341.25 374.064L342.495 373.816C342.603 373.919 342.717 374.014 342.835 374.1L341.261 374.648ZM339.923 368.518L341.153 368.897L341.066 368.083L340.733 368.116L340.789 368.453C340.494 368.493 340.206 368.515 339.923 368.518ZM346.528 366.053C346.553 365.986 346.575 365.918 346.595 365.849C346.696 365.515 346.738 365.162 346.723 364.79C346.465 365.275 346.124 365.723 345.701 366.134L346.528 366.053ZM344.938 366.209L344.213 365.346C344.823 364.867 345.259 364.322 345.521 363.712L341.663 366.532L344.938 366.209ZM338.915 366.802L338.62 366.831C338.399 366.77 338.185 366.691 337.978 366.594C337.508 366.369 337.102 366.035 336.758 365.592C336.722 365.291 336.722 365.001 336.758 364.722C336.895 364.734 337.034 364.74 337.174 364.74C337.919 364.736 338.619 364.54 339.273 364.151C339.454 364.043 339.623 363.927 339.781 363.803L344.337 362.894L338.915 366.802ZM342.618 368.972L342.508 367.941L345.344 367.662C344.734 368.161 343.963 368.558 343.03 368.852C342.891 368.896 342.754 368.936 342.618 368.972ZM343.066 360.885C343.707 360.93 344.278 361.092 344.779 361.37L341.025 362.119C341.161 361.764 341.239 361.398 341.26 361.021C341.895 360.89 342.497 360.844 343.066 360.885ZM337.73 362.776L338.948 362.533C339.144 362.349 339.304 362.139 339.428 361.905C339.493 361.786 339.548 361.665 339.593 361.542C339.017 361.789 338.518 362.087 338.097 362.436C337.965 362.545 337.843 362.658 337.73 362.776ZM344.682 359.669C344.435 359.384 344.157 359.151 343.849 358.969C343.215 358.594 342.49 358.418 341.675 358.441C341.299 358.451 340.913 358.5 340.516 358.587C340.561 358.648 340.604 358.711 340.645 358.774C340.791 359.002 340.912 359.233 341.006 359.467C341.817 359.307 342.592 359.269 343.331 359.351C343.809 359.407 344.26 359.513 344.682 359.669ZM339.597 359.854C339.533 359.682 339.45 359.515 339.345 359.353C339.273 359.241 339.196 359.136 339.117 359.039L339.09 359.05C338.182 359.433 337.447 359.908 336.883 360.475C336.325 361.041 335.978 361.679 335.84 362.39C335.815 362.527 335.799 362.665 335.792 362.806C336.071 362.283 336.449 361.805 336.926 361.373C337.639 360.735 338.529 360.229 339.597 359.854ZM334.493 361.477C334.499 361.458 334.505 361.439 334.511 361.42L334.476 361.42L334.484 361.449L334.493 361.477ZM341.791 356.896C341.15 356.889 340.492 356.973 339.817 357.15L341.853 355.684L342.039 355.588L342.4 356.052L343.04 357.046C342.642 356.953 342.226 356.903 341.791 356.896ZM336.129 357.972L336.544 357.673C336.544 357.66 336.543 357.646 336.543 357.633L336.129 357.972ZM339.824 353.023C339.724 352.838 339.587 352.661 339.414 352.491L337.153 350.262L336.955 350.448L336.6 351.45L336.078 351.27L334.633 352.625L334.638 352.822L334.483 352.823L336.715 355.022C336.821 355.127 336.932 355.218 337.049 355.295L339.824 353.023ZM335.901 356.235L335.894 356.228L333.406 353.776L330.282 356.705L332.573 358.962L335.901 356.235ZM333.302 351.808L328.989 355.852L331.127 350.832L331.331 351.471L333.358 350.76L333.302 351.808ZM332.783 349.356L331.855 349.938L332.997 349.628L332.783 349.356ZM333.853 348.685L334.008 348.917L334.43 348.324L333.853 348.685ZM328.189 353.838L328.095 353.364L328.974 351.746L329.119 351.655L328.189 353.838ZM323.87 343.85L323.8 344.014L322.203 346.558C322.105 345.755 321.898 345.025 321.582 344.368C321.379 343.944 321.134 343.563 320.847 343.224L323.87 343.85ZM325.79 349.439L325.906 350.027L325.927 351.136L325.286 350.945L325.434 349.659C325.558 349.592 325.677 349.519 325.79 349.439ZM323.498 348.615L324.324 346.677L324.107 348.566C323.964 348.597 323.812 348.614 323.65 348.617C323.601 348.618 323.55 348.617 323.498 348.615ZM322.819 350.211L322.916 349.983C322.957 349.989 322.999 349.995 323.044 350.001C323.207 350.024 323.367 350.04 323.522 350.049C323.663 350.056 323.802 350.057 323.936 350.052L323.882 350.527L322.819 350.211ZM314.861 349.609C314.84 349.528 314.817 349.448 314.792 349.37L315.34 344.598L317.465 350.787L317.464 350.795C317.3 351.081 317.101 351.342 316.868 351.577C316.494 351.95 316.027 352.226 315.465 352.405C315.168 352.341 314.891 352.248 314.636 352.128C314.698 351.991 314.754 351.85 314.802 351.705C315.027 351.022 315.047 350.324 314.861 349.609ZM319.301 349.528L319.555 349.565C319.46 350.115 319.3 350.623 319.077 351.089L319.094 351.138L320.331 349.457L319.362 349.256L319.301 349.528ZM320.249 345.295C320.512 345.976 320.647 346.758 320.652 347.641C320.653 347.788 320.65 347.931 320.644 348.072L319.672 347.871L320.249 345.295ZM319.069 343.628C318.979 343.556 318.884 343.487 318.785 343.423C318.465 343.212 318.103 343.057 317.699 342.956C318.17 343.4 318.558 343.933 318.862 344.553L319.069 343.628ZM318.761 345.005L317.525 345.467C317.293 344.897 316.984 344.418 316.6 344.03L318.052 348.169L318.761 345.005ZM312.838 345.145C313.109 344.494 313.498 343.969 314.005 343.573L313.551 347.526C313.212 347.244 312.836 347.024 312.422 346.868C312.485 346.236 312.624 345.662 312.838 345.145ZM312.679 348.787C312.96 349.053 313.166 349.371 313.297 349.741L313.174 350.817C313.053 350.629 312.946 350.427 312.853 350.21C312.64 349.719 312.499 349.173 312.431 348.572C312.517 348.638 312.6 348.71 312.679 348.787ZM312.149 343.262C311.757 343.405 311.412 343.599 311.117 343.845C310.555 344.313 310.162 344.925 309.937 345.681C309.834 346.027 309.765 346.395 309.731 346.785C309.801 346.764 309.872 346.745 309.944 346.727C310.242 346.656 310.534 346.614 310.821 346.603C310.911 345.807 311.108 345.082 311.413 344.426C311.616 343.996 311.861 343.607 312.149 343.262ZM310.772 348.011C310.557 348.011 310.339 348.038 310.12 348.09C309.991 348.121 309.868 348.158 309.751 348.199L309.755 348.242C309.823 348.87 309.953 349.44 310.146 349.955C310.276 350.122 310.392 350.306 310.495 350.507C310.599 350.709 310.685 350.91 310.751 351.108C311.105 351.597 311.544 351.978 312.069 352.252C312.207 352.323 312.351 352.384 312.5 352.436C312.078 352.02 311.729 351.529 311.453 350.962C311.041 350.103 310.814 349.119 310.772 348.011ZM308.447 345.1C308.295 345.544 308.191 346.013 308.136 346.507L307.404 344.439L307.969 344.254L308.963 344.015C308.755 344.348 308.583 344.71 308.447 345.1ZM308.405 351.842L308.38 351.855L307.588 350.021C307.652 350.034 307.715 350.05 307.777 350.069L308.405 351.842ZM306.02 350.245L307.676 354.079L304.756 355.467L302.846 351.754L306.02 350.245ZM304.058 345.705L305.454 348.936C305.359 349 305.255 349.059 305.145 349.111L302.295 350.466L302.357 350.293L302.052 350.21L301.227 348.605L301.644 348.099L300.581 347.351L300.555 347.299L303.494 345.902C303.685 345.811 303.873 345.745 304.058 345.705ZM300.815 351.183L303.113 355.651L299.789 352.919L299.933 352.92L299.896 350.859L300.815 351.183ZM298.593 351.937L298.658 350.859L298.315 350.976L298.559 351.909L298.593 351.937ZM298.008 349.801L298.286 349.727L297.844 349.177L298.008 349.801ZM301.424 356.248L300.414 356.143L299.409 355.16L299.22 354.437L301.424 356.248ZM296.094 360.151L296.673 359.357L296.249 359.173C296.216 359.273 296.178 359.374 296.136 359.476C296.077 359.618 296.009 359.761 295.934 359.907C295.92 359.934 295.907 359.961 295.893 359.986L296.094 360.151ZM294.748 359.045C294.762 359.008 294.775 358.971 294.788 358.935C294.827 358.813 294.857 358.695 294.875 358.579L293.405 357.942L294.748 359.045ZM297.899 357.679L297.537 358.175L296.397 357.681C296.375 357.529 296.342 357.382 296.3 357.238L297.899 357.679ZM294.01 363.115L294.443 362.4L295.379 363.637C295.076 363.4 294.74 363.188 294.373 363L294.246 363.247L294.01 363.115ZM292.658 364.087L289.696 362.429L289.758 363.63C288.99 363.68 288.32 363.879 287.747 364.226L292.658 364.087ZM289.15 362.124L288.429 361.72C288.338 361.778 288.25 361.84 288.165 361.907C287.897 362.113 287.661 362.361 287.455 362.653C287.974 362.394 288.539 362.218 289.15 362.124ZM290.427 361.109L292.766 362.418L293.271 361.585C293.132 361.535 292.99 361.487 292.844 361.443C291.98 361.179 291.174 361.068 290.427 361.109ZM290.206 357.365L292.198 359.653C291.418 359.515 290.673 359.492 289.961 359.584C289.504 359.644 289.072 359.751 288.666 359.906L290.206 357.365ZM292.968 367.327C292.728 367.311 292.494 367.313 292.266 367.332L288.179 365.562L295.001 365.414C295.194 365.63 295.358 365.865 295.495 366.119C295.74 366.58 295.863 367.097 295.864 367.672C295.721 367.917 295.56 368.137 295.38 368.333C295.26 368.226 295.133 368.126 295 368.032C294.402 367.612 293.724 367.377 292.968 367.327ZM286.862 366.548L290.304 368.039C289.974 368.267 289.686 368.54 289.441 368.858C288.875 368.613 288.383 368.319 287.965 367.976C287.46 367.561 287.092 367.085 286.862 366.548ZM293.462 369.407L292.192 368.856C291.949 368.9 291.717 368.979 291.497 369.092C291.335 369.172 291.185 369.264 291.046 369.37C291.692 369.507 292.305 369.549 292.883 369.496C293.082 369.478 293.275 369.448 293.462 369.407ZM285.953 368.097C285.982 368.452 286.061 368.785 286.191 369.094C286.471 369.761 286.944 370.315 287.61 370.756C287.919 370.962 288.261 371.141 288.636 371.294C288.635 371.191 288.638 371.088 288.645 370.984C288.662 370.747 288.696 370.52 288.748 370.301C288.003 369.976 287.359 369.572 286.819 369.088C286.48 368.782 286.191 368.452 285.953 368.097ZM290.107 370.774C290.068 370.926 290.043 371.082 290.032 371.244C290.02 371.405 290.02 371.561 290.03 371.71L290.044 371.712C290.597 371.826 291.123 371.882 291.622 371.879C291.903 371.76 292.21 371.677 292.542 371.63C292.833 371.589 293.112 371.574 293.379 371.585C293.864 371.404 294.292 371.14 294.661 370.792C294.757 370.7 294.847 370.602 294.932 370.498C294.396 370.767 293.809 370.944 293.172 371.029C292.212 371.153 291.191 371.069 290.107 370.774ZM286.583 371.964C286.947 372.228 287.347 372.458 287.782 372.654L285.618 372.689L285.609 372.213L285.686 371.148C285.945 371.445 286.244 371.717 286.583 371.964ZM287.413 374.479C287.391 374.481 287.369 374.484 287.347 374.487C287.253 374.501 287.163 374.519 287.077 374.542L287.592 374.501L287.413 374.479ZM293.15 374.053L291.206 374.085C291.178 374.128 291.152 374.171 291.128 374.216L293.15 374.053ZM285.815 376.135C285.807 376.289 285.816 376.451 285.842 376.62L286.321 379.745L286.417 379.731L287.444 379.026L287.799 379.536L289.687 379.269L289.845 379.044L289.986 379.144L289.52 376.1C289.507 376.011 289.488 375.924 289.465 375.841L285.815 376.135ZM290.921 375.723L291.426 379.023L295.681 378.421L295.215 375.377L290.921 375.723ZM290.257 380.704L295.759 379.926L291.575 382.395L291.694 382.051L289.636 381.458L290.257 380.704ZM289.259 383.018L290.412 383.081L290.482 383.04L289.248 382.586L289.259 383.018ZM287.989 382.949L288.008 382.58L287.077 382.899L287.989 382.949ZM295.57 381.78L295.167 382.612L293.802 383.267L293.115 383.229L295.57 381.78ZM293.513 386.023L293.525 385.996L293.395 386.185L293.513 386.023ZM296.177 388.693L294.797 389.507L295.786 388.461C295.896 388.513 296.006 388.575 296.115 388.649L296.135 388.663C296.149 388.672 296.163 388.682 296.177 388.693ZM297.717 387.784L297.493 387.916L297.452 387.877C297.333 387.766 297.214 387.663 297.094 387.567C297.003 387.496 296.912 387.429 296.82 387.367L297.133 387.035L297.717 387.784ZM295.836 385.37L296.253 385.904L295.401 386.806C295.208 386.778 295.016 386.766 294.825 386.769L295.836 385.37ZM301.118 389.342L299.359 389.909L299.975 390.573L300.205 390.375L300.013 390.191C300.363 389.857 300.732 389.575 301.118 389.342ZM296.751 395.295C296.78 395.402 296.813 395.509 296.852 395.614C296.98 395.963 297.173 396.291 297.433 396.598C297.333 395.978 297.35 395.334 297.486 394.666L296.751 395.295ZM297.848 394.355L299.121 394.673C298.937 395.34 298.9 395.968 299.01 396.557L300.45 392.126L297.848 394.355ZM302.521 390.351L302.562 390.316C302.834 390.201 303.116 390.117 303.406 390.064C303.932 389.972 304.473 390.009 305.03 390.177C305.253 390.418 305.434 390.672 305.573 390.941C305.46 391.007 305.35 391.079 305.242 391.157C304.644 391.588 304.199 392.149 303.908 392.839C303.878 392.91 303.85 392.982 303.824 393.053L300.43 396.644L302.521 390.351ZM298.211 390.796L298.877 391.513L296.824 393.273C297.03 392.571 297.403 391.859 297.942 391.138C298.031 391.02 298.121 390.906 298.211 390.796ZM293.064 392.412L295.98 391.225C295.592 391.905 295.325 392.587 295.181 393.271C295.088 393.715 295.05 394.148 295.068 394.572L293.064 392.412ZM302.7 397.569C302.125 397.919 301.535 398.122 300.93 398.178L303.674 395.274C303.764 395.668 303.913 396.035 304.121 396.376C303.674 396.867 303.2 397.265 302.7 397.569ZM305.903 392.917L305.236 393.622C305.116 393.996 305.086 394.37 305.147 394.743C305.157 394.809 305.168 394.873 305.182 394.936C305.472 394.438 305.678 393.942 305.803 393.45C305.848 393.27 305.881 393.092 305.903 392.917ZM302.066 399.494C302.474 399.601 302.874 399.638 303.266 399.603C304.005 399.539 304.697 399.262 305.342 398.772C305.63 398.553 305.905 398.3 306.166 398.01C306.133 397.998 306.1 397.986 306.067 397.973C305.755 397.852 305.471 397.704 305.214 397.53C304.655 398.122 304.052 398.598 303.406 398.956C302.968 399.197 302.521 399.376 302.066 399.494ZM306.127 396.407C306.316 396.55 306.528 396.667 306.762 396.758C306.851 396.793 306.938 396.823 307.025 396.849L307.063 396.787C307.565 395.954 307.873 395.146 307.986 394.363C308.095 393.585 307.991 392.87 307.672 392.217C307.609 392.09 307.537 391.967 307.455 391.848C307.539 392.421 307.518 393.015 307.392 393.628C307.196 394.558 306.774 395.484 306.127 396.407ZM309.326 392.212L309.34 392.252C309.347 392.272 309.353 392.292 309.36 392.313C309.378 392.3 309.396 392.288 309.414 392.275C309.385 392.254 309.356 392.233 309.326 392.212ZM306.18 400.084C306.732 399.699 307.238 399.22 307.698 398.647L306.842 401.342L306.329 401.192L305.055 400.696C305.442 400.539 305.817 400.335 306.18 400.084ZM310.548 394.668L309.957 396.529C309.991 396.572 310.027 396.614 310.065 396.655L310.552 394.669L310.548 394.668ZM310.267 402.2C310.435 402.269 310.621 402.32 310.823 402.353L314.014 402.868L314.058 402.613L313.731 401.611L314.259 401.463L314.595 399.544L314.479 399.399L314.637 399.289L311.449 398.774C311.335 398.755 311.223 398.745 311.114 398.743L310.267 402.2ZM311.456 397.347L314.883 397.9L315.607 393.759L312.459 393.25L311.456 397.347ZM316.171 399.441L317.099 394.139L318.279 398.828L317.992 398.623L316.785 400.339L316.171 399.441ZM318.234 401.18L318.624 400.199L318.588 400.056L317.774 401.046L318.234 401.18ZM317.777 402.332L317.391 402.189L317.423 403.221L317.777 402.332ZM318.916 395.029L319.634 395.668L319.862 397.084L319.599 397.744L318.916 395.029ZM325.962 396.612L326.393 398.32L325.572 396.936C325.667 396.837 325.775 396.744 325.897 396.656C325.919 396.641 325.94 396.626 325.962 396.612ZM325.538 394.923L325.603 395.185L325.555 395.21C325.406 395.285 325.266 395.362 325.133 395.443C325.021 395.511 324.915 395.583 324.815 395.657L324.57 395.244L325.538 394.923ZM322.574 395.905L323.162 395.711L323.812 396.809C323.743 396.945 323.684 397.084 323.635 397.226L322.574 395.905ZM328.17 392.437L328.186 394.076L329.035 393.716L328.941 393.512L328.632 393.667C328.425 393.259 328.271 392.849 328.17 392.437ZM332.729 398.101C332.806 398.103 332.884 398.102 332.962 398.099C333.321 398.085 333.682 398.014 334.043 397.885C333.483 397.805 332.935 397.637 332.399 397.382L332.729 398.101ZM332.101 396.734L332.749 395.783C333.398 396.178 334.06 396.399 334.733 396.446L330.748 393.786L332.101 396.734ZM329.633 391.356L329.593 391.269C329.579 391.017 329.592 390.765 329.631 390.514C329.716 389.993 329.939 389.498 330.301 389.026C330.567 388.914 330.832 388.833 331.098 388.783C331.13 388.945 331.172 389.106 331.224 389.266C331.448 389.944 331.85 390.518 332.429 390.986C332.603 391.127 332.783 391.253 332.968 391.362L335.197 395.124L329.633 391.356ZM328.625 395.418L329.622 394.995L330.785 397.53C330.103 397.132 329.473 396.553 328.895 395.794C328.8 395.669 328.71 395.544 328.625 395.418ZM328.605 400.584L328.381 397.66C328.913 398.192 329.484 398.619 330.095 398.941C330.502 399.155 330.917 399.316 331.34 399.424L328.605 400.584ZM336.82 393.325C336.972 393.935 336.983 394.518 336.851 395.072L334.983 391.918C335.38 391.923 335.772 391.871 336.158 391.76C336.47 392.285 336.69 392.806 336.82 393.325ZM333.279 389.041L333.944 390.164C334.182 390.28 334.434 390.355 334.701 390.391C334.856 390.415 335.01 390.425 335.162 390.423C334.727 389.951 334.263 389.572 333.769 389.286C333.607 389.193 333.444 389.111 333.279 389.041ZM338.519 394.404C338.733 394.083 338.885 393.75 338.975 393.406C339.156 392.709 339.112 391.993 338.843 391.258C338.72 390.919 338.555 390.582 338.347 390.248C338.289 390.326 338.228 390.402 338.163 390.475C337.988 390.675 337.803 390.854 337.607 391.013C338.009 391.698 338.282 392.389 338.424 393.085C338.513 393.534 338.545 393.974 338.519 394.404ZM336.803 389.859C336.947 389.748 337.081 389.622 337.205 389.48C337.308 389.363 337.399 389.244 337.479 389.124L337.46 389.103C337.096 388.712 336.719 388.378 336.33 388.102C336.03 388.041 335.73 387.935 335.433 387.784C335.153 387.642 334.904 387.484 334.685 387.309C334.182 387.179 333.675 387.149 333.163 387.22C333.02 387.24 332.878 387.27 332.737 387.309C333.329 387.401 333.906 387.593 334.468 387.886C335.324 388.338 336.102 388.995 336.803 389.859ZM340.413 390.869C340.265 390.401 340.055 389.943 339.784 389.493L341.676 390.77L341.34 391.23L340.639 392.03C340.61 391.646 340.535 391.258 340.413 390.869ZM341.358 388.394C341.504 388.467 341.649 388.521 341.795 388.555L341.071 388.132L341.358 388.394ZM336.553 385.489L338.074 386.515C338.117 386.496 338.16 386.476 338.203 386.454L336.553 385.489ZM339.273 385.33L340.884 382.392L337.107 380.478L335.619 383.193L339.273 385.33Z" fill="url(#paint3_linear_213_4777)"/>
</g>
<g opacity="0.5">
<g opacity="0.6" filter="url(#filter2_dd_213_4777)">
</g>
<g filter="url(#filter3_i_213_4777)">
<g filter="url(#filter4_d_213_4777)">
<path fill-rule="evenodd" clip-rule="evenodd" d="M371.028 167.444C386.17 167.444 398.446 155.169 398.446 140.026C398.446 124.884 386.17 112.609 371.028 112.609C355.886 112.609 343.61 124.884 343.61 140.026C343.61 155.169 355.886 167.444 371.028 167.444ZM367.323 163.228C367.323 163.569 367.369 163.899 367.454 164.213C356.771 162.702 348.307 154.289 346.719 143.631C347.097 143.759 347.503 143.829 347.924 143.829C349.997 143.829 351.677 142.148 351.677 140.075C351.677 138.002 349.997 136.322 347.924 136.322C347.494 136.322 347.08 136.395 346.695 136.528C348.237 125.676 356.901 117.116 367.804 115.735C367.498 116.279 367.323 116.907 367.323 117.575C367.323 119.648 369.004 121.329 371.077 121.329C373.149 121.329 374.83 119.648 374.83 117.575C374.83 116.927 374.665 116.316 374.376 115.784C385.105 117.307 393.593 125.792 395.12 136.519C394.736 136.386 394.323 136.314 393.894 136.314C391.821 136.314 390.141 137.995 390.141 140.067C390.141 142.14 391.821 143.821 393.894 143.821C394.315 143.821 394.721 143.751 395.099 143.623C393.532 154.169 385.233 162.518 374.713 164.161C374.789 163.862 374.83 163.55 374.83 163.228C374.83 161.155 373.149 159.474 371.077 159.474C369.004 159.474 367.323 161.155 367.323 163.228Z" fill="url(#paint4_linear_213_4777)"/>
</g>
<path fill-rule="evenodd" clip-rule="evenodd" d="M376.408 118.072C376.09 120.788 373.782 122.895 370.981 122.895C368.188 122.895 365.884 120.8 365.557 118.095C357.402 120.115 350.988 126.545 348.991 134.708C351.499 135.204 353.39 137.415 353.39 140.068C353.39 142.73 351.487 144.947 348.968 145.433C350.946 153.674 357.421 160.164 365.653 162.165C366.208 159.734 368.382 157.921 370.981 157.921C373.587 157.921 375.767 159.745 376.313 162.187C384.581 160.214 391.092 153.717 393.085 145.457C390.499 145.025 388.529 142.777 388.529 140.068C388.529 137.368 390.487 135.125 393.061 134.683C391.05 126.501 384.598 120.064 376.408 118.072ZM384.861 139.995C384.861 147.73 378.591 154 370.856 154C363.122 154 356.852 147.73 356.852 139.995C356.852 132.261 363.122 125.991 370.856 125.991C374.194 125.991 377.26 127.159 379.666 129.108H377.456L377.263 132.399L378.169 132.684C378.254 132.586 378.376 132.494 378.534 132.408C378.696 132.321 378.898 132.278 379.142 132.278C379.344 132.278 379.531 132.327 379.701 132.425C379.871 132.52 380.006 132.651 380.106 132.818C380.208 132.982 380.26 133.165 380.26 133.366C380.26 133.568 380.21 133.752 380.11 133.919C380.01 134.083 379.875 134.214 379.705 134.312C379.535 134.41 379.347 134.459 379.142 134.459C378.983 134.459 378.829 134.426 378.68 134.359C378.533 134.293 378.404 134.2 378.292 134.079C378.184 133.958 378.109 133.814 378.068 133.647L377.047 133.915C377.135 134.22 377.279 134.488 377.478 134.718C377.681 134.948 377.921 135.129 378.2 135.262C378.479 135.391 378.779 135.456 379.102 135.456C379.501 135.456 379.868 135.363 380.202 135.176C380.54 134.988 380.811 134.738 381.017 134.424C381.222 134.108 381.325 133.755 381.325 133.366C381.325 132.978 381.237 132.631 381.061 132.326C380.888 132.02 380.647 131.78 380.339 131.604C380.034 131.426 379.683 131.337 379.287 131.337C379.085 131.337 378.875 131.373 378.658 131.445C378.531 131.487 378.413 131.542 378.304 131.609L378.397 130.084H380.751C383.29 132.619 384.861 136.124 384.861 139.995ZM363.711 150.386L363.711 131.38L371.247 131.38C372.532 131.38 373.583 131.64 374.402 132.159C375.229 132.669 375.84 133.325 376.236 134.125C376.641 134.926 376.843 135.753 376.843 136.607C376.843 137.654 376.592 138.542 376.091 139.273C375.782 139.73 375.402 140.095 374.952 140.366C375.723 140.681 376.336 141.157 376.79 141.793C377.415 142.656 377.727 143.637 377.727 144.737C377.727 145.863 377.512 146.848 377.081 147.693C376.65 148.538 376.007 149.198 375.154 149.673C374.309 150.148 373.262 150.386 372.013 150.386H363.711ZM366.931 147.39H371.617C372.171 147.39 372.668 147.28 373.108 147.06C373.548 146.831 373.891 146.514 374.138 146.109C374.393 145.696 374.52 145.207 374.52 144.644C374.52 144.134 374.41 143.676 374.19 143.272C373.97 142.867 373.649 142.546 373.227 142.308C372.805 142.062 372.299 141.939 371.709 141.939H366.931V147.39ZM366.931 138.969L371.208 138.969C371.665 138.969 372.074 138.881 372.435 138.705C372.796 138.529 373.082 138.27 373.293 137.926C373.504 137.583 373.61 137.161 373.61 136.659C373.61 135.999 373.398 135.45 372.976 135.01C372.554 134.57 371.964 134.35 371.208 134.35H366.931V138.969Z" fill="url(#paint5_linear_213_4777)"/>
</g>
</g>
<g opacity="0.5">
<circle cx="127" cy="226" r="24.8813" stroke="url(#paint6_linear_213_4777)" stroke-width="10.2375" stroke-dasharray="2.96 2.96"/>
<g filter="url(#filter5_bi_213_4777)">
<circle cx="127" cy="226" r="27.3184" fill="url(#paint7_linear_213_4777)" fill-opacity="0.15"/>
</g>
<g filter="url(#filter6_dd_213_4777)">
<path fill-rule="evenodd" clip-rule="evenodd" d="M118.361 214.92L118.361 239.612L129.147 239.612C130.77 239.612 132.131 239.304 133.228 238.687C134.337 238.069 135.172 237.212 135.732 236.114C136.292 235.017 136.572 233.737 136.572 232.273C136.572 230.844 136.166 229.57 135.354 228.45C134.764 227.623 133.968 227.004 132.966 226.595C133.551 226.242 134.044 225.769 134.446 225.174C135.097 224.226 135.423 223.071 135.423 221.711C135.423 220.602 135.16 219.527 134.634 218.487C134.12 217.447 133.325 216.595 132.251 215.932C131.188 215.257 129.822 214.92 128.153 214.92L118.361 214.92ZM128.633 235.72L122.545 235.72L122.545 228.638L128.753 228.638C129.519 228.638 130.176 228.798 130.725 229.118C131.273 229.427 131.691 229.844 131.976 230.37C132.262 230.896 132.405 231.49 132.405 232.153C132.405 232.885 132.239 233.519 131.908 234.057C131.588 234.583 131.142 234.994 130.57 235.291C129.999 235.577 129.353 235.72 128.633 235.72ZM128.101 224.78L122.545 224.78L122.545 218.778L128.101 218.778C129.084 218.778 129.85 219.064 130.399 219.636C130.948 220.207 131.222 220.922 131.222 221.779C131.222 222.431 131.085 222.979 130.81 223.425C130.536 223.871 130.164 224.208 129.696 224.437C129.227 224.666 128.696 224.78 128.101 224.78ZM137.187 219.964C137.549 220.132 137.939 220.216 138.359 220.216C138.877 220.216 139.354 220.094 139.788 219.851C140.227 219.608 140.579 219.283 140.846 218.875C141.113 218.464 141.246 218.006 141.246 217.501C141.246 216.996 141.132 216.545 140.903 216.148C140.678 215.752 140.366 215.44 139.966 215.212C139.569 214.98 139.114 214.864 138.599 214.864C138.336 214.864 138.063 214.91 137.781 215.004C137.616 215.059 137.463 215.13 137.321 215.218L137.443 213.237L140.692 213.237L140.692 211.969L136.22 211.969L135.969 216.244L137.147 216.614C137.257 216.487 137.415 216.367 137.621 216.255C137.831 216.143 138.094 216.087 138.41 216.087C138.673 216.087 138.915 216.15 139.136 216.278C139.358 216.401 139.533 216.571 139.663 216.788C139.796 217.001 139.863 217.239 139.863 217.501C139.863 217.762 139.798 218.002 139.668 218.219C139.539 218.432 139.363 218.602 139.142 218.729C138.921 218.856 138.677 218.92 138.41 218.92C138.204 218.92 138.004 218.877 137.81 218.791C137.619 218.705 137.452 218.583 137.307 218.426C137.166 218.269 137.068 218.082 137.015 217.865L135.688 218.213C135.803 218.61 135.99 218.957 136.249 219.257C136.512 219.556 136.824 219.791 137.187 219.964Z" fill="url(#paint8_linear_213_4777)"/>
</g>
<path fill-rule="evenodd" clip-rule="evenodd" d="M121.478 206.951L121.516 207.663L122.898 207.588L122.768 205.18L124.018 205.001L124.728 207.058L125.957 206.634L125.328 204.813L126.187 204.69L126.857 206.015L126.805 207.383L128.188 207.436L128.204 207.018L128.447 206.984L128.666 207.276L129.809 207.214L129.798 207.243L133.894 208.762L134.984 209.252L135.781 209.673C136.027 209.98 136.323 210.246 136.671 210.471C137.029 210.703 137.405 210.869 137.797 210.969C138.068 211.351 138.405 211.715 138.809 212.062C139.046 212.265 139.285 212.445 139.527 212.601C139.696 212.837 139.89 213.069 140.107 213.298C140.536 213.75 140.985 214.11 141.453 214.378L141.416 214.448L141.856 215.031L142.668 214.857C142.91 214.913 143.152 214.948 143.394 214.965L142.617 215.263L143.113 216.555L145.364 215.691L145.87 216.712L144.129 218.027L144.913 219.064L146.457 217.897L146.826 218.643L145.92 219.549L144.429 219.978L144.812 221.308L145.198 221.197L145.41 221.626L145.183 221.947L145.592 223.013L145.514 223.009L145.333 227.271L145.211 228.434L145.054 229.355C144.837 229.685 144.676 230.051 144.571 230.452C144.464 230.859 144.422 231.261 144.447 231.658C144.17 232.034 143.93 232.466 143.728 232.955C143.608 233.243 143.512 233.527 143.438 233.805C143.262 234.043 143.098 234.303 142.945 234.585C142.647 235.134 142.444 235.672 142.333 236.2L142.249 236.186L141.831 236.784L142.255 237.518C142.279 237.79 142.328 238.056 142.399 238.316L141.816 237.595L140.74 238.465L142.257 240.342L141.464 241.118L139.681 239.87L138.935 240.934L140.519 242.043L139.894 242.654L138.758 242.076L137.877 240.778L136.732 241.555L136.963 241.896L136.635 242.217L136.248 242.097L135.438 242.752L135.422 242.694L131.366 243.843L130.203 244.093L130.203 244.093L129.242 244.234C128.858 244.129 128.458 244.088 128.041 244.113C127.607 244.138 127.2 244.228 126.82 244.383C126.361 244.225 125.857 244.124 125.305 244.082C125.001 244.058 124.708 244.054 124.427 244.069C124.145 243.975 123.845 243.899 123.527 243.841C122.917 243.73 122.346 243.703 121.813 243.761L121.801 243.675L121.101 243.463L120.539 244.09C120.302 244.191 120.078 244.31 119.865 244.446L120.349 243.704L119.19 242.948L117.869 244.973L116.872 244.447L117.501 242.377L116.257 241.999L115.701 243.829L114.929 243.422L115.129 242.189L116.11 240.939L115.021 240.084L114.768 240.406L114.355 240.188L114.351 239.794L113.481 239.227L113.532 239.193L111.172 235.658L110.573 234.627L110.167 233.807C110.148 233.412 110.062 233.02 109.91 232.632C109.757 232.243 109.555 231.896 109.302 231.59C109.304 231.126 109.243 230.638 109.119 230.126C109.046 229.826 108.958 229.544 108.855 229.278C108.856 228.985 108.835 228.681 108.792 228.366C108.706 227.732 108.548 227.165 108.316 226.665L108.406 226.622L108.391 225.891L107.554 225.52C107.325 225.271 107.074 225.051 106.799 224.86L107.919 225.164L108.281 223.828L105.955 223.197L106.13 222.173L108.311 222.131L108.286 220.832L106.353 220.869L106.503 219.989L107.842 219.779L109.237 220.29L109.714 218.991L109.327 218.849L109.407 218.382L109.792 218.253L110.04 217.338L110.061 217.355L112.75 213.953L113.565 213.052L114.161 212.472C114.525 212.332 114.866 212.131 115.183 211.871C115.515 211.599 115.788 211.291 116.003 210.946C116.447 210.805 116.893 210.595 117.343 210.318C117.616 210.15 117.866 209.973 118.093 209.785C118.37 209.696 118.65 209.583 118.935 209.446C119.516 209.167 120.009 208.838 120.415 208.459L120.486 208.532L121.176 208.293L121.273 207.366C121.348 207.23 121.417 207.092 121.478 206.951ZM147.444 221.079L147.913 220.417L149.239 220.036L149.801 220.175L147.444 221.079ZM154.64 219.8L156.018 219.272L155.522 217.979L152.056 219.309L150.556 218.937L154.483 214.864L154.043 213.334L153.792 213.595L153.359 212.719L153.416 212.638L153.742 212.391L153 211.41L152.956 211.295L152.671 211.404C152.629 211.325 152.589 211.255 152.552 211.193L150.285 207.451L149.84 207.72C149.639 206.891 149.182 206.101 148.469 205.351C148.284 205.156 148.096 204.979 147.904 204.819L147.951 204.728L147.2 203.734L146.952 203.921C146.763 203.711 146.553 203.506 146.32 203.306C145.975 203.01 145.624 202.763 145.268 202.567L144.433 202.027L144.561 201.785L141.823 200.34L140.368 199.399L140.277 199.524L136.671 197.621L136.512 197.922L133.649 196.86L132.955 198.732L132.447 198.816L132.884 196.934L132.159 196.793L132.335 196.514L130.744 196.452L129.937 197.735L129.721 197.603L129.546 197.92L129.45 196.143L128.068 196.218L128.291 200.353L127.734 201.239L125.095 196.234L123.505 196.173L126.982 202.78L126.982 202.783L126.269 201.831L124.923 199.151C124.79 198.742 124.606 198.377 124.373 198.056L123.588 196.493L122.507 196.648L122.343 196.174L121.151 196.586L121.15 196.592L120.918 196.604L120.935 196.917C120.877 196.928 120.823 196.94 120.774 196.951L116.514 197.951L116.637 198.475C115.777 198.405 114.875 198.598 113.932 199.052C113.72 199.154 113.519 199.263 113.33 199.378L113.264 199.31L112.086 199.717L112.194 200.029C111.896 200.154 111.596 200.31 111.294 200.495C110.887 200.746 110.531 201.019 110.225 201.315L109.666 201.774L109.479 201.581L107.18 203.814L105.764 204.976L105.855 205.101L103.08 207.797L103.311 208.036L101.374 210.486L102.942 211.726L102.868 212.209L101.215 211.21L100.811 211.937L100.598 211.684L100.05 213.178L101 214.313L100.89 214.407L99.4653 214.021L99.1032 215.357L102.684 216.327L103.678 217.515L98.1039 218.485L97.5559 219.98L99.3898 219.662C99.3265 219.689 99.2645 219.717 99.2038 219.748L97.9042 219.949L97.745 220.88L97.5925 220.931L97.5634 221.039L97.2214 221.045L97.244 222.217L97.2304 222.267L97.2451 222.271L97.2458 222.306L97.5126 222.426C97.5021 222.506 97.494 222.578 97.4885 222.643L97.1177 227.003L97.6962 227.052C97.3254 227.874 97.2137 228.829 97.3612 229.916C97.3937 230.156 97.4368 230.387 97.4905 230.607L97.4068 230.649L97.4308 231.895L97.746 231.889C97.7741 232.198 97.8282 232.517 97.9081 232.846C98.0093 233.263 98.1405 233.647 98.3015 233.998L98.6366 234.852L98.3881 234.975L99.8193 237.866L100.448 239.468L100.59 239.422L102.346 242.97L102.64 242.824L104.321 245.342L105.972 244.24L106.425 244.468L104.965 245.731L105.563 246.374L105.256 246.498L106.508 247.481L107.866 246.934L107.915 247.052L107.99 247.017L107.144 248.315L108.304 249.071L110.348 245.935L111.753 245.369L110.955 250.971L112.207 251.953L112.257 251.603L113.14 252.069L113.142 252.225L113.149 252.23L113.04 252.588L114.247 252.955L114.252 252.949L114.302 252.981L114.463 252.733C114.55 252.775 114.627 252.811 114.697 252.841L118.727 254.545L118.93 254.066C119.583 254.627 120.424 255.001 121.452 255.189C121.714 255.237 121.969 255.269 122.217 255.285L122.231 255.38L123.423 255.742L123.511 255.453C123.797 255.515 124.099 255.559 124.416 255.583C124.855 255.617 125.27 255.61 125.661 255.563L125.662 255.575L126.686 255.515L126.728 255.799L129.927 255.327L131.597 255.231L131.597 255.081L135.554 254.498L135.507 254.18L138.44 253.35L137.902 251.451L138.271 251.077L139.026 252.855L139.843 252.473L139.867 252.809L141.185 251.915L141.078 250.46L141.187 250.452L141.181 250.398L142.135 251.579L143.211 250.708L140.885 247.831L140.771 246.277L145.863 248.743L147.181 247.849L146.869 247.698L147.551 247.03L147.703 247.077L147.707 247.073L148.002 247.28L148.72 246.254L148.779 246.206L148.591 245.974C148.662 245.9 148.724 245.832 148.777 245.772L151.638 242.461L151.248 242.124C151.978 241.677 152.591 240.996 153.087 240.082C153.212 239.851 153.321 239.622 153.413 239.394L153.51 239.41L154.224 238.389L153.968 238.21C154.121 237.952 154.26 237.671 154.385 237.369C154.549 236.974 154.67 236.587 154.746 236.21L154.996 235.261L155.271 235.308L155.806 232.177L156.243 230.515L156.099 230.468L156.774 226.515L156.452 226.46L156.578 223.479L154.672 223.398L154.346 222.77L156.27 222.601L156.164 221.748L156.483 221.827L156.044 220.297L154.619 219.944L154.652 219.803L154.64 219.8ZM155.205 221.511L154.21 221.671L154.3 221.287L155.205 221.511ZM153.997 224.755L154.103 225.001L154.576 224.78L155.229 224.808L155.105 227.72C155.098 227.883 155.077 228.035 155.041 228.177L151.782 227.837C151.775 227.753 151.774 227.667 151.778 227.578L151.902 224.666L153.997 224.755ZM153.389 223.344L153.342 223.235L153.241 223.338L153.389 223.344ZM151.628 223.269L152.591 222.43L150.886 221.556L151.107 221.156L146.202 223.039L151.628 223.269ZM152.035 220.8L153.122 221.465L153.195 221.014L152.151 220.756L152.035 220.8ZM152.868 214.547L152.977 214.439L152.863 214.557L152.868 214.547ZM149.855 217.672L151.463 216.006C151.444 216.018 151.425 216.03 151.406 216.041C151.373 216.062 151.339 216.081 151.306 216.1L150.161 217.239L149.855 217.672ZM148.079 214.649L149.135 214.244L148.317 214.862C148.237 214.801 148.16 214.732 148.085 214.655L148.079 214.649ZM146.569 215.229L146.798 215.141C146.881 215.26 146.967 215.372 147.054 215.477C147.113 215.548 147.174 215.615 147.236 215.679L146.913 215.924L146.569 215.229ZM147.785 217.685L147.499 217.109L148.375 216.447C148.543 216.509 148.712 216.556 148.883 216.587L147.785 217.685ZM143.529 213.204L145.446 212.941L145.021 212.239L144.78 212.385L144.858 212.499C144.438 212.777 144.007 212.989 143.565 213.136L143.529 213.204ZM148.568 208.49C148.561 208.373 148.548 208.255 148.528 208.137C148.473 207.796 148.355 207.462 148.176 207.136C148.163 207.745 148.032 208.355 147.782 208.966L148.568 208.49ZM147.502 209.136L146.376 208.592C146.636 208.043 146.771 207.503 146.781 206.971L144.797 210.775L147.502 209.136ZM146.562 212.275L146.133 211.566L148.133 210.354C147.839 210.927 147.41 211.481 146.847 212.017C146.752 212.107 146.657 212.193 146.562 212.275ZM151.355 211.726L148.56 212.311C149.022 211.753 149.373 211.17 149.614 210.564C149.772 210.167 149.877 209.77 149.929 209.372L151.355 211.726ZM143.715 205.328C144.29 205.106 144.853 205.027 145.405 205.091L142.494 207.29C142.482 206.9 142.409 206.525 142.273 206.164C142.746 205.795 143.226 205.517 143.715 205.328ZM145.584 206.584L141.931 209.345C141.916 209.369 141.9 209.394 141.884 209.419C141.514 209.991 141.03 210.42 140.431 210.704C140.327 210.753 140.222 210.797 140.117 210.836C140.194 211.105 140.311 211.37 140.466 211.629C140.921 211.873 141.384 211.999 141.854 212.009C142.162 212.013 142.466 211.977 142.766 211.901L145.584 206.584ZM140.128 209.078L140.783 208.583C140.99 208.235 141.097 207.866 141.106 207.478C141.109 207.414 141.109 207.352 141.107 207.29C140.774 207.691 140.514 208.103 140.326 208.527C140.245 208.711 140.179 208.895 140.128 209.078ZM144.565 203.69C144.228 203.523 143.886 203.421 143.539 203.383C142.879 203.309 142.226 203.438 141.578 203.767C141.283 203.916 140.994 204.102 140.712 204.323C140.752 204.346 140.79 204.37 140.829 204.395C141.077 204.555 141.297 204.733 141.49 204.929C142.081 204.485 142.691 204.155 143.32 203.941C143.738 203.802 144.153 203.718 144.565 203.69ZM140.51 205.792C140.368 205.633 140.203 205.492 140.015 205.37C139.933 205.318 139.851 205.27 139.769 205.226L139.74 205.26C139.162 205.926 138.759 206.604 138.532 207.294C138.308 207.98 138.283 208.648 138.456 209.296C138.497 209.446 138.55 209.592 138.615 209.736C138.63 209.185 138.745 208.635 138.961 208.085C139.282 207.278 139.798 206.514 140.51 205.792ZM137.005 209.029C136.993 208.953 136.983 208.878 136.975 208.802C136.937 208.823 136.898 208.844 136.859 208.863C136.905 208.921 136.954 208.976 137.005 209.029ZM141.056 202.427C140.451 202.704 139.877 203.094 139.334 203.597L140.422 201.535L140.669 201.2L141.166 201.462L142.118 202.078C141.762 202.152 141.408 202.268 141.056 202.427ZM136.655 205.742L137.036 205.019C137.026 204.999 137.017 204.979 137.006 204.959L136.655 205.742ZM137.794 199.869C137.635 199.747 137.447 199.647 137.231 199.566L134.498 198.553L134.385 198.858L134.492 199.739L134.043 199.78L133.401 201.511L133.453 201.613L133.344 201.664L133.34 201.675L136.073 202.688C136.209 202.739 136.345 202.775 136.478 202.795L137.794 199.869ZM135.93 204.014L135.897 204.001L132.891 202.886L131.55 206.499L134.347 207.536L135.93 204.014ZM131.987 201.341L130.018 206.65L129.723 201.196L130.219 201.727L131.578 200.378L131.987 201.341ZM130.514 199.412L129.934 200.336L130.826 199.574L130.514 199.412ZM131.115 198.455L131.36 198.604L131.473 197.885L131.115 198.455ZM128.535 204.857L128.3 204.543L128.366 202.833L128.421 202.745L128.535 204.857ZM124.782 202.085L125.054 202.448L125.576 203.48L124.901 203.577L124.525 202.489C124.622 202.36 124.708 202.225 124.782 202.085ZM122.613 202.303L122.525 200.68L123.007 202.076C122.91 202.147 122.803 202.211 122.686 202.269C122.662 202.281 122.637 202.292 122.613 202.303ZM122.699 203.893L122.686 203.663L122.74 203.647C122.883 203.603 123.019 203.555 123.149 203.503C123.254 203.461 123.356 203.415 123.453 203.366L123.59 203.765L122.699 203.893ZM116.551 208.361C116.47 207.765 116.249 207.223 115.886 206.734L114.297 202.135L118.401 206.378C118.393 206.73 118.332 207.072 118.221 207.402C118.071 207.841 117.814 208.238 117.451 208.594C117.153 208.663 116.863 208.692 116.58 208.682C116.574 208.575 116.565 208.468 116.551 208.361ZM119.604 204.69C119.728 205.132 119.798 205.566 119.813 205.991L119.984 206.165L120.298 204.447L120.321 204.23L119.442 204.436L119.508 204.719L119.604 204.69ZM117.956 204.096L117.253 201.099L116.346 202.054C115.982 201.714 115.597 201.455 115.193 201.278L117.956 204.096ZM117.204 200.891L116.978 199.926C116.855 199.893 116.73 199.867 116.603 199.849C116.244 199.794 115.872 199.808 115.486 199.889C116.098 200.095 116.671 200.43 117.204 200.891ZM118.62 200.932L119.145 203.171L119.937 202.985C119.889 202.87 119.836 202.755 119.78 202.638C119.45 201.952 119.063 201.384 118.62 200.932ZM120.971 198.24L120.65 201.201C120.245 200.544 119.777 199.997 119.245 199.558C118.914 199.285 118.565 199.062 118.199 198.89L120.971 198.24ZM112.453 203.57C112.415 202.909 112.53 202.312 112.798 201.778L114.047 205.392C113.642 205.261 113.232 205.204 112.816 205.221C112.605 204.65 112.484 204.1 112.453 203.57ZM114.705 207.458C114.741 207.501 114.774 207.545 114.806 207.59L115.014 208.19C114.823 208.073 114.638 207.935 114.461 207.776C114.124 207.475 113.818 207.113 113.544 206.688C113.591 206.702 113.637 206.718 113.684 206.735C114.082 206.872 114.422 207.113 114.705 207.458ZM111.156 202.252C110.879 202.531 110.667 202.836 110.519 203.167C110.248 203.774 110.171 204.436 110.288 205.153C110.34 205.481 110.429 205.814 110.555 206.152C110.59 206.121 110.626 206.09 110.663 206.06C110.898 205.866 111.143 205.706 111.398 205.58C111.152 204.876 111.024 204.19 111.013 203.521C111.008 203.078 111.056 202.655 111.156 202.252ZM111.921 206.778C111.717 206.866 111.524 206.984 111.344 207.132C111.267 207.195 111.196 207.259 111.129 207.325L111.149 207.359C111.607 208.112 112.13 208.702 112.718 209.129C113.304 209.551 113.931 209.779 114.602 209.812C114.769 209.819 114.937 209.811 115.106 209.79L115.108 209.782C114.581 209.599 114.085 209.319 113.621 208.94C112.955 208.39 112.389 207.67 111.921 206.778ZM113.912 211.113C113.866 211.106 113.82 211.098 113.774 211.09C113.778 211.117 113.782 211.144 113.785 211.171C113.828 211.153 113.871 211.134 113.912 211.113ZM108.852 205.242C108.912 205.741 109.039 206.243 109.233 206.748L107.676 205.145L108.046 204.785L108.843 204.131C108.805 204.49 108.808 204.861 108.852 205.242ZM111.419 210.963L111.383 211.015L110.044 209.806C110.118 209.791 110.191 209.781 110.265 209.775L111.419 210.963ZM111.713 213.157L108.847 210.569L106.871 213.068L109.894 215.458L111.713 213.157ZM105.461 207.512L107.864 209.682C107.809 209.784 107.743 209.883 107.666 209.98L105.858 212.267L105.858 212.267L105.84 212.12L105.701 212.143L104.275 211.015L104.381 210.551L103.459 210.37L103.246 210.202L105.054 207.915C105.181 207.754 105.317 207.62 105.461 207.512ZM105.1 213.432L109.17 216.651L104.572 215.404L104.945 215.231L104.084 213.519L105.1 213.432ZM103.559 215.13L103.086 213.985L102.779 214.288L103.462 215.104L103.559 215.13ZM102.049 213.417L102.33 213.177L101.489 212.748L102.049 213.417ZM107.454 217.62L106.682 217.879L105.389 217.405L105.015 216.959L107.454 217.62ZM102.755 219.197L103.488 218.951L100.999 219.383C101.088 219.385 101.178 219.391 101.269 219.398C101.308 219.402 101.346 219.405 101.385 219.41L102.755 219.197ZM104.709 222.86L104.822 222.199L104.434 222.206C104.443 222.275 104.449 222.346 104.454 222.417C104.462 222.539 104.465 222.664 104.464 222.793L104.709 222.86ZM103.131 222.432C103.119 222.363 103.106 222.296 103.089 222.232L102.439 222.245L103.131 222.432ZM101.726 220.958L101.875 220.956C101.852 220.947 101.829 220.939 101.807 220.931L101.726 220.958ZM103.968 220.871C103.866 220.716 103.753 220.573 103.629 220.442L105.164 220.2L105.045 220.894L103.997 220.915C103.987 220.9 103.978 220.885 103.968 220.871ZM104.258 225.45L104.717 225.656L106.024 226.357L105.972 226.382L105.238 226.32C104.988 226.276 104.73 226.249 104.464 226.238L104.463 226.254L104.192 226.231L104.258 225.45ZM103.617 227.556L100.271 227.271L100.95 228.523C100.477 228.785 100.087 229.099 99.7824 229.466L103.617 227.556ZM100.244 227.269L99.2068 227.181C99.1081 227.32 99.0203 227.467 98.9436 227.622C98.7876 227.934 98.6872 228.276 98.6422 228.65C99.0539 228.103 99.5877 227.643 100.244 227.269ZM100.799 225.942L102.897 226.121L102.956 225.418C102.832 225.429 102.706 225.443 102.577 225.46C101.911 225.551 101.318 225.711 100.799 225.942ZM98.7637 222.987L101.457 224.194C100.717 224.377 100.058 224.652 99.4829 225.019C99.1427 225.235 98.8405 225.48 98.5764 225.753L98.5287 225.749L98.7637 222.987ZM105.061 230.445L105.055 230.448L100.412 230.537L105.751 227.922C106.063 228.038 106.351 228.194 106.616 228.391C106.994 228.674 107.296 229.049 107.524 229.515C107.498 229.805 107.441 230.078 107.352 230.333C107.234 230.3 107.114 230.272 106.992 230.249C106.34 230.131 105.696 230.196 105.061 230.445ZM99.6215 231.852L103.351 231.781C103.115 232.121 102.945 232.489 102.841 232.883C102.25 232.904 101.704 232.848 101.202 232.717C100.571 232.552 100.044 232.263 99.6215 231.852ZM106.37 231.722L105.535 231.738C105.134 231.901 104.809 232.147 104.561 232.476C104.514 232.536 104.47 232.598 104.429 232.662C104.948 232.531 105.413 232.345 105.823 232.106C106.022 231.99 106.204 231.862 106.37 231.722ZM99.5485 233.544C99.7266 233.883 99.9472 234.171 100.21 234.409C100.703 234.853 101.309 235.131 102.027 235.242C102.353 235.293 102.696 235.311 103.054 235.296C103.031 235.245 103.009 235.194 102.989 235.142C102.883 234.874 102.809 234.607 102.766 234.342C102.029 234.356 101.344 234.266 100.711 234.072C100.289 233.94 99.901 233.764 99.5485 233.544ZM104.065 234.218C104.089 234.422 104.14 234.624 104.219 234.824C104.259 234.926 104.302 235.022 104.349 235.113L104.391 235.103C105.249 234.901 105.972 234.585 106.559 234.158C107.142 233.732 107.552 233.205 107.79 232.577C107.845 232.431 107.887 232.281 107.918 232.126C107.584 232.564 107.168 232.943 106.671 233.264C105.936 233.731 105.068 234.049 104.065 234.218ZM108.804 233.658C108.79 233.685 108.776 233.712 108.762 233.738C108.779 233.741 108.796 233.745 108.814 233.748C108.811 233.718 108.808 233.688 108.804 233.658ZM101.668 236.635C102.203 236.74 102.765 236.771 103.356 236.729L101.228 237.782L101.009 237.339L100.6 236.296C100.933 236.445 101.289 236.558 101.668 236.635ZM107.93 235.992L106.362 236.768C106.351 236.832 106.343 236.896 106.338 236.962L107.953 236.023L107.93 235.992ZM102.779 240.612C102.835 240.758 102.912 240.904 103.009 241.049L104.627 243.473L104.876 243.307L105.315 242.517L105.708 242.752L107.241 241.729L107.258 241.614L107.377 241.637L107.397 241.624L105.779 239.2C105.724 239.118 105.665 239.042 105.603 238.972L102.779 240.612ZM106.739 238.312L108.471 240.907L111.676 238.767L110.077 236.373L106.739 238.312ZM108.284 242.697L112.75 239.715L110.002 243.931L109.94 243.425L108.047 243.716L108.284 242.697ZM108.394 245.233L109.424 244.818L109.496 244.707L108.181 244.809L108.394 245.233ZM107.337 245.659L107.179 245.279L106.434 246.023L107.337 245.659ZM113.028 241.823L113.037 242.612L112.177 243.708L111.665 243.914L113.028 241.823ZM113.078 246.333L113.073 245.91L112.714 248.418C112.726 248.386 112.738 248.354 112.751 248.322L113.078 246.333ZM116.277 247.416L115.702 248.298L115.979 247.386C116.076 247.389 116.175 247.399 116.277 247.416ZM117.165 246.054L117.028 246.264C116.897 246.219 116.769 246.181 116.643 246.148C116.552 246.125 116.462 246.106 116.373 246.09L116.492 245.699L117.165 246.054ZM114.713 244.76L115.321 245.081L115 246.137C114.81 246.19 114.629 246.26 114.458 246.345L114.713 244.76ZM120.815 245.874L119.649 246.987L119.409 247.252L120.187 247.581L120.287 247.344L120.166 247.302C120.342 246.827 120.565 246.4 120.836 246.019L120.815 245.874ZM119.51 252.695C119.588 252.792 119.672 252.884 119.762 252.972C120.011 253.219 120.308 253.421 120.651 253.58C120.294 253.068 120.037 252.482 119.879 251.822L119.51 252.695ZM119.98 251.584L121.249 251.351C121.361 251.932 121.563 252.437 121.856 252.865L121.226 248.637L119.98 251.584ZM118.917 248.455L119.68 248.778L118.772 250.925C118.676 250.295 118.698 249.602 118.836 248.847C118.86 248.713 118.887 248.583 118.917 248.455ZM115.37 251.714L117.279 249.605C117.233 250.334 117.292 251.016 117.455 251.651C117.56 252.058 117.706 252.434 117.893 252.781L115.37 251.714ZM125.307 252.407C124.972 252.927 124.561 253.324 124.075 253.598L125.157 250.035C125.392 250.355 125.67 250.626 125.989 250.847C125.824 251.438 125.596 251.957 125.307 252.407ZM123.054 252.487L124.449 247.894C124.436 247.269 124.576 246.686 124.869 246.145C124.918 246.055 124.971 245.967 125.026 245.882C124.795 245.693 124.531 245.535 124.235 245.408C123.719 245.479 123.267 245.651 122.88 245.923C122.629 246.101 122.405 246.309 122.209 246.547L123.054 252.487ZM125.998 247.268L125.825 247.836C125.825 247.878 125.827 247.92 125.829 247.962C125.855 248.407 125.988 248.802 126.229 249.148C126.241 249.164 126.252 249.181 126.263 249.197C126.287 248.71 126.253 248.253 126.16 247.825C126.118 247.63 126.064 247.445 125.998 247.268ZM125.572 254.243C125.956 254.179 126.303 254.058 126.615 253.879C127.191 253.548 127.643 253.058 127.97 252.41C128.118 252.12 128.24 251.806 128.336 251.467L128.303 251.47L128.274 251.471C127.949 251.49 127.637 251.472 127.34 251.416C127.124 252.125 126.825 252.751 126.443 253.295C126.184 253.658 125.894 253.974 125.572 254.243ZM127.625 250.136C127.859 250.196 128.102 250.218 128.355 250.203C128.427 250.199 128.497 250.193 128.566 250.184L128.572 250.119C128.645 249.241 128.569 248.456 128.345 247.765C128.12 247.079 127.747 246.525 127.224 246.104C127.109 246.013 126.986 245.93 126.857 245.856L126.846 245.863C127.151 246.311 127.377 246.817 127.524 247.379C127.74 248.217 127.773 249.137 127.625 250.136ZM128.552 245.462C128.61 245.52 128.667 245.58 128.721 245.641C128.743 245.596 128.766 245.552 128.79 245.509C128.711 245.489 128.632 245.474 128.552 245.462ZM129.183 253.183C129.503 252.611 129.734 251.968 129.875 251.253L130.274 253.962L129.794 254.033L128.518 254.107C128.768 253.833 128.99 253.525 129.183 253.183ZM130.637 247.033L130.892 248.761C130.944 248.79 130.997 248.816 131.052 248.839L130.663 247.024L130.637 247.033ZM133.424 253.365C133.592 253.359 133.768 253.33 133.951 253.278L136.756 252.484L136.667 252.17L136.074 251.535L136.405 251.244L135.897 249.453L135.81 249.409L135.859 249.319L135.848 249.28L133.044 250.074C132.937 250.104 132.836 250.141 132.741 250.184L133.424 253.365ZM132.465 248.895L135.496 248.037L134.446 244.329L131.654 245.12L132.465 248.895ZM137.138 248.755L135.675 243.589L138.841 247.505L138.356 247.412L138.052 249.303L137.138 248.755ZM139.618 249.435L139.539 248.368L139.437 248.241L139.134 249.51L139.618 249.435ZM139.702 250.573L139.274 250.608L139.777 251.591L139.702 250.573ZM137.772 243.98L138.539 244.22L139.317 245.367L139.36 245.945L137.772 243.98ZM142.212 245.365L141.787 245.232L143.917 246.266C143.888 246.242 143.86 246.218 143.831 246.194L142.212 245.365ZM144.094 242.614L144.736 243.407L143.979 242.878C144.01 242.79 144.049 242.702 144.094 242.614ZM143.068 241.345L143.227 241.542C143.148 241.649 143.074 241.756 143.007 241.863C142.957 241.942 142.911 242.021 142.869 242.101L142.535 241.867L143.068 241.345ZM141.102 243.269L141.59 242.792L142.491 243.423C142.483 243.615 142.493 243.805 142.521 243.991L141.102 243.269ZM144.03 237.805L144.767 239.324L144.907 239.57L145.459 238.931L145.258 238.756L145.194 238.84C144.82 238.543 144.499 238.22 144.232 237.87L144.187 237.831L144.03 237.805ZM150.122 241.151C150.235 241.107 150.346 241.057 150.455 241C150.775 240.836 151.066 240.609 151.329 240.322C150.722 240.508 150.074 240.572 149.384 240.514L150.122 241.151ZM149.205 240.359L149.379 239.066C149.943 239.138 150.465 239.108 150.947 238.976L146.791 238.272L149.205 240.359ZM145.904 240.404L146.443 239.781L148.209 241.307C147.578 241.203 146.923 240.967 146.246 240.599C146.128 240.536 146.014 240.471 145.904 240.404ZM147.898 244.8L146.476 242.312C147.156 242.584 147.825 242.741 148.482 242.783C148.904 242.81 149.309 242.788 149.7 242.716L147.898 244.8ZM151.64 235.554C152.033 236.037 152.283 236.555 152.391 237.106L149.385 235.003C149.757 234.871 150.095 234.684 150.399 234.442C150.896 234.777 151.309 235.148 151.64 235.554ZM151.015 237.73L147.244 235.091L147.195 235.078C146.536 234.905 145.978 234.578 145.521 234.098C145.44 234.012 145.364 233.924 145.292 233.833C145.062 233.987 144.85 234.176 144.653 234.4C144.564 234.906 144.588 235.384 144.725 235.832C144.82 236.137 144.955 236.424 145.129 236.693L151.015 237.73ZM146.955 233.302L147.616 233.765C148.022 233.86 148.416 233.849 148.797 233.734C148.855 233.718 148.911 233.7 148.967 233.679C148.483 233.487 148.011 233.367 147.55 233.32C147.346 233.299 147.148 233.293 146.955 233.302ZM153.467 235.873C153.529 235.481 153.522 235.107 153.447 234.75C153.312 234.1 152.986 233.518 152.472 233.006C152.239 232.772 151.973 232.556 151.676 232.357C151.665 232.408 151.653 232.459 151.64 232.509C151.563 232.799 151.461 233.068 151.332 233.316C151.937 233.741 152.439 234.219 152.836 234.751C153.102 235.109 153.312 235.483 153.467 235.873ZM150.208 232.649C150.318 232.463 150.401 232.259 150.459 232.04C150.486 231.938 150.507 231.839 150.523 231.741L150.481 231.723C149.668 231.381 148.898 231.209 148.172 231.208C147.45 231.209 146.808 231.392 146.246 231.759C146.106 231.851 145.974 231.956 145.849 232.073C146.385 231.912 146.951 231.849 147.549 231.885C148.415 231.941 149.302 232.195 150.208 232.649ZM146.061 230.29C146.094 230.273 146.127 230.257 146.16 230.241L146.135 230.216L146.116 230.195C146.097 230.226 146.079 230.258 146.061 230.29ZM153.583 232.092C153.182 231.659 152.704 231.276 152.149 230.944L154.626 231.367L154.535 231.902L154.247 232.997C154.066 232.68 153.844 232.378 153.583 232.092ZM148.151 228.871L149.9 229.17C149.944 229.126 149.986 229.079 150.026 229.03L148.151 228.834L148.151 228.871ZM150.479 227.701L150.611 224.611L146.761 224.448L146.64 227.299L150.479 227.701ZM152.984 229.339L153.592 229.402C153.533 229.405 153.472 229.405 153.409 229.403C153.258 229.396 153.117 229.375 152.984 229.339Z" fill="url(#paint9_linear_213_4777)"/>
<circle cx="127" cy="226" r="26.6599" stroke="url(#paint10_linear_213_4777)" stroke-width="1.31706"/>
</g>
<defs>
<filter id="filter0_bi_213_4777" x="107.784" y="164.948" width="417.853" height="416.003" filterUnits="userSpaceOnUse" color-interpolation-filters="sRGB">
<feFlood flood-opacity="0" result="BackgroundImageFix"/>
<feGaussianBlur in="BackgroundImage" stdDeviation="92.5319"/>
<feComposite in2="SourceAlpha" operator="in" result="effect1_backgroundBlur_213_4777"/>
<feBlend mode="normal" in="SourceGraphic" in2="effect1_backgroundBlur_213_4777" result="shape"/>
<feColorMatrix in="SourceAlpha" type="matrix" values="0 0 0 0 0 0 0 0 0 0 0 0 0 0 0 0 0 0 127 0" result="hardAlpha"/>
<feOffset dx="4.04511" dy="2.02255"/>
<feGaussianBlur stdDeviation="5.05639"/>
<feComposite in2="hardAlpha" operator="arithmetic" k2="-1" k3="1"/>
<feColorMatrix type="matrix" values="0 0 0 0 0.891667 0 0 0 0 0.65498 0 0 0 0 0.430972 0 0 0 0.72 0"/>
<feBlend mode="normal" in2="shape" result="effect2_innerShadow_213_4777"/>
</filter>
<filter id="filter1_dd_213_4777" x="290.816" y="342.745" width="50.8963" height="54.6586" filterUnits="userSpaceOnUse" color-interpolation-filters="sRGB">
<feFlood flood-opacity="0" result="BackgroundImageFix"/>
<feColorMatrix in="SourceAlpha" type="matrix" values="0 0 0 0 0 0 0 0 0 0 0 0 0 0 0 0 0 0 127 0" result="hardAlpha"/>
<feOffset dx="-3.28631" dy="-3.28631"/>
<feGaussianBlur stdDeviation="6.62252"/>
<feComposite in2="hardAlpha" operator="out"/>
<feColorMatrix type="matrix" values="0 0 0 0 1 0 0 0 0 0.773289 0 0 0 0 0.566667 0 0 0 0.32 0"/>
<feBlend mode="normal" in2="BackgroundImageFix" result="effect1_dropShadow_213_4777"/>
<feColorMatrix in="SourceAlpha" type="matrix" values="0 0 0 0 0 0 0 0 0 0 0 0 0 0 0 0 0 0 127 0" result="hardAlpha"/>
<feOffset dx="4.38175" dy="4.38175"/>
<feGaussianBlur stdDeviation="3.31922"/>
<feComposite in2="hardAlpha" operator="out"/>
<feColorMatrix type="matrix" values="0 0 0 0 0.0416667 0 0 0 0 0.0266165 0 0 0 0 0.0128472 0 0 0 0.5 0"/>
<feBlend mode="normal" in2="effect1_dropShadow_213_4777" result="effect2_dropShadow_213_4777"/>
<feBlend mode="normal" in="SourceGraphic" in2="effect2_dropShadow_213_4777" result="shape"/>
</filter>
<filter id="filter2_dd_213_4777" x="323" y="92" width="92" height="92" filterUnits="userSpaceOnUse" color-interpolation-filters="sRGB">
<feFlood flood-opacity="0" result="BackgroundImageFix"/>
<feColorMatrix in="SourceAlpha" type="matrix" values="0 0 0 0 0 0 0 0 0 0 0 0 0 0 0 0 0 0 127 0" result="hardAlpha"/>
<feOffset dy="4"/>
<feGaussianBlur stdDeviation="2"/>
<feColorMatrix type="matrix" values="0 0 0 0 0 0 0 0 0 0 0 0 0 0 0 0 0 0 1 0"/>
<feBlend mode="normal" in2="BackgroundImageFix" result="effect1_dropShadow_213_4777"/>
<feColorMatrix in="SourceAlpha" type="matrix" values="0 0 0 0 0 0 0 0 0 0 0 0 0 0 0 0 0 0 127 0" result="hardAlpha"/>
<feOffset dx="-2" dy="-2"/>
<feGaussianBlur stdDeviation="8"/>
<feComposite in2="hardAlpha" operator="out"/>
<feColorMatrix type="matrix" values="0 0 0 0 0.958333 0 0 0 0 0.646049 0 0 0 0 0.383333 0 0 0 0.43 0"/>
<feBlend mode="normal" in2="effect1_dropShadow_213_4777" result="effect2_dropShadow_213_4777"/>
<feBlend mode="normal" in="SourceGraphic" in2="effect2_dropShadow_213_4777" result="shape"/>
</filter>
<filter id="filter3_i_213_4777" x="343.61" y="112.609" width="54.835" height="57.7604" filterUnits="userSpaceOnUse" color-interpolation-filters="sRGB">
<feFlood flood-opacity="0" result="BackgroundImageFix"/>
<feBlend mode="normal" in="SourceGraphic" in2="BackgroundImageFix" result="shape"/>
<feColorMatrix in="SourceAlpha" type="matrix" values="0 0 0 0 0 0 0 0 0 0 0 0 0 0 0 0 0 0 127 0" result="hardAlpha"/>
<feOffset dy="2.925"/>
<feGaussianBlur stdDeviation="4.3875"/>
<feComposite in2="hardAlpha" operator="arithmetic" k2="-1" k3="1"/>
<feColorMatrix type="matrix" values="0 0 0 0 1 0 0 0 0 0.704193 0 0 0 0 0.433333 0 0 0 0.24 0"/>
<feBlend mode="normal" in2="shape" result="effect1_innerShadow_213_4777"/>
</filter>
<filter id="filter4_d_213_4777" x="336.224" y="112.609" width="69.6079" height="69.6084" filterUnits="userSpaceOnUse" color-interpolation-filters="sRGB">
<feFlood flood-opacity="0" result="BackgroundImageFix"/>
<feColorMatrix in="SourceAlpha" type="matrix" values="0 0 0 0 0 0 0 0 0 0 0 0 0 0 0 0 0 0 127 0" result="hardAlpha"/>
<feOffset dy="7.38646"/>
<feGaussianBlur stdDeviation="3.69323"/>
<feColorMatrix type="matrix" values="0 0 0 0 0 0 0 0 0 0 0 0 0 0 0 0 0 0 0.39 0"/>
<feBlend mode="normal" in2="BackgroundImageFix" result="effect1_dropShadow_213_4777"/>
<feBlend mode="normal" in="SourceGraphic" in2="effect1_dropShadow_213_4777" result="shape"/>
</filter>
<filter id="filter5_bi_213_4777" x="-136.129" y="-37.1288" width="526.257" height="526.258" filterUnits="userSpaceOnUse" color-interpolation-filters="sRGB">
<feFlood flood-opacity="0" result="BackgroundImageFix"/>
<feGaussianBlur in="BackgroundImage" stdDeviation="117.905"/>
<feComposite in2="SourceAlpha" operator="in" result="effect1_backgroundBlur_213_4777"/>
<feBlend mode="normal" in="SourceGraphic" in2="effect1_backgroundBlur_213_4777" result="shape"/>
<feColorMatrix in="SourceAlpha" type="matrix" values="0 0 0 0 0 0 0 0 0 0 0 0 0 0 0 0 0 0 127 0" result="hardAlpha"/>
<feOffset dx="5.15432" dy="2.57716"/>
<feGaussianBlur stdDeviation="6.44291"/>
<feComposite in2="hardAlpha" operator="arithmetic" k2="-1" k3="1"/>
<feColorMatrix type="matrix" values="0 0 0 0 1 0 0 0 0 1 0 0 0 0 1 0 0 0 0.4 0"/>
<feBlend mode="normal" in2="shape" result="effect2_innerShadow_213_4777"/>
</filter>
<filter id="filter6_dd_213_4777" x="107.403" y="201.01" width="46.0124" height="50.7709" filterUnits="userSpaceOnUse" color-interpolation-filters="sRGB">
<feFlood flood-opacity="0" result="BackgroundImageFix"/>
<feColorMatrix in="SourceAlpha" type="matrix" values="0 0 0 0 0 0 0 0 0 0 0 0 0 0 0 0 0 0 127 0" result="hardAlpha"/>
<feOffset dx="-3.6287" dy="-3.6287"/>
<feGaussianBlur stdDeviation="3.66504"/>
<feColorMatrix type="matrix" values="0 0 0 0 1 0 0 0 0 1 0 0 0 0 1 0 0 0 0.27 0"/>
<feBlend mode="normal" in2="BackgroundImageFix" result="effect1_dropShadow_213_4777"/>
<feColorMatrix in="SourceAlpha" type="matrix" values="0 0 0 0 0 0 0 0 0 0 0 0 0 0 0 0 0 0 127 0" result="hardAlpha"/>
<feOffset dx="4.83827" dy="4.83827"/>
<feGaussianBlur stdDeviation="3.66504"/>
<feColorMatrix type="matrix" values="0 0 0 0 0.0352941 0 0 0 0 0.0392157 0 0 0 0 0.0509804 0 0 0 0.45 0"/>
<feBlend mode="normal" in2="effect1_dropShadow_213_4777" result="effect2_dropShadow_213_4777"/>
<feBlend mode="normal" in="SourceGraphic" in2="effect2_dropShadow_213_4777" result="shape"/>
</filter>
<linearGradient id="paint0_linear_213_4777" x1="316.71" y1="343.739" x2="356.996" y2="385.65" gradientUnits="userSpaceOnUse">
<stop stop-color="#EE9B4F"/>
<stop offset="1" stop-color="#EE9B4F" stop-opacity="0"/>
</linearGradient>
<linearGradient id="paint1_linear_213_4777" x1="316.71" y1="350.012" x2="348.346" y2="382.923" gradientUnits="userSpaceOnUse">
<stop stop-color="#EE9B4F"/>
<stop offset="1" stop-color="#EE9B4F" stop-opacity="0"/>
</linearGradient>
<linearGradient id="paint2_linear_213_4777" x1="307.348" y1="372.829" x2="322.269" y2="393.07" gradientUnits="userSpaceOnUse">
<stop stop-color="#EE9B4F"/>
<stop offset="1" stop-color="#EE9B4F" stop-opacity="0"/>
</linearGradient>
<linearGradient id="paint3_linear_213_4777" x1="330.824" y1="344.512" x2="350.969" y2="403.053" gradientUnits="userSpaceOnUse">
<stop stop-color="#EE9B4F"/>
<stop offset="1" stop-color="#EE9B4F" stop-opacity="0"/>
</linearGradient>
<linearGradient id="paint4_linear_213_4777" x1="355.093" y1="117.5" x2="389.183" y2="163.182" gradientUnits="userSpaceOnUse">
<stop stop-color="#FFA24B"/>
<stop offset="0.391425" stop-color="#CF8A4A" stop-opacity="0.433872"/>
<stop offset="1" stop-color="#380007" stop-opacity="0.13"/>
</linearGradient>
<linearGradient id="paint5_linear_213_4777" x1="358.206" y1="122.007" x2="385.631" y2="158.759" gradientUnits="userSpaceOnUse">
<stop stop-color="#FFA24B"/>
<stop offset="0.391425" stop-color="#CF8A4A" stop-opacity="0.433872"/>
<stop offset="1" stop-color="#380007" stop-opacity="0.13"/>
</linearGradient>
<linearGradient id="paint6_linear_213_4777" x1="127" y1="196" x2="168.408" y2="237.408" gradientUnits="userSpaceOnUse">
<stop stop-color="#E9E9E9"/>
<stop offset="1" stop-color="#E9E9E9" stop-opacity="0"/>
</linearGradient>
<linearGradient id="paint7_linear_213_4777" x1="111.749" y1="202.034" x2="144.598" y2="253.318" gradientUnits="userSpaceOnUse">
<stop stop-color="white"/>
<stop offset="1" stop-color="white" stop-opacity="0"/>
</linearGradient>
<linearGradient id="paint8_linear_213_4777" x1="118.425" y1="215.416" x2="134.683" y2="250.091" gradientUnits="userSpaceOnUse">
<stop offset="0.202192" stop-color="#E9E9E9"/>
<stop offset="0.989589" stop-color="#E9E9E9" stop-opacity="0"/>
</linearGradient>
<linearGradient id="paint9_linear_213_4777" x1="126.946" y1="196.143" x2="168.117" y2="237.315" gradientUnits="userSpaceOnUse">
<stop stop-color="#E9E9E9"/>
<stop offset="1" stop-color="#E9E9E9" stop-opacity="0"/>
</linearGradient>
<linearGradient id="paint10_linear_213_4777" x1="127" y1="198.682" x2="164.707" y2="236.389" gradientUnits="userSpaceOnUse">
<stop stop-color="#E9E9E9"/>
<stop offset="1" stop-color="#E9E9E9" stop-opacity="0"/>
</linearGradient>
</defs>
</svg>
