<svg width="96" height="93" viewBox="0 0 96 93" fill="none" xmlns="http://www.w3.org/2000/svg">
<path fill-rule="evenodd" clip-rule="evenodd" d="M65.5001 0.252563C63.0448 7.73808 56.0009 13.1439 47.6943 13.1439C39.4537 13.1439 32.4558 7.82374 29.9478 0.430798C15.3076 6.1953 4.10029 18.7816 0.241337 34.2743C0.811045 34.188 1.39439 34.1433 1.98819 34.1433C8.37593 34.1433 13.5542 39.3216 13.5542 45.7093C13.5542 52.097 8.37593 57.2753 1.98819 57.2753C1.31026 57.2753 0.645944 57.217 0 57.1051C3.61617 73.07 15.0004 86.0867 29.9701 91.9724C32.497 84.6134 39.478 79.3245 47.6943 79.3245C55.9765 79.3245 63.0036 84.6987 65.4785 92.1502C80.8049 86.3018 92.4535 73.0062 96 56.6878C94.8528 57.069 93.6258 57.2753 92.3506 57.2753C85.9629 57.2753 80.7846 52.097 80.7846 45.7093C80.7846 39.3216 85.9629 34.1433 92.3506 34.1433C93.5369 34.1433 94.6815 34.3219 95.7589 34.6536C91.9505 18.825 80.485 5.97873 65.5001 0.252563ZM77.7004 45.8895C77.7004 62.6517 64.112 76.2401 47.3499 76.2401C30.5877 76.2401 16.9993 62.6517 16.9993 45.8895C16.9993 29.1274 30.5877 15.539 47.3499 15.539C54.5846 15.539 61.2282 18.0704 66.4431 22.2957H61.6555L61.2358 29.4269L63.2006 30.0446C63.385 29.8325 63.6489 29.6328 63.9923 29.4457C64.342 29.2585 64.7808 29.1649 65.3086 29.1649C65.7473 29.1649 66.1511 29.271 66.5199 29.4831C66.8887 29.689 67.1812 29.9729 67.3974 30.3347C67.62 30.6903 67.7312 31.0865 67.7312 31.5232C67.7312 31.96 67.6231 32.3593 67.4069 32.7211C67.1907 33.0768 66.8982 33.3606 66.5294 33.5728C66.1606 33.7849 65.7537 33.891 65.3086 33.891C64.9652 33.891 64.6313 33.8192 64.3071 33.6757C63.9891 33.5322 63.7093 33.3294 63.4677 33.0674C63.2324 32.8054 63.0703 32.4934 62.9813 32.1316L60.7684 32.7118C60.9592 33.3731 61.2708 33.9534 61.7032 34.4525C62.1419 34.9516 62.6633 35.3447 63.2674 35.6316C63.8715 35.9124 64.5233 36.0528 65.2227 36.0528C66.0875 36.0528 66.8823 35.85 67.6072 35.4445C68.3385 35.0389 68.9267 34.4961 69.3718 33.8161C69.8169 33.1298 70.0395 32.3655 70.0395 31.5232C70.0395 30.681 69.8487 29.9292 69.4672 29.2678C69.092 28.6065 68.5706 28.0856 67.9029 27.705C67.2416 27.3182 66.4817 27.1247 65.6233 27.1247C65.1846 27.1247 64.7299 27.2027 64.2594 27.3587C63.984 27.45 63.7282 27.5691 63.492 27.7159L63.6954 24.4108H68.7933C74.296 29.9045 77.7004 37.4995 77.7004 45.8895ZM31.8662 68.4075L31.8662 27.219H48.1986C50.9827 27.219 53.2614 27.7815 55.0348 28.9066C56.8272 30.0126 58.1525 31.4332 59.0106 33.1684C59.8878 34.9037 60.3264 36.6962 60.3264 38.5458C60.3264 40.815 59.7829 42.741 58.696 44.3237C58.0267 45.3156 57.2039 46.1054 56.2275 46.6928C57.8985 47.3761 59.2267 48.4075 60.2119 49.7869C61.5658 51.6556 62.2428 53.7818 62.2428 56.1654C62.2428 58.6062 61.7756 60.7419 60.8412 62.5725C59.9068 64.4031 58.5148 65.8333 56.6652 66.863C54.8345 67.8927 52.5654 68.4075 49.8576 68.4075H31.8662ZM38.8454 61.9146H48.9995C50.2008 61.9146 51.2782 61.6763 52.2317 61.1995C53.1851 60.7038 53.9288 60.0173 54.4627 59.1401C55.0157 58.2439 55.2922 57.1856 55.2922 55.9652C55.2922 54.8592 55.0538 53.8676 54.5771 52.9904C54.1004 52.1133 53.4044 51.4173 52.4891 50.9024C51.5738 50.3685 50.4773 50.1015 49.1997 50.1015H38.8454V61.9146ZM38.8454 43.6658H48.1128C49.1044 43.6658 49.9911 43.4751 50.7729 43.0937C51.5547 42.7124 52.1745 42.1498 52.6321 41.4061C53.0898 40.6625 53.3186 39.7472 53.3186 38.6602C53.3186 37.2301 52.8609 36.0383 51.9456 35.0849C51.0303 34.1314 49.7527 33.6547 48.1128 33.6547H38.8454V43.6658Z" fill="url(#paint0_linear_9_5083)"/>
<defs>
<linearGradient id="paint0_linear_9_5083" x1="48" y1="0.252565" x2="107.41" y2="39.0851" gradientUnits="userSpaceOnUse">
<stop stop-color="#EE6C4F"/>
<stop offset="1" stop-color="#EE6C4F" stop-opacity="0"/>
</linearGradient>
</defs>
</svg>
