<svg width="96" height="93" viewBox="0 0 96 93" fill="none" xmlns="http://www.w3.org/2000/svg">
<path fill-rule="evenodd" clip-rule="evenodd" d="M65.5001 0.98584C63.0448 8.47135 56.0009 13.8772 47.6943 13.8772C39.4537 13.8772 32.4558 8.55701 29.9478 1.16407C15.3076 6.92857 4.10029 19.5149 0.241337 35.0076C0.811044 34.9213 1.39439 34.8765 1.98819 34.8765C8.37593 34.8765 13.5542 40.0548 13.5542 46.4426C13.5542 52.8303 8.37593 58.0086 1.98819 58.0086C1.31026 58.0086 0.645944 57.9503 0 57.8384C3.61617 73.8033 15.0004 86.8199 29.9701 92.7057C32.497 85.3467 39.478 80.0578 47.6943 80.0578C55.9765 80.0578 63.0036 85.432 65.4785 92.8834C80.8049 87.0351 92.4535 73.7395 96 57.4211C94.8528 57.8022 93.6258 58.0086 92.3506 58.0086C85.9629 58.0086 80.7846 52.8303 80.7846 46.4426C80.7846 40.0548 85.9629 34.8765 92.3506 34.8765C93.5369 34.8765 94.6815 35.0551 95.7589 35.3869C91.9505 19.5583 80.485 6.71201 65.5001 0.98584ZM77.7004 46.6229C77.7004 63.385 64.112 76.9734 47.3499 76.9734C30.5877 76.9734 16.9993 63.385 16.9993 46.6229C16.9993 29.8607 30.5877 16.2723 47.3499 16.2723C54.5846 16.2723 61.2282 18.8037 66.4431 23.0291H61.6555L61.2358 30.1603L63.2006 30.7779C63.385 30.5658 63.6489 30.3662 63.9923 30.179C64.342 29.9918 64.7808 29.8982 65.3086 29.8982C65.7473 29.8982 66.1511 30.0043 66.5199 30.2164C66.8887 30.4223 67.1812 30.7062 67.3974 31.068C67.62 31.4237 67.7312 31.8198 67.7312 32.2566C67.7312 32.6933 67.6231 33.0926 67.4069 33.4545C67.1907 33.8101 66.8982 34.094 66.5294 34.3061C66.1606 34.5182 65.7537 34.6243 65.3086 34.6243C64.9652 34.6243 64.6313 34.5525 64.3071 34.409C63.9891 34.2655 63.7093 34.0628 63.4677 33.8007C63.2324 33.5387 63.0703 33.2267 62.9813 32.8649L60.7684 33.4451C60.9592 34.1064 61.2708 34.6867 61.7032 35.1858C62.1419 35.6849 62.6633 36.078 63.2674 36.365C63.8715 36.6457 64.5233 36.7861 65.2227 36.7861C66.0875 36.7861 66.8823 36.5833 67.6072 36.1778C68.3385 35.7723 68.9267 35.2295 69.3718 34.5494C69.8169 33.8631 70.0395 33.0988 70.0395 32.2566C70.0395 31.4143 69.8487 30.6625 69.4672 30.0012C69.092 29.3398 68.5706 28.8189 67.9029 28.4383C67.2416 28.0515 66.4817 27.8581 65.6233 27.8581C65.1846 27.8581 64.7299 27.9361 64.2594 28.092C63.984 28.1833 63.7282 28.3024 63.492 28.4493L63.6954 25.1441H68.7933C74.296 30.6379 77.7004 38.2328 77.7004 46.6229ZM31.8662 69.1409L31.8662 27.9523H48.1986C50.9827 27.9523 53.2614 28.5148 55.0348 29.6399C56.8272 30.7459 58.1525 32.1665 59.0106 33.9018C59.8878 35.637 60.3264 37.4295 60.3264 39.2792C60.3264 41.5483 59.7829 43.4743 58.696 45.057C58.0267 46.049 57.2039 46.8387 56.2275 47.4262C57.8985 48.1095 59.2267 49.1408 60.2119 50.5202C61.5658 52.3889 62.2428 54.5151 62.2428 56.8987C62.2428 59.3395 61.7756 61.4752 60.8412 63.3058C59.9068 65.1364 58.5148 66.5666 56.6652 67.5963C54.8345 68.626 52.5654 69.1409 49.8576 69.1409H31.8662ZM38.8454 62.648H48.9995C50.2008 62.648 51.2782 62.4096 52.2317 61.9329C53.1851 61.4371 53.9288 60.7506 54.4627 59.8734C55.0157 58.9772 55.2922 57.9189 55.2922 56.6985C55.2922 55.5925 55.0538 54.6009 54.5771 53.7238C54.1004 52.8466 53.4044 52.1506 52.4891 51.6357C51.5738 51.1018 50.4773 50.8348 49.1997 50.8348H38.8454V62.648ZM38.8454 44.3991H48.1128C49.1044 44.3991 49.9911 44.2084 50.7729 43.8271C51.5547 43.4457 52.1745 42.8832 52.6321 42.1395C53.0898 41.3958 53.3186 40.4805 53.3186 39.3936C53.3186 37.9634 52.8609 36.7716 51.9456 35.8182C51.0303 34.8647 49.7527 34.388 48.1128 34.388H38.8454V44.3991Z" fill="url(#paint0_linear_9_5068)"/>
<defs>
<linearGradient id="paint0_linear_9_5068" x1="48" y1="0.98584" x2="111.362" y2="67.1762" gradientUnits="userSpaceOnUse">
<stop stop-color="#E9E9E9"/>
<stop offset="1" stop-color="#E9E9E9" stop-opacity="0"/>
</linearGradient>
</defs>
</svg>
