<svg width="319" height="319" viewBox="0 0 319 319" fill="none" xmlns="http://www.w3.org/2000/svg">
<circle cx="159.299" cy="159.647" r="126.353" stroke="url(#paint0_linear_40_1494)" stroke-width="3.1392" stroke-dasharray="2.12 2.12"/>
<g filter="url(#filter0_bi_40_1494)">
<circle cx="159.3" cy="159.647" r="100.454" fill="url(#paint1_linear_40_1494)" fill-opacity="0.14"/>
</g>
<circle cx="159.3" cy="159.647" r="50.2271" stroke="url(#paint2_linear_40_1494)" stroke-width="100.454" stroke-dasharray="2.14 2.14"/>
<g filter="url(#filter1_dd_40_1494)">
<path fill-rule="evenodd" clip-rule="evenodd" d="M119.885 112.44L119.885 218.478L166.203 218.478C173.174 218.478 179.016 217.152 183.728 214.501C188.49 211.85 192.074 208.169 194.479 203.456C196.885 198.743 198.088 193.245 198.088 186.961C198.088 180.825 196.345 175.351 192.859 170.54C190.323 166.989 186.904 164.333 182.602 162.574C185.115 161.062 187.234 159.029 188.957 156.475C191.755 152.4 193.154 147.442 193.154 141.6C193.154 136.838 192.025 132.224 189.767 127.757C187.558 123.289 184.146 119.632 179.531 116.785C174.966 113.888 169.099 112.44 161.932 112.44L119.885 112.44ZM163.994 201.762L137.852 201.762L137.852 171.35L164.509 171.35C167.798 171.35 170.621 172.037 172.977 173.412C175.334 174.737 177.126 176.529 178.353 178.787C179.58 181.045 180.194 183.598 180.194 186.446C180.194 189.587 179.482 192.312 178.058 194.619C176.684 196.877 174.769 198.645 172.315 199.921C169.86 201.148 167.086 201.762 163.994 201.762ZM161.711 154.781L137.852 154.781L137.852 129.008L161.711 129.008C165.933 129.008 169.222 130.236 171.578 132.69C173.935 135.145 175.113 138.213 175.113 141.895C175.113 144.693 174.524 147.05 173.346 148.964C172.167 150.879 170.572 152.327 168.559 153.309C166.546 154.291 164.264 154.781 161.711 154.781ZM200.725 134.098C202.281 134.821 203.959 135.182 205.759 135.182C207.986 135.182 210.032 134.66 211.898 133.616C213.781 132.572 215.295 131.175 216.441 129.424C217.587 127.657 218.16 125.689 218.16 123.521C218.16 121.353 217.669 119.417 216.686 117.715C215.721 116.012 214.378 114.671 212.659 113.691C210.957 112.695 209.001 112.197 206.791 112.197C205.661 112.197 204.491 112.398 203.279 112.8C202.57 113.035 201.912 113.341 201.304 113.719L201.827 105.21L215.778 105.21L215.778 99.7653L196.576 99.7653L195.495 118.124L200.553 119.714C201.028 119.168 201.708 118.654 202.592 118.172C203.492 117.691 204.622 117.45 205.98 117.45C207.11 117.45 208.149 117.723 209.099 118.269C210.048 118.799 210.801 119.53 211.358 120.461C211.931 121.377 212.217 122.397 212.217 123.521C212.217 124.645 211.939 125.673 211.382 126.605C210.826 127.52 210.073 128.251 209.123 128.797C208.174 129.344 207.126 129.617 205.98 129.617C205.096 129.617 204.237 129.432 203.402 129.062C202.583 128.693 201.863 128.171 201.241 127.496C200.635 126.822 200.218 126.019 199.989 125.087L194.292 126.581C194.783 128.283 195.585 129.777 196.698 131.062C197.828 132.347 199.17 133.359 200.725 134.098Z" fill="url(#paint3_linear_40_1494)" shape-rendering="crispEdges"/>
</g>
<path fill-rule="evenodd" clip-rule="evenodd" d="M207.868 63.9655L210.214 59.4727L209.869 51.2655L211.422 52.0762L211.688 58.295L216.935 54.9545L218.487 55.7651L211.564 60.1776L209.218 64.6703L207.868 63.9655ZM195.466 58.515L194.237 58.1345L194.16 55.126L189.185 53.5867L187.431 56.0287L185.935 55.566L193.433 45.1318L195.438 45.752L195.698 57.0964L199.783 47.1166L201.193 47.6936L203.467 58.9103L207.073 50.1011L208.483 50.6781L203.867 61.9539L202.457 61.3769L200.186 50.1524L196.577 58.9695L195.466 58.515ZM193.952 46.9513L194.122 53.6351L190.054 52.3765L193.952 46.9513ZM180.268 41.9263L177.703 53.8373L179.175 54.1544L180.123 49.754L183.357 50.4506C183.473 50.4755 183.612 50.4997 183.774 50.5231C183.937 50.5465 184.095 50.5632 184.248 50.5733C184.909 50.6118 185.494 50.507 186.004 50.2589C186.52 50.0066 186.944 49.6449 187.276 49.1741C187.615 48.6989 187.852 48.147 187.987 47.5184C188.124 46.8843 188.138 46.2842 188.029 45.7184C187.921 45.147 187.684 44.6429 187.316 44.206C186.954 43.7703 186.461 43.4333 185.837 43.1951C185.694 43.1354 185.544 43.0856 185.385 43.0457C185.227 43.0002 185.091 42.965 184.975 42.94L180.268 41.9263ZM183.609 49.042L180.424 48.3561L181.44 43.6413L184.624 44.3272C184.729 44.3498 184.846 44.3808 184.976 44.4204C185.113 44.4556 185.238 44.5028 185.353 44.562C185.715 44.7267 185.99 44.9531 186.176 45.2413C186.367 45.5307 186.484 45.8472 186.525 46.1908C186.568 46.5288 186.553 46.8633 186.482 47.1942C186.411 47.525 186.286 47.8385 186.106 48.1346C185.928 48.4251 185.693 48.6628 185.399 48.8477C185.112 49.0282 184.769 49.1216 184.369 49.1279C184.242 49.1293 184.108 49.1207 183.968 49.1021C183.833 49.0846 183.713 49.0646 183.609 49.042ZM165.081 52.3171L166.418 40.2065L167.78 40.3569L171.291 50.5083L176.905 41.364L178.285 41.5163L176.949 53.6185L175.527 53.4616L176.5 44.6478L171.414 53.0161L170.615 52.9279L167.476 43.6518L166.502 52.474L165.081 52.3171ZM155.424 51.8061C156.274 52.3369 157.305 52.5987 158.517 52.5914C159.736 52.5842 160.766 52.3101 161.609 51.7691C162.452 51.2282 163.091 50.4798 163.525 49.5239C163.959 48.568 164.173 47.4639 164.165 46.2117C164.158 44.9594 163.931 43.858 163.486 42.9074C163.04 41.9567 162.392 41.216 161.543 40.6852C160.694 40.1543 159.66 39.8926 158.442 39.8999C157.229 39.9071 156.201 40.1812 155.358 40.7221C154.515 41.263 153.874 42.0114 153.434 42.9674C153 43.9233 152.786 45.0274 152.794 46.2796C152.801 47.5318 153.028 48.6333 153.473 49.5839C153.925 50.5346 154.575 51.2753 155.424 51.8061ZM160.773 50.5303C160.172 50.9457 159.417 51.1533 158.509 51.1531C157.601 51.1528 156.841 50.9487 156.229 50.5405C155.623 50.1267 155.165 49.5541 154.856 48.8226C154.547 48.0911 154.393 47.2403 154.393 46.2701C154.393 45.2942 154.543 44.4359 154.843 43.6951C155.143 42.9544 155.591 42.3763 156.186 41.961C156.787 41.5456 157.542 41.338 158.45 41.3382C159.358 41.3384 160.115 41.5426 160.721 41.9508C161.333 42.3589 161.791 42.9288 162.094 43.6603C162.403 44.3917 162.56 45.2454 162.566 46.2212C162.572 47.1914 162.425 48.0469 162.125 48.7877C161.83 49.5284 161.379 50.1093 160.773 50.5303ZM147.539 53.2456C146.334 53.3779 145.281 53.224 144.381 52.7837C143.482 52.3434 142.759 51.6738 142.211 50.7748C141.67 49.8752 141.331 48.8031 141.194 47.5583C141.058 46.3135 141.156 45.1933 141.489 44.1977C141.828 43.2014 142.389 42.3908 143.171 41.7657C143.954 41.1407 144.948 40.762 146.153 40.6296C147.555 40.4756 148.747 40.7051 149.728 41.3181C150.714 41.9304 151.445 42.8206 151.919 43.9885L150.441 44.5594C150.095 43.6838 149.577 43.02 148.886 42.5682C148.195 42.1163 147.337 41.9467 146.31 42.0594C145.408 42.1585 144.679 42.4457 144.124 42.9209C143.569 43.3961 143.18 44.0176 142.958 44.7854C142.735 45.5476 142.675 46.414 142.775 47.3846C142.876 48.3497 143.118 49.1828 143.501 49.8841C143.884 50.5798 144.401 51.1018 145.052 51.4502C145.703 51.7931 146.479 51.9149 147.382 51.8157C148.408 51.703 149.209 51.3512 149.786 50.7601C150.361 50.1635 150.723 49.403 150.871 48.4788L152.438 48.7153C152.228 49.9528 151.708 50.9803 150.878 51.7978C150.054 52.609 148.941 53.0916 147.539 53.2456ZM131.249 55.924C131.837 56.0446 132.435 56.029 133.043 55.8774C133.776 55.6943 134.405 55.3484 134.929 54.8396C135.457 54.324 135.833 53.7215 136.056 53.0321C136.278 52.3371 136.298 51.6257 136.117 50.8978C135.933 50.1645 135.599 49.5474 135.114 49.0465C134.627 48.5401 134.051 48.1897 133.386 47.9952C132.72 47.7952 132.02 47.7868 131.287 47.9699C130.811 48.0887 130.367 48.3013 129.955 48.6077C129.69 48.8062 129.46 49.0318 129.266 49.2844L128.591 45.643L133.619 44.3876L133.273 43.0002L126.927 44.5844L128.109 50.8562L129.529 51.0249C129.665 50.6597 129.889 50.3246 130.203 50.0196C130.52 49.7078 130.939 49.487 131.459 49.3572C131.918 49.2424 132.371 49.2487 132.815 49.3761C133.26 49.5035 133.645 49.7328 133.972 50.064C134.303 50.3883 134.528 50.7885 134.647 51.2647C134.762 51.7244 134.756 52.1766 134.628 52.6211C134.499 53.0603 134.27 53.446 133.94 53.7783C133.615 54.1038 133.211 54.3267 132.729 54.4469C132.363 54.5385 131.99 54.55 131.613 54.4814C131.239 54.4061 130.892 54.2603 130.571 54.044C130.248 53.8223 129.989 53.5294 129.793 53.1654L128.484 53.8935C128.786 54.4285 129.176 54.8719 129.653 55.2237C130.134 55.5686 130.666 55.802 131.249 55.924ZM123.922 58.3521L120.455 48.1722L116.522 49.5117L116.061 48.1581L125.352 44.9936L125.813 46.3472L121.881 47.6866L125.348 57.8666L123.922 58.3521ZM112.597 49.6701L117.271 60.9221L118.662 60.3444L113.988 49.0923L112.597 49.6701ZM107.852 65.3858L102.451 54.4638L106.706 52.3599C107.359 52.0374 107.981 51.8964 108.574 51.9368C109.172 51.9748 109.7 52.1538 110.161 52.4737C110.623 52.786 110.98 53.195 111.23 53.7007C111.522 54.2923 111.627 54.8856 111.544 55.4806C111.487 55.8818 111.352 56.2437 111.136 56.5662C111.709 56.5311 112.236 56.6301 112.718 56.8632C113.355 57.1713 113.845 57.6717 114.187 58.3644C114.502 59.0015 114.643 59.6177 114.61 60.2129C114.582 60.8056 114.387 61.3521 114.024 61.8525C113.666 62.3504 113.153 62.7644 112.486 63.0944L107.852 65.3858ZM108.579 63.4213L111.591 61.9325C111.995 61.7325 112.32 61.4804 112.566 61.1763C112.81 60.8671 112.955 60.5309 113.002 60.1679C113.054 59.8023 112.985 59.4274 112.795 59.0431C112.613 58.674 112.366 58.384 112.054 58.1733C111.747 57.96 111.402 57.8411 111.019 57.8167C110.638 57.7848 110.253 57.865 109.863 58.0575L106.701 59.6214L108.579 63.4213ZM106.071 58.3472L108.945 56.9258C109.269 56.7658 109.526 56.5538 109.716 56.2898C109.909 56.0182 110.019 55.7185 110.046 55.3906C110.077 55.0603 110.009 54.7257 109.842 54.387C109.609 53.9167 109.26 53.6112 108.794 53.4703C108.328 53.3295 107.837 53.3866 107.321 53.6416L104.447 55.063L106.071 58.3472ZM90.4143 68.0535L91.7835 68.0631L91.7339 65.9563L93.7042 66.6907L94.1387 65.3923L92.1193 64.8074L93.4272 63.1449L92.3254 62.3306L91.1425 64.0807L89.9697 62.3084L88.8545 63.1053L90.1511 64.789L88.1122 65.3412L88.5256 66.6473L90.5222 65.9486L90.4143 68.0535ZM83.0473 84.0905L79.4946 80.4759L71.5799 78.2775L72.829 77.0497L78.8278 78.7111L77.2643 72.6904L78.5135 71.4627L80.5808 79.4083L84.1335 83.023L83.0473 84.0905ZM65.3851 85.5653L74.6472 93.4816L75.6367 92.3239L68.3943 86.1337L79.7653 87.4935L80.7548 86.3357L71.4928 78.4194L70.5033 79.5771L77.7392 85.7618L66.3747 84.4075L65.3851 85.5653ZM68.5032 102.176L60.8727 91.8382L62.0781 90.1206L74.3941 93.7815L73.4949 95.0628L70.608 94.2127L67.6164 98.4754L69.4024 100.894L68.5032 102.176ZM62.7636 91.9028L69.1773 93.7914L66.7314 97.2767L62.7636 91.9028ZM54.0273 102.929L64.5557 109.061L65.3137 107.76L61.4241 105.494L63.0892 102.635C63.1489 102.533 63.215 102.408 63.2875 102.261C63.3601 102.114 63.425 101.969 63.4822 101.826C63.7238 101.21 63.8056 100.621 63.7277 100.06C63.6478 99.4911 63.4355 98.9757 63.0909 98.5139C62.7442 98.0443 62.2931 97.6477 61.7374 97.3241C61.1769 96.9976 60.6107 96.7984 60.039 96.7265C59.4624 96.6517 58.9094 96.7213 58.3801 96.9352C57.8536 97.1442 57.3804 97.5084 56.9604 98.0275C56.8594 98.1449 56.7653 98.2729 56.6781 98.4114C56.586 98.5471 56.5102 98.6661 56.4505 98.7685L54.0273 102.929ZM61.8281 101.96L60.1885 104.774L56.021 102.347L57.6606 99.5321C57.7145 99.4394 57.7805 99.3375 57.8583 99.2262C57.9342 99.1072 58.018 99.0026 58.1097 98.9124C58.3787 98.6186 58.679 98.428 59.0107 98.3405C59.3452 98.2481 59.6822 98.2355 60.0217 98.3027C60.3563 98.367 60.6699 98.4844 60.9623 98.6547C61.2548 98.8251 61.514 99.0413 61.7399 99.3035C61.9609 99.5628 62.1138 99.8607 62.1985 100.197C62.2811 100.526 62.2635 100.881 62.1455 101.263C62.1075 101.385 62.0578 101.509 61.9966 101.637C61.9382 101.759 61.882 101.867 61.8281 101.96ZM58.9477 121.098L47.8389 116.093L48.4019 114.843L59.1411 114.633L52.1729 106.473L52.7428 105.208L63.844 110.209L63.2566 111.513L55.1718 107.871L61.5648 115.289L61.2346 116.022L51.4426 116.148L59.5351 119.794L58.9477 121.098ZM266.905 211.933L256.126 206.252L253.715 210.825C253.368 211.484 253.196 212.12 253.198 212.733C253.197 213.351 253.359 213.909 253.684 214.405C254.007 214.907 254.482 215.323 255.111 215.654C255.795 216.015 256.485 216.133 257.181 216.009C257.708 215.915 258.193 215.686 258.637 215.322C258.651 215.71 258.754 216.082 258.943 216.44C259.225 216.971 259.657 217.39 260.241 217.698C260.74 217.961 261.269 218.083 261.827 218.065C262.387 218.054 262.92 217.889 263.427 217.569C263.931 217.255 264.352 216.775 264.691 216.132L266.905 211.933ZM255.122 211.241L256.688 208.27L260.438 210.246L258.793 213.368C258.591 213.752 258.326 214.043 257.999 214.24C257.674 214.445 257.325 214.551 256.951 214.558C256.575 214.57 256.205 214.48 255.84 214.288C255.461 214.089 255.185 213.825 255.013 213.499C254.838 213.177 254.759 212.819 254.775 212.426C254.796 212.036 254.912 211.641 255.122 211.241ZM260.201 213.746L261.696 210.909L264.937 212.617L263.442 215.454C263.174 215.963 262.809 216.297 262.349 216.456C261.889 216.616 261.427 216.573 260.963 216.328C260.629 216.152 260.378 215.921 260.21 215.635C260.039 215.353 259.952 215.046 259.949 214.713C259.949 214.388 260.032 214.065 260.201 213.746ZM261.731 221.355L251.322 215.021L250.539 216.308L260.948 222.642L261.731 221.355ZM247.52 220.92L256.323 227.098L258.709 223.697L259.88 224.518L254.241 232.552L253.071 231.731L255.458 228.33L246.655 222.153L247.52 220.92ZM242.685 227.607C242.138 227.854 241.663 228.217 241.26 228.696C240.773 229.275 240.467 229.923 240.34 230.643C240.215 231.37 240.264 232.079 240.487 232.768C240.715 233.461 241.116 234.049 241.69 234.532C242.268 235.019 242.9 235.323 243.587 235.444C244.279 235.569 244.951 235.515 245.603 235.283C246.26 235.054 246.832 234.651 247.319 234.072C247.635 233.697 247.87 233.264 248.024 232.775C248.122 232.459 248.176 232.141 248.185 231.823L250.867 234.377L247.53 238.342L248.624 239.263L252.835 234.259L248.201 229.871L246.951 230.567C247.056 230.942 247.07 231.345 246.995 231.776C246.921 232.215 246.711 232.639 246.366 233.049C246.061 233.412 245.691 233.672 245.256 233.829C244.821 233.987 244.374 234.027 243.915 233.951C243.457 233.882 243.04 233.69 242.665 233.374C242.302 233.068 242.042 232.698 241.885 232.264C241.732 231.832 241.691 231.385 241.764 230.923C241.837 230.468 242.033 230.051 242.353 229.671C242.596 229.382 242.891 229.155 243.237 228.989C243.583 228.831 243.95 228.745 244.338 228.732C244.729 228.722 245.111 228.808 245.482 228.988L246.116 227.63C245.558 227.374 244.982 227.243 244.389 227.238C243.797 227.241 243.229 227.364 242.685 227.607ZM231.084 239.234C231.984 238.421 232.927 237.929 233.914 237.758C234.901 237.588 235.879 237.706 236.849 238.114C237.815 238.526 238.718 239.196 239.558 240.124C240.399 241.053 240.975 242.018 241.289 243.02C241.598 244.026 241.619 245.012 241.351 245.977C241.083 246.942 240.5 247.831 239.6 248.645C238.555 249.591 237.455 250.103 236.301 250.182C235.143 250.264 234.029 249.97 232.96 249.302L233.823 247.973C234.617 248.48 235.426 248.714 236.25 248.675C237.075 248.637 237.87 248.271 238.635 247.578C239.309 246.969 239.731 246.309 239.902 245.599C240.073 244.889 240.024 244.157 239.754 243.405C239.488 242.657 239.029 241.919 238.379 241.192C237.732 240.469 237.048 239.935 236.326 239.592C235.608 239.252 234.883 239.132 234.152 239.232C233.424 239.335 232.723 239.692 232.05 240.301C231.284 240.994 230.841 241.748 230.721 242.565C230.604 243.386 230.756 244.214 231.178 245.05L229.77 245.776C229.215 244.65 229.034 243.513 229.227 242.365C229.42 241.224 230.039 240.181 231.084 239.234ZM225.527 244.987C224.528 245.054 223.539 245.446 222.56 246.161C221.576 246.881 220.901 247.706 220.535 248.638C220.168 249.571 220.089 250.551 220.296 251.58C220.504 252.61 220.978 253.63 221.717 254.64C222.456 255.651 223.285 256.411 224.203 256.921C225.121 257.431 226.079 257.652 227.078 257.585C228.078 257.518 229.069 257.125 230.053 256.406C231.031 255.69 231.704 254.866 232.071 253.934C232.437 253.002 232.519 252.019 232.316 250.987C232.108 249.958 231.635 248.938 230.896 247.927C230.156 246.916 229.328 246.156 228.41 245.646C227.487 245.14 226.526 244.92 225.527 244.987ZM221.938 249.153C222.182 248.464 222.673 247.854 223.409 247.322C224.145 246.791 224.881 246.511 225.616 246.484C226.349 246.465 227.056 246.661 227.734 247.073C228.413 247.485 229.037 248.084 229.605 248.871C230.176 249.662 230.557 250.445 230.748 251.222C230.938 251.998 230.914 252.729 230.674 253.414C230.43 254.103 229.94 254.713 229.203 255.245C228.467 255.776 227.734 256.054 227.003 256.078C226.269 256.105 225.564 255.911 224.89 255.496C224.211 255.084 223.584 254.484 223.008 253.696C222.435 252.913 222.053 252.133 221.863 251.357C221.668 250.584 221.693 249.849 221.938 249.153ZM217.639 250.045L223.668 260.633L222.476 261.311L213.675 255.155L214.499 265.854L213.293 266.54L207.268 255.96L208.511 255.252L212.898 262.958L212.102 253.198L212.801 252.8L220.788 258.466L216.396 250.753L217.639 250.045ZM211.2 267.475L206.282 256.327L204.904 256.935L206.721 261.054L203.694 262.389C203.586 262.437 203.459 262.499 203.314 262.575C203.169 262.652 203.031 262.731 202.901 262.813C202.343 263.17 201.931 263.598 201.665 264.098C201.395 264.606 201.264 265.147 201.272 265.724C201.277 266.307 201.409 266.893 201.669 267.481C201.93 268.075 202.272 268.569 202.692 268.963C203.115 269.362 203.603 269.63 204.157 269.768C204.706 269.908 205.303 269.892 205.948 269.718C206.098 269.683 206.25 269.634 206.402 269.573C206.556 269.518 206.687 269.466 206.796 269.418L211.2 267.475ZM204.318 263.677L207.298 262.362L209.245 266.774L206.265 268.089C206.167 268.133 206.054 268.176 205.925 268.221C205.794 268.272 205.665 268.308 205.537 268.327C205.147 268.407 204.792 268.385 204.472 268.261C204.147 268.139 203.867 267.951 203.632 267.697C203.399 267.449 203.214 267.17 203.077 266.86C202.941 266.55 202.858 266.223 202.829 265.878C202.803 265.538 202.854 265.207 202.983 264.885C203.109 264.571 203.332 264.294 203.652 264.054C203.754 263.978 203.868 263.906 203.992 263.839C204.111 263.774 204.22 263.72 204.318 263.677ZM198.864 259.631L198.979 272.479L196.995 273.162L189.169 262.972L190.649 262.462L192.488 264.844L197.412 263.147L197.384 260.141L198.864 259.631ZM197.485 271.317L193.4 266.025L197.425 264.637L197.485 271.317ZM191.885 274.823L189.02 262.981L187.54 263.339L189.78 272.599L181.364 264.833L179.883 265.191L182.748 277.033L184.229 276.675L181.99 267.423L190.405 275.181L191.885 274.823ZM176.699 265.666L177.474 270.675L182.616 277.08L180.885 277.348L176.985 272.497L174.739 278.298L173.009 278.565L175.968 270.907L175.194 265.899L176.699 265.666ZM161.093 274.358L159.989 273.548L158.796 275.285L157.628 273.536L156.516 274.334L157.81 275.991L155.777 276.572L156.193 277.878L158.177 277.152L158.09 279.275L159.46 279.282L159.395 277.158L161.371 277.904L161.801 276.604L159.773 276.001L161.093 274.358ZM145.26 266.244L143.24 278.26L138.559 277.473C137.841 277.352 137.254 277.102 136.797 276.722C136.335 276.341 136.011 275.886 135.826 275.357C135.633 274.833 135.584 274.293 135.678 273.736C135.787 273.086 136.05 272.543 136.466 272.11C136.746 271.818 137.069 271.604 137.432 271.469C136.947 271.162 136.578 270.773 136.324 270.302C135.988 269.679 135.884 268.986 136.012 268.224C136.13 267.523 136.377 266.941 136.752 266.478C137.122 266.014 137.6 265.686 138.188 265.493C138.769 265.299 139.427 265.264 140.162 265.387L145.26 266.244ZM143.519 267.41L140.207 266.853C139.762 266.778 139.351 266.792 138.973 266.895C138.594 267.003 138.28 267.19 138.029 267.457C137.773 267.722 137.609 268.067 137.538 268.489C137.47 268.895 137.5 269.275 137.63 269.629C137.753 269.981 137.963 270.28 138.26 270.524C138.55 270.773 138.909 270.934 139.337 271.006L142.817 271.591L143.519 267.41ZM142.581 272.992L139.419 272.461C139.063 272.401 138.73 272.422 138.421 272.525C138.106 272.632 137.841 272.81 137.627 273.06C137.408 273.31 137.267 273.62 137.205 273.993C137.118 274.51 137.222 274.963 137.517 275.35C137.812 275.737 138.244 275.978 138.811 276.074L141.973 276.605L142.581 272.992ZM132.379 276.207L135.171 264.347L133.705 264.002L130.913 275.862L132.379 276.207ZM128.435 262.554L125.296 272.84L129.269 274.053L128.852 275.42L119.465 272.555L119.882 271.188L123.855 272.4L126.995 262.115L128.435 262.554ZM120.654 260.039C120.249 259.595 119.757 259.256 119.176 259.021C118.476 258.737 117.764 258.647 117.04 258.75C116.31 258.856 115.652 259.121 115.065 259.547C114.477 259.979 114.042 260.542 113.76 261.237C113.477 261.938 113.384 262.634 113.481 263.324C113.577 264.02 113.836 264.642 114.259 265.191C114.68 265.745 115.241 266.164 115.941 266.447C116.396 266.631 116.88 266.721 117.394 266.716C117.724 266.711 118.043 266.664 118.349 266.574L116.751 269.915L111.947 267.97L111.41 269.296L117.473 271.75L120.209 265.984L119.16 265.012C118.836 265.228 118.457 265.366 118.024 265.428C117.584 265.494 117.116 265.426 116.619 265.225C116.18 265.047 115.818 264.775 115.533 264.411C115.249 264.046 115.072 263.634 115.003 263.174C114.926 262.717 114.98 262.261 115.164 261.806C115.342 261.367 115.613 261.005 115.978 260.72C116.34 260.441 116.753 260.264 117.215 260.19C117.67 260.118 118.128 260.176 118.588 260.362C118.938 260.504 119.246 260.714 119.51 260.991C119.768 261.272 119.963 261.594 120.096 261.958C120.226 262.328 120.263 262.717 120.207 263.126L121.694 263.309C121.765 262.698 121.711 262.11 121.532 261.545C121.346 260.983 121.053 260.481 120.654 260.039ZM105.629 252.407C106.682 253.009 107.442 253.753 107.911 254.638C108.379 255.524 108.57 256.491 108.483 257.539C108.391 258.585 108.035 259.652 107.413 260.739C106.791 261.825 106.052 262.673 105.197 263.282C104.337 263.888 103.406 264.214 102.406 264.259C101.405 264.304 100.379 264.025 99.326 263.423C98.102 262.722 97.2738 261.836 96.8413 260.763C96.404 259.687 96.3371 258.538 96.6408 257.314L98.1718 257.722C97.9361 258.634 97.9647 259.475 98.2574 260.247C98.5501 261.019 99.1444 261.661 100.04 262.174C100.829 262.625 101.587 262.822 102.315 262.764C103.044 262.707 103.724 262.433 104.355 261.943C104.984 261.457 105.543 260.793 106.032 259.949C106.519 259.109 106.814 258.293 106.916 257.501C107.016 256.713 106.905 255.987 106.584 255.322C106.259 254.662 105.703 254.106 104.915 253.655C104.019 253.142 103.164 252.956 102.35 253.094C101.534 253.238 100.794 253.64 100.13 254.3L99.0025 253.187C99.9006 252.31 100.926 251.785 102.077 251.612C103.221 251.442 104.405 251.706 105.629 252.407ZM98.5087 248.932C98.1346 248.003 97.4552 247.184 96.4705 246.476C95.4813 245.765 94.4868 245.38 93.487 245.321C92.4872 245.262 91.5304 245.491 90.6166 246.008C89.7029 246.525 88.8805 247.292 88.1494 248.309C87.4183 249.326 86.9531 250.35 86.7538 251.38C86.5545 252.411 86.6418 253.391 87.016 254.32C87.3901 255.249 88.0717 256.069 89.061 256.781C90.0456 257.489 91.0378 257.872 92.0376 257.931C93.0374 257.99 93.9965 257.763 94.9149 257.249C95.8286 256.732 96.651 255.965 97.3821 254.948C98.1132 253.931 98.5784 252.908 98.7777 251.877C98.9725 250.843 98.8828 249.861 98.5087 248.932ZM93.4341 246.815C94.1645 246.833 94.8967 247.109 95.6308 247.644C96.3648 248.179 96.859 248.791 97.1132 249.481C97.3595 250.173 97.3923 250.905 97.2115 251.678C97.0307 252.451 96.6548 253.23 96.0838 254.014C95.5095 254.803 94.883 255.409 94.2043 255.831C93.5256 256.253 92.8233 256.457 92.0974 256.442C91.367 256.424 90.6348 256.148 89.9007 255.613C89.1667 255.078 88.6748 254.467 88.4252 253.781C88.171 253.091 88.1366 252.361 88.322 251.591C88.5028 250.818 88.878 250.035 89.4477 249.243C90.0142 248.455 90.6367 247.85 91.3154 247.428C91.9896 247.003 92.6958 246.798 93.4341 246.815ZM91.2943 243.016L83.1011 252.034L82.0866 251.112L85.2059 240.834L75.2918 244.939L74.2647 244.005L82.4523 234.994L83.5107 235.955L77.5478 242.518L86.5787 238.731L87.1736 239.272L84.2674 248.623L90.236 242.054L91.2943 243.016ZM72.705 242.262L81.8 234.154L80.7978 233.03L77.4377 236.025L75.2363 233.556C75.1574 233.467 75.0594 233.366 74.9421 233.251C74.8248 233.137 74.7071 233.03 74.5889 232.931C74.0777 232.511 73.5433 232.25 72.9857 232.15C72.4202 232.05 71.8644 232.092 71.3185 232.276C70.7646 232.46 70.2476 232.766 69.7676 233.194C69.2834 233.626 68.9184 234.102 68.6728 234.623C68.4229 235.148 68.3176 235.696 68.3568 236.265C68.3923 236.831 68.5917 237.393 68.9551 237.954C69.0354 238.086 69.1278 238.215 69.2325 238.341C69.3329 238.471 69.4225 238.58 69.5014 238.668L72.705 242.262ZM74.2027 234.545L76.3703 236.977L72.7702 240.186L70.6025 237.755C70.5312 237.675 70.4547 237.58 70.3731 237.472C70.2834 237.363 70.21 237.251 70.1527 237.135C69.9568 236.789 69.8687 236.444 69.8884 236.101C69.9043 235.755 69.9968 235.431 70.166 235.129C70.3309 234.83 70.5397 234.569 70.7923 234.344C71.045 234.118 71.3309 233.939 71.6502 233.805C71.9653 233.676 72.2959 233.623 72.6422 233.647C72.9804 233.67 73.3127 233.797 73.6391 234.027C73.7427 234.101 73.8457 234.187 73.9479 234.285C74.0464 234.378 74.1313 234.465 74.2027 234.545ZM76.3428 228.077L64.1449 232.114L62.8874 230.434L70.1973 219.867L71.1354 221.121L69.4295 223.6L72.5504 227.769L75.4048 226.824L76.3428 228.077ZM71.1359 228.237L68.5842 224.829L64.7944 230.337L71.1359 228.237ZM59.826 226.193L70.2098 219.819L69.413 218.521L61.2935 223.505L66.0887 213.106L65.2919 211.808L54.9081 218.182L55.7049 219.48L63.8172 214.5L59.0292 224.895L59.826 226.193ZM63.8369 208.86L59.3019 211.123L54.7669 217.972L53.9849 216.405L57.4174 211.213L51.2082 210.841L50.4262 209.273L58.6219 209.761L63.1569 207.498L63.8369 208.86ZM50.7914 196.697L51.2234 195.398L49.2042 194.794L50.5112 193.147L49.4104 192.333L48.2305 194.073L47.0531 192.315L45.9384 193.112L47.2376 194.777L45.1898 195.346L45.6034 196.652L47.6052 195.939L47.5007 198.049L48.8707 198.059L48.8227 195.944L50.7914 196.697ZM53.6411 179.193L41.5867 180.967L40.8958 176.271C40.7899 175.551 40.8475 174.915 41.0685 174.364C41.2888 173.807 41.6219 173.359 42.068 173.019C42.5078 172.675 43.0067 172.462 43.5647 172.38C44.2177 172.284 44.8143 172.367 45.3547 172.63C45.7191 172.807 46.0216 173.048 46.2621 173.352C46.405 172.796 46.6616 172.325 47.0318 171.938C47.5211 171.427 48.148 171.116 48.9126 171.003C49.6158 170.9 50.2454 170.955 50.8015 171.17C51.3568 171.379 51.8166 171.733 52.1809 172.233C52.5443 172.727 52.7802 173.342 52.8886 174.079L53.6411 179.193ZM51.9963 177.896L51.5074 174.573C51.4417 174.126 51.3021 173.739 51.0885 173.411C50.8694 173.084 50.5943 172.843 50.2634 172.686C49.9317 172.524 49.5537 172.474 49.1296 172.536C48.7222 172.596 48.3702 172.742 48.0736 172.974C47.7762 173.2 47.5569 173.492 47.4156 173.849C47.2679 174.201 47.2256 174.592 47.2888 175.022L47.8024 178.513L51.9963 177.896ZM46.3961 178.72L45.9293 175.547C45.8767 175.19 45.7542 174.88 45.5616 174.618C45.3627 174.351 45.1114 174.154 44.8077 174.027C44.5032 173.895 44.164 173.857 43.7901 173.912C43.2711 173.988 42.8728 174.227 42.5953 174.627C42.3178 175.027 42.2209 175.511 42.3046 176.08L42.7714 179.253L46.3961 178.72ZM40.1976 170.169L52.3392 169.151L52.2134 167.65L40.0718 168.668L40.1976 170.169ZM51.9441 162.127L41.1915 162.311L41.2625 166.465L39.8328 166.489L39.6649 156.676L41.0946 156.651L41.1657 160.805L51.9183 160.621L51.9441 162.127ZM51.9139 154.056C52.2099 153.534 52.3794 152.96 52.4223 152.336C52.4741 151.582 52.3388 150.877 52.0164 150.221C51.6886 149.56 51.2312 149.017 50.6441 148.592C50.0514 148.167 49.3808 147.928 48.6324 147.877C47.8783 147.825 47.1882 147.953 46.562 148.261C45.9303 148.568 45.4194 149.008 45.0295 149.58C44.634 150.152 44.4103 150.815 44.3585 151.569C44.3248 152.059 44.3903 152.547 44.5547 153.033C44.6621 153.346 44.8059 153.634 44.9863 153.897L41.314 153.417L41.6694 148.247L40.2428 148.149L39.7943 154.674L46.1251 155.482L46.7232 154.183C46.4175 153.942 46.1679 153.625 45.9744 153.233C45.7756 152.834 45.6945 152.368 45.7313 151.833C45.7638 151.361 45.9091 150.933 46.1673 150.549C46.4255 150.165 46.7625 149.869 47.1783 149.66C47.5888 149.445 48.0389 149.354 48.5285 149.388C49.0012 149.421 49.4294 149.566 49.8131 149.824C50.1912 150.082 50.4875 150.419 50.702 150.835C50.9113 151.245 50.9989 151.698 50.9649 152.193C50.939 152.57 50.8352 152.928 50.6537 153.266C50.4669 153.598 50.2211 153.883 49.9163 154.123C49.6059 154.361 49.2474 154.518 48.8409 154.591L49.13 156.062C49.7321 155.939 50.274 155.705 50.7558 155.359C51.2323 155.007 51.6183 154.573 51.9139 154.056ZM54.421 137.877C54.1747 139.065 53.7032 140.018 53.0066 140.738C52.3101 141.457 51.4498 141.939 50.4259 142.181C49.4031 142.419 48.2786 142.41 47.0525 142.156C45.8263 141.901 44.7912 141.462 43.9471 140.837C43.1042 140.207 42.5063 139.424 42.1535 138.486C41.8007 137.549 41.7474 136.487 41.9937 135.299C42.2802 133.918 42.8663 132.856 43.7522 132.112C44.6393 131.363 45.7115 130.943 46.9689 130.853L47.0555 132.435C46.1159 132.493 45.3245 132.781 44.6813 133.299C44.0382 133.816 43.6118 134.581 43.4021 135.591C43.2177 136.481 43.2658 137.263 43.5464 137.937C43.827 138.612 44.2981 139.173 44.9598 139.622C45.6159 140.069 46.4212 140.394 47.3756 140.598C48.3244 140.801 49.1915 140.828 49.9769 140.68C50.7568 140.53 51.413 140.2 51.9455 139.688C52.4724 139.175 52.8281 138.474 53.0126 137.585C53.2222 136.574 53.135 135.703 52.7508 134.973C52.3611 134.241 51.7496 133.662 50.9162 133.236L51.625 131.818C52.7371 132.401 53.5538 133.212 54.0752 134.254C54.5921 135.289 54.7074 136.496 54.421 137.877ZM55.4874 130.053C56.2544 129.409 56.8216 128.509 57.189 127.353C57.5581 126.192 57.6154 125.127 57.361 124.158C57.1066 123.19 56.5918 122.351 55.8165 121.643C55.0413 120.935 54.057 120.391 52.8635 120.012C51.6701 119.633 50.5525 119.508 49.5107 119.639C48.4689 119.769 47.5646 120.157 46.7976 120.801C46.0306 121.445 45.4625 122.347 45.0934 123.509C44.7261 124.664 44.6696 125.727 44.924 126.695C45.1784 127.664 45.6924 128.505 46.4659 129.219C47.2411 129.927 48.2254 130.47 49.4189 130.85C50.6123 131.229 51.7299 131.353 52.7717 131.223C53.8152 131.087 54.7204 130.697 55.4874 130.053ZM55.9245 124.572C56.1341 125.272 56.0986 126.054 55.8182 126.917C55.5377 127.781 55.109 128.441 54.532 128.897C53.9514 129.346 53.2655 129.604 52.4744 129.672C51.6832 129.74 50.8262 129.625 49.9033 129.326C48.975 129.025 48.2048 128.617 47.5929 128.103C46.9809 127.589 46.5693 126.984 46.358 126.29C46.1484 125.59 46.1838 124.808 46.4643 123.944C46.7447 123.08 47.1726 122.423 47.7479 121.973C48.3248 121.517 49.008 121.258 49.7974 121.195C50.5886 121.127 51.4491 121.24 52.3791 121.536C53.3038 121.83 54.0721 122.234 54.684 122.748C55.2977 123.257 55.7112 123.865 55.9245 124.572ZM225.097 65.8156L225.513 67.1202L227.5 66.4194L227.414 68.5203L228.783 68.5305L228.712 66.4292L230.699 67.1567L231.131 65.8567L229.1 65.2751L230.421 63.6104L229.317 62.7974L228.119 64.5525L226.961 62.7856L225.848 63.5838L227.132 65.265L225.097 65.8156ZM233.111 81.5985L241.833 73.0905L245.147 76.4883C245.655 77.0092 245.982 77.5577 246.126 78.1339C246.274 78.7141 246.268 79.2725 246.105 79.809C245.951 80.3456 245.672 80.8108 245.268 81.2047C244.796 81.6656 244.264 81.9482 243.672 82.0525C243.273 82.1229 242.887 82.1055 242.514 82.0002C242.724 82.534 242.793 83.0661 242.72 83.5964C242.623 84.2973 242.298 84.9175 241.745 85.4572C241.236 85.9535 240.694 86.2778 240.118 86.4302C239.545 86.5867 238.965 86.5695 238.377 86.3787C237.793 86.192 237.241 85.8321 236.721 85.2991L233.111 81.5985ZM235.204 81.6843L237.55 84.0888C237.865 84.4118 238.205 84.6434 238.57 84.7835C238.94 84.9198 239.304 84.9542 239.664 84.8869C240.028 84.8236 240.363 84.6422 240.67 84.3429C240.965 84.0553 241.164 83.7307 241.268 83.369C241.377 83.0113 241.383 82.6464 241.288 82.2743C241.201 81.9022 241.006 81.5607 240.702 81.2498L238.239 78.7242L235.204 81.6843ZM239.256 77.7316L241.495 80.0271C241.747 80.2855 242.028 80.4645 242.338 80.5641C242.656 80.6638 242.975 80.6757 243.295 80.5999C243.619 80.5281 243.916 80.3603 244.187 80.0964C244.563 79.73 244.745 79.3035 244.735 78.8167C244.726 78.3299 244.52 77.8806 244.118 77.4688L241.879 75.1733L239.256 77.7316ZM249.711 81.4698L240.436 89.3719L241.413 90.5183L250.687 82.6162L249.711 81.4698ZM244.58 94.4607L253.189 88.016L250.699 84.6902L251.844 83.8332L257.726 91.6906L256.581 92.5475L254.091 89.2217L245.482 95.6664L244.58 94.4607ZM249.612 101.366C249.676 101.963 249.873 102.527 250.203 103.06C250.601 103.702 251.122 104.196 251.766 104.54C252.418 104.886 253.106 105.061 253.831 105.063C254.56 105.063 255.244 104.865 255.882 104.47C256.525 104.072 257.011 103.566 257.34 102.951C257.674 102.333 257.832 101.678 257.815 100.985C257.802 100.29 257.597 99.6208 257.199 98.9781C256.941 98.5608 256.603 98.2026 256.186 97.9036C255.916 97.7121 255.632 97.5621 255.332 97.4538L258.594 95.7013L261.322 100.108L262.538 99.3558L259.096 93.7943L253.482 96.8308L253.754 98.2347C254.143 98.2525 254.531 98.3643 254.917 98.5699C255.311 98.7773 255.648 99.1088 255.93 99.5645C256.18 99.9674 256.312 100.4 256.326 100.862C256.34 101.324 256.239 101.762 256.023 102.174C255.815 102.588 255.502 102.924 255.085 103.182C254.682 103.432 254.249 103.564 253.787 103.578C253.33 103.589 252.892 103.488 252.475 103.275C252.066 103.064 251.731 102.747 251.47 102.325C251.271 102.004 251.146 101.653 251.097 101.272C251.055 100.894 251.088 100.518 251.196 100.146C251.309 99.7714 251.509 99.4354 251.796 99.1382L250.703 98.1128C250.286 98.5636 249.982 99.0699 249.793 99.6317C249.611 100.195 249.551 100.773 249.612 101.366ZM257.114 116.09C256.62 114.982 256.446 113.933 256.591 112.942C256.737 111.951 257.154 111.058 257.843 110.263C258.535 109.473 259.453 108.823 260.597 108.313C261.74 107.804 262.837 107.556 263.887 107.57C264.939 107.589 265.882 107.876 266.716 108.431C267.55 108.985 268.214 109.817 268.707 110.925C269.281 112.213 269.426 113.417 269.141 114.538C268.858 115.665 268.233 116.632 267.266 117.44L266.271 116.206C267 115.61 267.474 114.914 267.694 114.118C267.914 113.322 267.813 112.453 267.393 111.51C267.024 110.68 266.528 110.074 265.906 109.69C265.284 109.306 264.574 109.126 263.775 109.148C262.981 109.168 262.138 109.374 261.244 109.766C260.355 110.156 259.636 110.64 259.085 111.219C258.539 111.796 258.199 112.448 258.066 113.174C257.938 113.898 258.058 114.675 258.428 115.504C258.848 116.447 259.427 117.103 260.166 117.472C260.91 117.838 261.744 117.951 262.67 117.811L262.922 119.375C261.679 119.552 260.542 119.37 259.511 118.829C258.487 118.291 257.688 117.378 257.114 116.09ZM260.827 123.036C260.582 124.007 260.649 125.068 261.027 126.221C261.408 127.378 261.984 128.275 262.758 128.912C263.531 129.549 264.439 129.927 265.482 130.048C266.525 130.168 267.641 130.033 268.831 129.642C270.021 129.251 271 128.698 271.768 127.983C272.536 127.267 273.043 126.424 273.288 125.453C273.533 124.482 273.466 123.417 273.085 122.26C272.707 121.108 272.131 120.213 271.358 119.577C270.585 118.94 269.676 118.559 268.631 118.433C267.588 118.312 266.472 118.447 265.282 118.838C264.092 119.229 263.113 119.782 262.345 120.498C261.578 121.219 261.072 122.065 260.827 123.036ZM263.68 127.736C263.101 127.291 262.672 126.636 262.394 125.772C262.116 124.907 262.077 124.121 262.279 123.414C262.487 122.71 262.892 122.099 263.493 121.581C264.095 121.063 264.858 120.655 265.781 120.358C266.71 120.058 267.573 119.938 268.37 119.997C269.167 120.056 269.855 120.305 270.432 120.744C271.012 121.189 271.441 121.844 271.719 122.709C271.997 123.573 272.035 124.357 271.832 125.058C271.631 125.766 271.228 126.376 270.625 126.889C270.023 127.407 269.259 127.818 268.332 128.123C267.41 128.426 266.551 128.548 265.754 128.489C264.958 128.435 264.267 128.184 263.68 127.736ZM263.207 132.057L275.137 129.582L275.416 130.924L266.848 137.403L277.281 139.913L277.563 141.272L265.641 143.746L265.35 142.345L274.033 140.544L264.502 138.296L264.338 137.509L272.189 131.655L263.498 133.458L263.207 132.057ZM277.824 143.568L265.704 144.809L265.857 146.308L270.335 145.849L270.672 149.14C270.684 149.258 270.704 149.398 270.732 149.559C270.76 149.721 270.793 149.876 270.831 150.025C270.998 150.666 271.279 151.19 271.672 151.598C272.072 152.011 272.546 152.302 273.097 152.473C273.654 152.648 274.252 152.703 274.891 152.638C275.537 152.572 276.112 152.399 276.616 152.121C277.126 151.842 277.532 151.46 277.834 150.975C278.137 150.497 278.305 149.924 278.339 149.257C278.351 149.102 278.352 148.943 278.341 148.78C278.336 148.616 278.327 148.475 278.315 148.358L277.824 143.568ZM272.089 148.944L271.757 145.703L276.555 145.212L276.887 148.453C276.898 148.559 276.905 148.681 276.907 148.816C276.916 148.957 276.91 149.091 276.889 149.218C276.844 149.614 276.714 149.945 276.497 150.211C276.281 150.482 276.016 150.691 275.702 150.837C275.394 150.982 275.071 151.071 274.735 151.106C274.398 151.14 274.061 151.118 273.724 151.039C273.393 150.96 273.094 150.809 272.827 150.587C272.567 150.369 272.372 150.072 272.243 149.694C272.202 149.573 272.169 149.443 272.143 149.304C272.118 149.171 272.1 149.051 272.089 148.944ZM266.572 152.696L278.824 156.565L278.86 158.663L266.748 162.949L266.721 161.384L269.555 160.373L269.466 155.166L266.599 154.261L266.572 152.696ZM277.257 157.625L270.96 159.872L270.887 155.614L277.257 157.625ZM278.882 164.062L266.733 163.135L266.617 164.654L276.117 165.378L266.134 170.99L266.018 172.508L278.167 173.435L278.283 171.916L268.791 171.192L278.766 165.58L278.882 164.062ZM265.497 175.681L270.498 176.503L278.185 173.606L277.901 175.335L272.078 177.534L276.893 181.472L276.61 183.2L270.251 178.006L265.25 177.184L265.497 175.681ZM268.98 193.098L267.869 193.898L269.152 195.57L267.128 196.14L267.543 197.444L269.519 196.725L269.444 198.839L270.814 198.846L270.736 196.735L272.729 197.474L273.159 196.173L271.119 195.579L272.439 193.93L271.335 193.119L270.135 194.861L268.98 193.098Z" fill="url(#paint4_linear_40_1494)"/>
<defs>
<filter id="filter0_bi_40_1494" x="-126.218" y="-125.871" width="571.036" height="571.036" filterUnits="userSpaceOnUse" color-interpolation-filters="sRGB">
<feFlood flood-opacity="0" result="BackgroundImageFix"/>
<feGaussianBlur in="BackgroundImage" stdDeviation="92.5319"/>
<feComposite in2="SourceAlpha" operator="in" result="effect1_backgroundBlur_40_1494"/>
<feBlend mode="normal" in="SourceGraphic" in2="effect1_backgroundBlur_40_1494" result="shape"/>
<feColorMatrix in="SourceAlpha" type="matrix" values="0 0 0 0 0 0 0 0 0 0 0 0 0 0 0 0 0 0 127 0" result="hardAlpha"/>
<feOffset dx="4.04511" dy="2.02255"/>
<feGaussianBlur stdDeviation="5.05639"/>
<feComposite in2="hardAlpha" operator="arithmetic" k2="-1" k3="1"/>
<feColorMatrix type="matrix" values="0 0 0 0 0.891667 0 0 0 0 0.65498 0 0 0 0 0.430972 0 0 0 0.72 0"/>
<feBlend mode="normal" in2="shape" result="effect2_innerShadow_40_1494"/>
</filter>
<filter id="filter1_dd_40_1494" x="103.353" y="83.2339" width="125.827" height="146.264" filterUnits="userSpaceOnUse" color-interpolation-filters="sRGB">
<feFlood flood-opacity="0" result="BackgroundImageFix"/>
<feColorMatrix in="SourceAlpha" type="matrix" values="0 0 0 0 0 0 0 0 0 0 0 0 0 0 0 0 0 0 127 0" result="hardAlpha"/>
<feOffset dx="-3.28631" dy="-3.28631"/>
<feGaussianBlur stdDeviation="6.62252"/>
<feComposite in2="hardAlpha" operator="out"/>
<feColorMatrix type="matrix" values="0 0 0 0 1 0 0 0 0 0.773289 0 0 0 0 0.566667 0 0 0 0.32 0"/>
<feBlend mode="normal" in2="BackgroundImageFix" result="effect1_dropShadow_40_1494"/>
<feColorMatrix in="SourceAlpha" type="matrix" values="0 0 0 0 0 0 0 0 0 0 0 0 0 0 0 0 0 0 127 0" result="hardAlpha"/>
<feOffset dx="4.38175" dy="4.38175"/>
<feGaussianBlur stdDeviation="3.31922"/>
<feComposite in2="hardAlpha" operator="out"/>
<feColorMatrix type="matrix" values="0 0 0 0 0.0416667 0 0 0 0 0.0266165 0 0 0 0 0.0128472 0 0 0 0.5 0"/>
<feBlend mode="normal" in2="effect1_dropShadow_40_1494" result="effect2_dropShadow_40_1494"/>
<feBlend mode="normal" in="SourceGraphic" in2="effect2_dropShadow_40_1494" result="shape"/>
</filter>
<linearGradient id="paint0_linear_40_1494" x1="159.299" y1="31.7249" x2="335.868" y2="208.294" gradientUnits="userSpaceOnUse">
<stop stop-color="#EE9B4F"/>
<stop offset="1" stop-color="#EE9B4F" stop-opacity="0"/>
</linearGradient>
<linearGradient id="paint1_linear_40_1494" x1="159.3" y1="59.1929" x2="297.955" y2="197.848" gradientUnits="userSpaceOnUse">
<stop stop-color="#EE9B4F"/>
<stop offset="1" stop-color="#EE9B4F" stop-opacity="0"/>
</linearGradient>
<linearGradient id="paint2_linear_40_1494" x1="159.3" y1="59.1929" x2="297.955" y2="197.848" gradientUnits="userSpaceOnUse">
<stop stop-color="#EE9B4F"/>
<stop offset="1" stop-color="#EE9B4F" stop-opacity="0"/>
</linearGradient>
<linearGradient id="paint3_linear_40_1494" x1="119.885" y1="159.122" x2="185.952" y2="245.27" gradientUnits="userSpaceOnUse">
<stop stop-color="#EE9B4F"/>
<stop offset="1" stop-color="#EE9B4F" stop-opacity="0"/>
</linearGradient>
<linearGradient id="paint4_linear_40_1494" x1="210.531" y1="51.5792" x2="288.99" y2="271.474" gradientUnits="userSpaceOnUse">
<stop stop-color="#EE9B4F"/>
<stop offset="1" stop-color="#EE9B4F" stop-opacity="0"/>
</linearGradient>
</defs>
</svg>
