<svg width="96" height="93" viewBox="0 0 96 93" fill="none" xmlns="http://www.w3.org/2000/svg">
<path fill-rule="evenodd" clip-rule="evenodd" d="M65.5001 0.719238C63.0448 8.20473 56.0008 13.6105 47.6943 13.6105C39.4538 13.6105 32.4558 8.29039 29.9478 0.897472C15.3076 6.66197 4.10029 19.2483 0.24134 34.741C0.811047 34.6547 1.39439 34.6099 1.98819 34.6099C8.37593 34.6099 13.5542 39.7882 13.5542 46.176C13.5542 52.5637 8.37593 57.742 1.98819 57.742C1.31026 57.742 0.645944 57.6837 0 57.5718C3.61616 73.5367 15.0004 86.5533 29.9701 92.4391C32.497 85.0801 39.478 79.7912 47.6943 79.7912C55.9765 79.7912 63.0036 85.1654 65.4785 92.6168C80.8049 86.7685 92.4536 73.4729 96 57.1545C94.8528 57.5356 93.6258 57.742 92.3506 57.742C85.9629 57.742 80.7846 52.5637 80.7846 46.176C80.7846 39.7882 85.9629 34.6099 92.3506 34.6099C93.5369 34.6099 94.6815 34.7885 95.7589 35.1203C91.9505 19.2917 80.485 6.44541 65.5001 0.719238ZM77.7004 46.3562C77.7004 63.1184 64.112 76.7068 47.3499 76.7068C30.5877 76.7068 16.9993 63.1184 16.9993 46.3562C16.9993 29.5941 30.5877 16.0057 47.3499 16.0057C54.5846 16.0057 61.2281 18.537 66.4429 22.7624H61.6555L61.2358 29.8935L63.2006 30.5112C63.385 30.2991 63.6489 30.0994 63.9923 29.9123C64.342 29.7251 64.7808 29.6315 65.3086 29.6315C65.7473 29.6315 66.1511 29.7376 66.5199 29.9497C66.8887 30.1556 67.1812 30.4395 67.3974 30.8013C67.62 31.1569 67.7312 31.5531 67.7312 31.9899C67.7312 32.4266 67.6231 32.8259 67.4069 33.1878C67.1907 33.5434 66.8982 33.8273 66.5294 34.0394C66.1606 34.2515 65.7537 34.3576 65.3086 34.3576C64.9652 34.3576 64.6313 34.2858 64.3071 34.1423C63.9891 33.9988 63.7093 33.7961 63.4677 33.534C63.2324 33.272 63.0703 32.96 62.9813 32.5982L60.7684 33.1784C60.9592 33.8397 61.2708 34.42 61.7032 34.9191C62.1419 35.4182 62.6633 35.8113 63.2674 36.0983C63.8715 36.379 64.5233 36.5194 65.2227 36.5194C66.0875 36.5194 66.8823 36.3166 67.6072 35.9111C68.3385 35.5055 68.9267 34.9628 69.3718 34.2827C69.8169 33.5964 70.0395 32.8321 70.0395 31.9899C70.0395 31.1476 69.8487 30.3958 69.4672 29.7345C69.092 29.0731 68.5706 28.5522 67.9029 28.1716C67.2416 27.7848 66.4817 27.5914 65.6233 27.5914C65.1846 27.5914 64.7299 27.6693 64.2594 27.8253C63.984 27.9166 63.7282 28.0357 63.492 28.1825L63.6954 24.8774H68.7932C74.296 30.3711 77.7004 37.9661 77.7004 46.3562ZM31.8662 68.8741L31.8662 27.6856H48.1986C50.9827 27.6856 53.2614 28.2481 55.0348 29.3732C56.8272 30.4792 58.1525 31.8998 59.0106 33.635C59.8878 35.3703 60.3264 37.1628 60.3264 39.0124C60.3264 41.2816 59.7829 43.2076 58.696 44.7903C58.0267 45.7822 57.2039 46.572 56.2275 47.1594C57.8985 47.8427 59.2267 48.8741 60.2119 50.2535C61.5658 52.1222 62.2428 54.2484 62.2428 56.632C62.2428 59.0728 61.7756 61.2085 60.8412 63.0391C59.9068 64.8697 58.5148 66.2999 56.6652 67.3296C54.8345 68.3593 52.5654 68.8741 49.8576 68.8741H31.8662ZM38.8454 62.3812H48.9995C50.2008 62.3812 51.2782 62.1429 52.2317 61.6661C53.1851 61.1704 53.9288 60.4839 54.4627 59.6067C55.0157 58.7105 55.2922 57.6522 55.2922 56.4318C55.2922 55.3258 55.0538 54.3342 54.5771 53.457C54.1004 52.5799 53.4044 51.8839 52.4891 51.369C51.5738 50.8351 50.4773 50.5681 49.1997 50.5681H38.8454V62.3812ZM38.8454 44.1324H48.1128C49.1044 44.1324 49.9911 43.9417 50.7729 43.5603C51.5547 43.179 52.1745 42.6164 52.6321 41.8728C53.0898 41.1291 53.3186 40.2138 53.3186 39.1269C53.3186 37.6967 52.8609 36.5049 51.9456 35.5515C51.0303 34.598 49.7527 34.1213 48.1128 34.1213H38.8454V44.1324Z" fill="url(#paint0_linear_9_5053)"/>
<defs>
<linearGradient id="paint0_linear_9_5053" x1="48" y1="0.719238" x2="111.362" y2="66.9096" gradientUnits="userSpaceOnUse">
<stop stop-color="#EE9B4F"/>
<stop offset="1" stop-color="#EE9B4F" stop-opacity="0"/>
</linearGradient>
</defs>
</svg>
