<svg width="80" height="29" viewBox="0 0 80 29" fill="none" xmlns="http://www.w3.org/2000/svg">
<path d="M35.9419 24.9315V4.17292H44.1733C45.5764 4.17292 46.7248 4.45643 47.6186 5.02345C48.522 5.58086 49.1899 6.29684 49.6224 7.17139C50.0645 8.04594 50.2855 8.94933 50.2855 9.88154C50.2855 11.0252 50.0116 11.9958 49.4638 12.7935C48.9256 13.5912 48.1904 14.1294 47.2582 14.4081V13.6873C48.5652 13.9852 49.5551 14.6051 50.2279 15.5469C50.9102 16.4887 51.2514 17.5603 51.2514 18.7616C51.2514 19.9918 51.0159 21.0681 50.545 21.9907C50.0741 22.9133 49.3725 23.6341 48.4403 24.1531C47.5177 24.6721 46.3741 24.9315 45.0094 24.9315H35.9419ZM39.4593 21.6592H44.5769C45.1824 21.6592 45.7254 21.539 46.2059 21.2988C46.6864 21.0489 47.0612 20.7029 47.3303 20.2608C47.609 19.8092 47.7484 19.2758 47.7484 18.6607C47.7484 18.1033 47.6282 17.6036 47.388 17.1615C47.1477 16.7194 46.7969 16.3686 46.3356 16.1091C45.8743 15.84 45.3217 15.7055 44.6778 15.7055H39.4593V21.6592ZM39.4593 12.462H44.13C44.6298 12.462 45.0766 12.3658 45.4707 12.1736C45.8647 11.9814 46.177 11.6979 46.4077 11.3231C46.6383 10.9483 46.7537 10.487 46.7537 9.9392C46.7537 9.21842 46.523 8.61777 46.0617 8.13724C45.6004 7.65672 44.9565 7.41646 44.13 7.41646H39.4593V12.462Z" fill="#E9E9E9"/>
<path d="M53.1214 6.9984V3.81253H56.5955V6.9984H53.1214ZM53.1214 24.9315V9.36258H56.5955V24.9315H53.1214Z" fill="#E9E9E9"/>
<path d="M68.7415 24.9315C67.7131 25.1237 66.704 25.2054 65.7142 25.1766C64.7339 25.1574 63.8545 24.9796 63.0761 24.6432C62.2976 24.2972 61.7066 23.7543 61.3029 23.0142C60.9474 22.3415 60.76 21.6544 60.7407 20.9528C60.7215 20.2512 60.7119 19.4584 60.7119 18.5742V5.03786H64.1717V18.3724C64.1717 18.9971 64.1765 19.5449 64.1861 20.0158C64.2053 20.4867 64.3062 20.8711 64.4888 21.169C64.8348 21.7457 65.3874 22.0676 66.1466 22.1349C66.9059 22.2022 67.7708 22.1637 68.7415 22.0196V24.9315ZM57.8864 12.0871V9.36258H68.7415V12.0871H57.8864Z" fill="#E9E9E9"/>
<path d="M75.6247 17.1791C74.9894 17.1791 74.3973 17.0491 73.8486 16.7892C73.2999 16.5235 72.8262 16.1596 72.4277 15.6975C72.0349 15.2354 71.7519 14.6983 71.5786 14.086L73.5887 13.5488C73.6695 13.8838 73.8168 14.1726 74.0305 14.4152C74.25 14.6578 74.5042 14.8455 74.793 14.9784C75.0876 15.1112 75.3908 15.1777 75.7027 15.1777C76.107 15.1777 76.4767 15.0795 76.8117 14.8831C77.1467 14.6867 77.4124 14.4239 77.6088 14.0947C77.8052 13.7597 77.9034 13.39 77.9034 12.9857C77.9034 12.5813 77.8023 12.2146 77.6001 11.8853C77.4037 11.5503 77.138 11.2875 76.803 11.0969C76.468 10.9005 76.1013 10.8023 75.7027 10.8023C75.2233 10.8023 74.8247 10.889 74.5071 11.0622C74.1952 11.2355 73.9555 11.4204 73.7879 11.6167L72.0032 11.0449L72.3844 4.4429H79.1597V6.40098H73.502L74.2818 5.66453L74.0045 10.2565L73.6233 9.78862C73.9468 9.49405 74.3222 9.27456 74.7497 9.13016C75.1771 8.98575 75.5901 8.91355 75.9886 8.91355C76.7684 8.91355 77.4586 9.09261 78.0593 9.45073C78.6658 9.80306 79.1394 10.2854 79.4802 10.8976C79.8268 11.5099 80.0001 12.2059 80.0001 12.9857C80.0001 13.7654 79.7979 14.473 79.3936 15.1084C78.9893 15.7379 78.455 16.2405 77.7907 16.6159C77.1323 16.9913 76.4103 17.1791 75.6247 17.1791Z" fill="#EE9B4F"/>
<path fill-rule="evenodd" clip-rule="evenodd" d="M19.4878 0.854431C18.7573 3.08153 16.6616 4.68988 14.1902 4.68988C11.7384 4.68988 9.65638 3.10699 8.91021 0.907398C4.55437 2.62246 1.21991 6.36721 0.0717849 10.9767C0.241294 10.951 0.414861 10.9377 0.591538 10.9377C2.49203 10.9377 4.03269 12.4783 4.03269 14.3788C4.03269 16.2793 2.49203 17.82 0.591538 17.82C0.389835 17.82 0.192185 17.8026 0 17.7693C1.07591 22.5193 4.46302 26.392 8.91685 28.1432C9.66867 25.9537 11.7457 24.3801 14.1902 24.3801C16.6543 24.3801 18.745 25.979 19.4814 28.196C24.0413 26.456 27.507 22.5003 28.5621 17.6452C28.2208 17.7586 27.8558 17.82 27.4764 17.82C25.576 17.82 24.0353 16.2793 24.0353 14.3788C24.0353 12.4783 25.576 10.9377 27.4764 10.9377C27.8294 10.9377 28.1699 10.9908 28.4904 11.0895C27.3574 6.38017 23.9461 2.55811 19.4878 0.854431ZM23.1177 14.4325C23.1177 19.4196 19.0748 23.4625 14.0877 23.4625C9.10059 23.4625 5.05773 19.4196 5.05773 14.4325C5.05773 9.44536 9.10059 5.4025 14.0877 5.4025C16.2402 5.4025 18.2168 6.15564 19.7683 7.41277H18.3439L18.219 9.53446L18.8036 9.71823C18.8585 9.65512 18.937 9.59572 19.0392 9.54003C19.1432 9.48435 19.2737 9.4565 19.4308 9.4565C19.5613 9.4565 19.6814 9.48806 19.7912 9.55117C19.9009 9.61243 19.9879 9.69689 20.0523 9.80455C20.1185 9.91035 20.1516 10.0282 20.1516 10.1582C20.1516 10.2881 20.1194 10.4069 20.0551 10.5146C19.9908 10.6204 19.9037 10.7048 19.794 10.7679C19.6843 10.8311 19.5632 10.8626 19.4308 10.8626C19.3286 10.8626 19.2293 10.8413 19.1328 10.7986C19.0382 10.7559 18.955 10.6955 18.8831 10.6176C18.8131 10.5396 18.7648 10.4468 18.7383 10.3391L18.08 10.5118C18.1367 10.7085 18.2294 10.8812 18.3581 11.0297C18.4886 11.1782 18.6438 11.2951 18.8235 11.3805C19.0032 11.464 19.1971 11.5058 19.4052 11.5058C19.6625 11.5058 19.899 11.4455 20.1147 11.3248C20.3322 11.2042 20.5072 11.0427 20.6397 10.8403C20.7721 10.6361 20.8383 10.4088 20.8383 10.1582C20.8383 9.90757 20.7816 9.68389 20.6681 9.48713C20.5564 9.29037 20.4013 9.13537 20.2027 9.02214C20.0059 8.90705 19.7798 8.84951 19.5244 8.84951C19.3939 8.84951 19.2586 8.87271 19.1186 8.91912C19.0367 8.94628 18.9606 8.98171 18.8903 9.0254L18.9508 8.04204H20.4676C22.1048 9.67656 23.1177 11.9362 23.1177 14.4325ZM9.48096 21.1321L9.48096 8.87756H14.3402C15.1685 8.87756 15.8465 9.04492 16.3741 9.37965C16.9074 9.70871 17.3017 10.1314 17.557 10.6477C17.818 11.1639 17.9485 11.6972 17.9485 12.2476C17.9485 12.9227 17.7868 13.4957 17.4634 13.9666C17.2643 14.2617 17.0195 14.4967 16.729 14.6715C17.2261 14.8748 17.6213 15.1816 17.9145 15.592C18.3173 16.148 18.5187 16.7806 18.5187 17.4898C18.5187 18.216 18.3797 18.8514 18.1017 19.396C17.8237 19.9407 17.4095 20.3662 16.8592 20.6725C16.3146 20.9789 15.6394 21.1321 14.8338 21.1321H9.48096ZM11.5574 19.2003H14.5785C14.9359 19.2003 15.2565 19.1294 15.5401 18.9875C15.8238 18.84 16.0451 18.6358 16.2039 18.3748C16.3685 18.1082 16.4507 17.7933 16.4507 17.4302C16.4507 17.1011 16.3798 16.8061 16.238 16.5451C16.0961 16.2842 15.8891 16.0771 15.6167 15.9239C15.3444 15.7651 15.0182 15.6856 14.6381 15.6856H11.5574V19.2003ZM11.5574 13.7709H14.3147C14.6097 13.7709 14.8735 13.7141 15.1061 13.6007C15.3387 13.4872 15.5231 13.3198 15.6593 13.0986C15.7954 12.8773 15.8635 12.605 15.8635 12.2816C15.8635 11.8561 15.7274 11.5015 15.455 11.2178C15.1827 10.9342 14.8026 10.7923 14.3147 10.7923H11.5574V13.7709Z" fill="url(#paint0_linear_9_5300)"/>
<defs>
<linearGradient id="paint0_linear_9_5300" x1="14.2811" y1="0.854431" x2="33.1326" y2="20.5476" gradientUnits="userSpaceOnUse">
<stop stop-color="#EE9B4F"/>
<stop offset="1" stop-color="#EE9B4F" stop-opacity="0"/>
</linearGradient>
</defs>
</svg>
