<svg width="29" height="28" viewBox="0 0 29 28" fill="none" xmlns="http://www.w3.org/2000/svg">
    <g clip-path="url(#clip0_580_7179)">
    <path fill-rule="evenodd" clip-rule="evenodd" d="M5.74278 4.50969C5.31139 2.26647 7.03694 0.195801 9.28016 0.195801C11.2646 0.195801 12.9038 1.83508 12.9038 3.81946V8.3059C13.4215 8.3059 13.9392 8.21963 14.4568 8.21963C14.9745 8.21963 15.4059 8.21962 15.9235 8.3059V3.81946C15.9235 1.83508 17.5628 0.195801 19.5472 0.195801C21.7904 0.195801 23.516 2.26647 23.1709 4.50969L22.2218 9.77262C25.5866 11.2393 28.175 13.8277 28.175 17.0199V19.0043C28.175 21.6789 26.4494 23.9222 23.9474 25.3889C21.4453 26.9419 18.1668 27.8047 14.4568 27.8047C10.7469 27.8047 7.46833 26.9419 4.96628 25.3889C2.55051 23.9222 0.824951 21.6789 0.824951 19.0043V17.0199C0.824951 13.8277 3.327 11.2393 6.69183 9.77262L5.74278 4.50969ZM20.9277 10.4628L22.0493 4.25085C22.3081 2.69785 21.1865 1.23113 19.5472 1.23113C18.1668 1.23113 17.0452 2.35274 17.0452 3.73319V9.42751C16.7 9.34124 16.2687 9.34124 15.9235 9.34124C15.4059 9.34124 14.9745 9.25496 14.4568 9.25496C13.9392 9.25496 13.4215 9.25496 12.9038 9.34124C12.5587 9.34124 12.1273 9.42751 11.7822 9.42751V3.81946C11.7822 2.43902 10.6606 1.31741 9.28016 1.31741C7.72717 1.31741 6.51928 2.78413 6.86439 4.33713L7.986 10.5491C4.36234 11.9296 1.94656 14.3453 1.94656 17.1062V19.0906C1.94656 23.3182 7.55461 26.7693 14.4568 26.7693C21.359 26.7693 26.9671 23.3182 26.9671 19.0906V17.1062C27.0534 14.2591 24.6376 11.8433 20.9277 10.4628Z" fill="#633001"/>
    <path d="M27.0534 19.0039C27.0534 23.2315 21.4453 26.6826 14.5431 26.6826C7.64089 26.6826 2.03284 23.2315 2.03284 19.0039V17.0195H27.1396V19.0039H27.0534Z" fill="#FEDC90"/>
    <path fill-rule="evenodd" clip-rule="evenodd" d="M6.86439 4.33661C6.51928 2.78362 7.72716 1.31689 9.28016 1.31689C10.6606 1.31689 11.7822 2.4385 11.7822 3.81895V9.51327C12.645 9.427 13.5078 9.34072 14.4568 9.34072C15.3196 9.34072 16.1824 9.427 17.0452 9.51327V3.81895C17.0452 2.4385 18.1668 1.31689 19.5472 1.31689C21.1002 1.31689 22.3081 2.78362 22.0493 4.33661L20.9276 10.5486C24.5513 11.929 27.0534 14.3448 27.0534 17.1057C27.0534 21.3333 21.4453 24.7844 14.5431 24.7844C7.64089 24.7844 2.03284 21.3333 2.03284 17.1057C2.03284 14.3448 4.44861 11.929 8.07227 10.5486L6.86439 4.33661Z" fill="#D1884F"/>
    <path d="M11.0056 16.5018C11.0056 17.6234 10.4017 18.5725 9.62519 18.5725C8.84869 18.5725 8.24475 17.6234 8.24475 16.5018C8.24475 15.3802 8.84869 14.4312 9.62519 14.4312C10.4017 14.4312 11.0056 15.3802 11.0056 16.5018Z" fill="#633001"/>
    <path d="M20.5825 16.5018C20.5825 17.6234 19.9786 18.5725 19.2021 18.5725C18.4256 18.5725 17.8217 17.6234 17.8217 16.5018C17.8217 15.3802 18.4256 14.4312 19.2021 14.4312C19.9786 14.4312 20.5825 15.3802 20.5825 16.5018Z" fill="#633001"/>
    </g>
    <defs>
    <clipPath id="clip0_580_7179">
    <rect width="27.35" height="27.6089" fill="white" transform="translate(0.824951 0.195801)"/>
    </clipPath>
    </defs>
</svg>