<svg width="263" height="262" viewBox="0 0 263 262" fill="none" xmlns="http://www.w3.org/2000/svg">
<circle cx="131.156" cy="130.894" r="125.775" stroke="url(#paint0_linear_9_2697)" stroke-width="10.2375" stroke-dasharray="2.96 2.96"/>
<g filter="url(#filter0_bi_9_2697)">
<circle cx="131.157" cy="130.894" r="119.194" fill="url(#paint1_linear_9_2697)" fill-opacity="0.15"/>
</g>
<g filter="url(#filter1_dd_9_2697)">
<path fill-rule="evenodd" clip-rule="evenodd" d="M93.4648 82.5513L93.4648 190.287L140.524 190.287C147.607 190.287 153.542 188.94 158.331 186.247C163.169 183.553 166.81 179.812 169.254 175.024C171.698 170.236 172.92 164.65 172.92 158.265C172.92 152.031 171.149 146.469 167.608 141.581C165.031 137.973 161.557 135.276 157.186 133.488C159.74 131.952 161.892 129.886 163.643 127.291C166.486 123.152 167.907 118.114 167.907 112.179C167.907 107.34 166.76 102.652 164.466 98.1131C162.221 93.5742 158.755 89.8583 154.066 86.9654C149.427 84.0227 143.467 82.5513 136.185 82.5513L93.4648 82.5513ZM138.28 173.303L111.72 173.303L111.72 142.404L138.804 142.404C142.145 142.404 145.013 143.103 147.407 144.499C149.802 145.846 151.622 147.666 152.869 149.961C154.116 152.255 154.739 154.849 154.739 157.742C154.739 160.934 154.016 163.702 152.57 166.046C151.173 168.341 149.228 170.136 146.734 171.433C144.24 172.68 141.422 173.303 138.28 173.303ZM135.96 125.571L111.72 125.571L111.72 99.3849L135.96 99.3849C140.25 99.3849 143.592 100.632 145.986 103.126C148.38 105.62 149.577 108.737 149.577 112.478C149.577 115.321 148.979 117.715 147.781 119.66C146.584 121.605 144.963 123.077 142.918 124.074C140.873 125.072 138.554 125.571 135.96 125.571ZM175.6 104.556C177.18 105.29 178.885 105.657 180.714 105.657C182.976 105.657 185.055 105.127 186.951 104.066C188.864 103.006 190.402 101.586 191.567 99.8071C192.731 98.012 193.313 96.0129 193.313 93.8098C193.313 91.6067 192.814 89.6402 191.816 87.9104C190.835 86.1806 189.471 84.8179 187.725 83.8224C185.995 82.8106 184.007 82.3048 181.762 82.3048C180.614 82.3048 179.425 82.5087 178.194 82.9167C177.474 83.1555 176.805 83.467 176.187 83.8511L176.719 75.2059L190.893 75.2059L190.893 69.6737L171.383 69.6737L170.286 88.3265L175.425 89.9421C175.907 89.3873 176.598 88.8651 177.496 88.3755C178.41 87.8859 179.558 87.6411 180.939 87.6411C182.086 87.6411 183.142 87.9185 184.107 88.4734C185.072 89.0119 185.837 89.7545 186.402 90.701C186.984 91.6312 187.276 92.6674 187.276 93.8098C187.276 94.9521 186.993 95.9965 186.427 96.9431C185.862 97.8732 185.097 98.6158 184.132 99.1706C183.167 99.7255 182.103 100.003 180.939 100.003C180.04 100.003 179.167 99.8152 178.319 99.4399C177.487 99.0645 176.756 98.5342 176.124 97.8488C175.508 97.1634 175.084 96.3474 174.851 95.4009L169.063 96.9186C169.562 98.6484 170.377 100.166 171.508 101.472C172.656 102.777 174.02 103.805 175.6 104.556Z" fill="url(#paint2_linear_9_2697)"/>
</g>
<path fill-rule="evenodd" clip-rule="evenodd" d="M133.374 29.8635L133.552 25.2603L130.074 18.6534L131.665 18.7149L134.304 23.7193L137.314 18.933L138.904 18.9944L134.935 25.3137L134.758 29.9169L133.374 29.8635ZM120.667 30.2244L119.375 30.4098L118.141 27.9686L113.456 28.6409L112.965 31.3295L111.557 31.5316L113.653 20.043L115.541 19.7721L120.46 29.5628L119.898 19.1754L121.28 19.1007L127.514 27.4281L127.047 18.7888L128.43 18.7141L129.028 29.7723L127.645 29.8471L121.41 21.512L121.878 30.1589L120.667 30.2244ZM114.788 21.3355L117.529 26.7589L113.699 27.3086L114.788 21.3355ZM101.332 22.5843L103.861 33.366L105.194 33.0533L104.259 29.0701L107.187 28.3833C107.292 28.3587 107.415 28.3244 107.558 28.2805C107.7 28.2366 107.836 28.1888 107.966 28.1372C108.524 27.9115 108.964 27.5977 109.286 27.1957C109.611 26.7876 109.819 26.3255 109.909 25.8094C110.002 25.2872 109.982 24.7416 109.848 24.1726C109.714 23.5985 109.492 23.1003 109.182 22.678C108.871 22.2506 108.48 21.9291 108.008 21.7133C107.541 21.4963 107.005 21.4114 106.4 21.4586C106.259 21.4652 106.116 21.483 105.97 21.512C105.823 21.536 105.697 21.5603 105.592 21.5849L101.332 22.5843ZM106.845 27.1285L103.962 27.8048L102.961 23.537L105.844 22.8608C105.939 22.8385 106.047 22.8183 106.169 22.8002C106.295 22.7759 106.417 22.7659 106.533 22.7701C106.895 22.7641 107.209 22.8433 107.474 23.0076C107.744 23.1707 107.963 23.3853 108.131 23.6514C108.297 23.9125 108.415 24.1928 108.486 24.4923C108.556 24.7917 108.575 25.098 108.543 25.4109C108.51 25.7188 108.409 26.0059 108.24 26.272C108.074 26.532 107.829 26.7424 107.503 26.903C107.399 26.9537 107.286 26.9987 107.163 27.038C107.046 27.0761 106.94 27.1062 106.845 27.1285ZM92.6142 37.1145L88.9978 26.6472L90.1753 26.2404L97.0102 33.2116L98.0621 23.5155L99.2542 23.1036L102.868 33.5636L101.64 33.9881L99.0077 26.3702L98.0877 35.2234L97.3971 35.462L91.2082 29.0649L93.8426 36.6901L92.6142 37.1145ZM84.1604 40.5874C85.0646 40.6927 86.0133 40.5064 87.0066 40.0284C88.0044 39.5481 88.7443 38.9218 89.226 38.1494C89.7078 37.377 89.9409 36.5137 89.9255 35.5595C89.9101 34.6053 89.6556 33.6155 89.162 32.5898C88.6684 31.5642 88.0536 30.7478 87.3174 30.1405C86.5813 29.5331 85.7612 29.1768 84.857 29.0714C83.9528 28.966 83.0017 29.1535 82.0039 29.6337C81.0106 30.1118 80.2731 30.737 79.7913 31.5094C79.3096 32.2818 79.0741 33.1462 79.0849 34.1026C79.1003 35.0568 79.3548 36.0467 79.8484 37.0723C80.342 38.0979 80.9569 38.9143 81.693 39.5217C82.4337 40.1268 83.2562 40.482 84.1604 40.5874ZM88.0566 37.4576C87.7246 38.0327 87.1856 38.497 86.4396 38.8503C85.6936 39.2037 84.9899 39.3318 84.3287 39.2347C83.6698 39.1307 83.0711 38.8385 82.5326 38.358C81.9941 37.8774 81.5359 37.2388 81.1581 36.4419C80.7781 35.6405 80.5672 34.8771 80.5254 34.1519C80.4836 33.4266 80.6264 32.7775 80.9538 32.2046C81.2858 31.6294 81.8248 31.1652 82.5708 30.8118C83.3168 30.4585 84.0182 30.3314 84.6748 30.4308C85.3361 30.5279 85.9336 30.8178 86.4675 31.3006C87.006 31.7811 87.4676 32.421 87.8523 33.2202C88.2347 34.0148 88.4468 34.7747 88.4886 35.5C88.535 36.223 88.391 36.8756 88.0566 37.4576ZM77.9723 44.9886C77.0337 45.5666 76.1092 45.8499 75.199 45.8384C74.2888 45.827 73.434 45.5585 72.6348 45.0331C71.8399 44.505 71.1441 43.7564 70.5472 42.7872C69.9504 41.8181 69.5951 40.8597 69.4812 39.9123C69.3718 38.9621 69.5168 38.078 69.9162 37.26C70.3156 36.442 70.9847 35.744 71.9233 35.1659C73.0147 34.4938 74.0825 34.2186 75.1268 34.3402C76.1755 34.4591 77.122 34.9058 77.9663 35.6804L76.9746 36.7247C76.3497 36.1401 75.6655 35.7967 74.9222 35.6945C74.1789 35.5923 73.4077 35.7872 72.6088 36.2792C71.906 36.712 71.4191 37.2316 71.1482 37.838C70.8774 38.4443 70.8002 39.106 70.9166 39.8231C71.0303 40.5358 71.3176 41.2712 71.7783 42.0291C72.2364 42.7827 72.7594 43.3728 73.3473 43.7995C73.9325 44.2219 74.5604 44.4494 75.2308 44.4821C75.8986 44.5105 76.5839 44.3082 77.2867 43.8754C78.0856 43.3834 78.6067 42.7825 78.85 42.0727C79.0906 41.3585 79.0919 40.5931 78.8538 39.7763L80.2327 39.3607C80.5417 40.4589 80.5147 41.5052 80.1516 42.4995C79.7901 43.4868 79.0637 44.3165 77.9723 44.9886ZM65.3043 53.7668C65.8344 53.6369 66.3194 53.3914 66.7593 53.0303C67.2904 52.5945 67.6721 52.0656 67.9046 51.4437C68.1378 50.8146 68.2118 50.1735 68.1268 49.5203C68.0385 48.8632 67.7781 48.2711 67.3455 47.7439C66.9096 47.2129 66.3948 46.8361 65.8011 46.6137C65.2041 46.3874 64.5947 46.3237 63.9729 46.4228C63.3479 46.5179 62.7699 46.7833 62.2388 47.2192C61.894 47.5021 61.6121 47.8496 61.393 48.2615C61.2529 48.5277 61.1522 48.8023 61.0907 49.0855L59.1186 46.3575L62.7601 43.369L61.9355 42.3643L57.3402 46.1357L60.7524 50.8268L61.9844 50.4126C61.9536 50.0599 62.0075 49.6972 62.1462 49.3248C62.2856 48.945 62.5435 48.6007 62.92 48.2917C63.253 48.0185 63.6268 47.8477 64.0415 47.7792C64.4563 47.7108 64.8623 47.7489 65.2597 47.8937C65.6578 48.0313 65.9984 48.2725 66.2813 48.6173C66.5546 48.9502 66.7254 49.324 66.7938 49.7387C66.859 50.1495 66.8209 50.5556 66.6793 50.957C66.5385 51.3511 66.2937 51.6913 65.945 51.9775C65.6794 52.1954 65.3783 52.3497 65.0415 52.4404C64.7054 52.5239 64.3632 52.5394 64.0151 52.4869C63.6636 52.4304 63.3368 52.2907 63.0345 52.0679L62.2423 53.1757C62.6988 53.4975 63.1915 53.7099 63.7205 53.813C64.2502 53.9089 64.7781 53.8935 65.3043 53.7668ZM60.0483 58.7779L53.2377 51.7665L50.5291 54.3974L49.6235 53.4652L56.0227 47.2494L56.9282 48.1817L54.2196 50.8127L61.0302 57.8241L60.0483 58.7779ZM47.2289 56.1989L55.4478 63.6213L56.3653 62.6054L48.1464 55.183L47.2289 56.1989ZM49.3204 71.1064L40.6334 64.2378L43.3092 60.8535C43.7194 60.3347 44.1758 59.9765 44.6783 59.7791C45.184 59.5776 45.6881 59.5187 46.1907 59.6023C46.6924 59.6787 47.1443 59.8759 47.5465 60.1939C48.017 60.5659 48.3339 61.0125 48.497 61.5336C48.607 61.8851 48.6363 62.2352 48.585 62.5839C49.0417 62.3321 49.5133 62.2082 49.9998 62.2121C50.6428 62.2172 51.2398 62.4376 51.7908 62.8732C52.2976 63.2739 52.6533 63.7251 52.8579 64.2267C53.0657 64.7244 53.118 65.2494 53.0147 65.8017C52.9145 66.3499 52.6545 66.8895 52.2348 67.4204L49.3204 71.1064ZM49.1535 69.2096L51.0471 66.8146C51.3015 66.4929 51.4705 66.1592 51.5542 65.8136C51.6339 65.4648 51.6224 65.1322 51.5197 64.8157C51.4202 64.4952 51.2176 64.2141 50.9119 63.9724C50.6183 63.7403 50.3024 63.5984 49.9642 63.5467C49.6292 63.4909 49.2995 63.5276 48.9752 63.6568C48.65 63.7788 48.3649 63.9946 48.1201 64.3043L46.1311 66.8199L49.1535 69.2096ZM45.1176 66.0186L46.9253 63.7322C47.1289 63.4748 47.2574 63.2006 47.311 62.9097C47.3637 62.6115 47.3373 62.3226 47.2316 62.0429C47.129 61.7593 46.9431 61.5109 46.6736 61.2978C46.2996 61.0021 45.8937 60.8871 45.4561 60.9529C45.0185 61.0187 44.6375 61.2566 44.3132 61.6669L42.5054 63.9533L45.1176 66.0186ZM35.7696 80.4864L36.8979 79.9613L36.037 78.2502L37.9412 78.0864L37.7926 76.8508L35.9063 77.1565L36.3334 75.2819L35.1115 75.042L34.8211 76.9399L33.168 75.9408L32.5622 77.0295L34.2826 77.9076L32.8229 79.1548L33.6709 80.0667L35.0387 78.7156L35.7696 80.4864ZM35.7627 96.9632L31.4377 95.3773L24.0812 96.6525L24.6292 95.1579L30.203 94.1873L26.5752 89.8509L27.1233 88.3563L31.9142 94.0776L36.2393 95.6635L35.7627 96.9632ZM21.7583 105.28L32.4472 108.177L32.8093 106.841L24.4512 104.576L34.3199 101.266L34.682 99.9303L23.9932 97.0337L23.6311 98.3698L31.9818 100.633L22.1204 103.944L21.7583 105.28ZM30.7234 117.988L20.4321 112.468L20.7536 110.588L32.2943 108.801L32.0545 110.203L29.3524 110.629L28.5547 115.294L30.9632 116.586L30.7234 117.988ZM22.0104 111.785L28.0134 110.839L27.3611 114.654L22.0104 111.785ZM19.095 124.492L30.1296 125.43L30.2456 124.066L26.1689 123.72L26.4238 120.723C26.4329 120.616 26.4387 120.488 26.441 120.339C26.4434 120.19 26.4403 120.046 26.4316 119.906C26.39 119.306 26.228 118.79 25.9456 118.36C25.6585 117.923 25.2836 117.583 24.8208 117.338C24.3533 117.087 23.8283 116.937 23.2459 116.887C22.6584 116.837 22.1159 116.894 21.6183 117.058C21.1156 117.221 20.6885 117.493 20.337 117.875C19.986 118.251 19.7391 118.735 19.5963 119.325C19.559 119.46 19.5315 119.602 19.5138 119.75C19.491 119.897 19.475 120.024 19.4659 120.132L19.095 124.492ZM25.1248 120.659L24.8739 123.609L20.5061 123.238L20.757 120.288C20.7652 120.191 20.7797 120.081 20.8003 119.96C20.8163 119.832 20.8444 119.714 20.8846 119.604C20.9912 119.258 21.1637 118.984 21.4021 118.784C21.6408 118.577 21.9127 118.436 22.2177 118.359C22.5176 118.282 22.8208 118.256 23.1273 118.282C23.4338 118.308 23.7309 118.385 24.0185 118.512C24.301 118.639 24.5425 118.824 24.7431 119.068C24.939 119.306 25.0628 119.604 25.1145 119.964C25.1305 120.078 25.1382 120.2 25.1375 120.328C25.1373 120.452 25.1331 120.562 25.1248 120.659ZM30.1987 137.816L19.1264 138.03L19.1024 136.784L27.8411 132.431L18.9413 128.441L18.917 127.18L29.9816 126.967L30.0067 128.266L21.9485 128.422L30.087 132.026L30.1011 132.756L22.1078 136.672L30.1737 136.516L30.1987 137.816ZM242.358 131.542L231.294 131.072L231.094 135.766C231.065 136.442 231.171 137.032 231.412 137.535C231.652 138.043 232.002 138.437 232.462 138.719C232.922 139.005 233.475 139.162 234.12 139.189C234.822 139.219 235.435 139.048 235.959 138.675C236.355 138.393 236.664 138.016 236.887 137.544C237.049 137.857 237.279 138.123 237.574 138.343C238.011 138.67 238.53 138.846 239.129 138.871C239.642 138.893 240.123 138.788 240.574 138.555C241.031 138.328 241.404 137.985 241.696 137.525C241.987 137.071 242.147 136.513 242.175 135.852L242.358 131.542ZM232.411 135.561L232.541 132.51L236.391 132.674L236.254 135.878C236.238 136.272 236.133 136.614 235.941 136.904C235.754 137.198 235.509 137.422 235.205 137.573C234.901 137.729 234.561 137.8 234.188 137.784C233.798 137.767 233.469 137.658 233.201 137.457C232.932 137.261 232.728 136.998 232.588 136.669C232.453 136.34 232.394 135.97 232.411 135.561ZM237.558 135.641L237.681 132.729L241.008 132.87L240.885 135.782C240.862 136.304 240.693 136.721 240.377 137.03C240.062 137.34 239.665 137.485 239.189 137.465C238.846 137.45 238.55 137.358 238.3 137.189C238.051 137.024 237.86 136.806 237.728 136.533C237.6 136.266 237.544 135.968 237.558 135.641ZM241.763 141.482L230.748 140.331L230.606 141.692L241.62 142.843L241.763 141.482ZM229.894 146.85L239.529 148.497L240.165 144.775L241.446 144.994L239.943 153.788L238.662 153.569L239.298 149.847L229.663 148.199L229.894 146.85ZM228.471 154.48C228.118 154.896 227.869 155.379 227.725 155.93C227.55 156.594 227.551 157.246 227.727 157.886C227.907 158.533 228.223 159.096 228.675 159.575C229.132 160.055 229.69 160.382 230.349 160.556C231.014 160.73 231.652 160.734 232.263 160.566C232.879 160.399 233.41 160.093 233.856 159.649C234.307 159.205 234.619 158.651 234.794 157.987C234.907 157.555 234.932 157.108 234.868 156.646C234.825 156.349 234.746 156.067 234.63 155.802L237.827 156.855L236.629 161.411L237.886 161.742L239.397 155.992L233.883 154.193L233.127 155.251C233.359 155.518 233.528 155.844 233.634 156.227C233.744 156.616 233.737 157.046 233.613 157.517C233.504 157.934 233.301 158.291 233.005 158.59C232.709 158.889 232.358 159.096 231.951 159.211C231.548 159.333 231.131 159.338 230.699 159.224C230.283 159.115 229.925 158.912 229.627 158.616C229.333 158.322 229.126 157.97 229.005 157.562C228.888 157.16 228.887 156.741 229.002 156.305C229.089 155.973 229.242 155.671 229.462 155.4C229.685 155.136 229.953 154.922 230.266 154.761C230.584 154.6 230.931 154.522 231.306 154.525L231.298 153.163C230.74 153.17 230.216 153.287 229.727 153.514C229.242 153.747 228.823 154.069 228.471 154.48ZM223.34 168.929C223.762 167.911 224.345 167.14 225.089 166.616C225.833 166.091 226.683 165.808 227.639 165.765C228.592 165.728 229.595 165.926 230.646 166.362C231.698 166.797 232.548 167.366 233.195 168.067C233.841 168.773 234.241 169.574 234.397 170.471C234.553 171.368 234.42 172.325 233.998 173.344C233.507 174.528 232.803 175.377 231.886 175.89C230.967 176.408 229.938 176.601 228.8 176.468L228.991 175.041C229.84 175.148 230.596 175.026 231.258 174.673C231.92 174.32 232.431 173.71 232.79 172.843C233.106 172.081 233.196 171.374 233.06 170.724C232.924 170.074 232.599 169.493 232.084 168.98C231.574 168.469 230.911 168.042 230.093 167.698C229.28 167.355 228.511 167.184 227.784 167.183C227.063 167.183 226.421 167.367 225.858 167.733C225.301 168.102 224.864 168.667 224.548 169.43C224.189 170.297 224.119 171.089 224.338 171.807C224.561 172.526 225.009 173.147 225.68 173.67L224.807 174.814C223.913 174.106 223.321 173.242 223.033 172.223C222.747 171.212 222.85 170.114 223.34 168.929ZM220.881 176.097C220.086 176.541 219.426 177.248 218.901 178.217C218.373 179.191 218.14 180.132 218.202 181.04C218.264 181.948 218.58 182.784 219.151 183.549C219.723 184.313 220.508 184.967 221.509 185.509C222.51 186.051 223.486 186.353 224.439 186.415C225.391 186.476 226.264 186.285 227.059 185.841C227.854 185.397 228.515 184.688 229.043 183.714C229.568 182.745 229.8 181.806 229.738 180.898C229.676 179.99 229.361 179.151 228.792 178.382C228.221 177.618 227.435 176.964 226.435 176.422C225.434 175.88 224.457 175.578 223.505 175.516C222.55 175.46 221.676 175.653 220.881 176.097ZM219.555 180.916C219.487 180.255 219.653 179.563 220.05 178.84C220.448 178.117 220.944 177.601 221.537 177.292C222.132 176.991 222.788 176.877 223.506 176.951C224.224 177.026 224.969 177.275 225.742 177.7C226.519 178.127 227.137 178.622 227.596 179.186C228.054 179.749 228.319 180.359 228.389 181.015C228.456 181.676 228.291 182.368 227.893 183.091C227.495 183.814 227.001 184.328 226.411 184.632C225.818 184.94 225.164 185.055 224.448 184.977C223.73 184.902 222.982 184.654 222.202 184.231C221.426 183.811 220.81 183.319 220.351 182.756C219.89 182.197 219.625 181.583 219.555 180.916ZM216.191 183.612L225.264 189.962L224.55 190.983L214.924 189.353L219.765 197.819L219.042 198.853L209.975 192.507L210.721 191.442L217.324 196.064L212.871 188.357L213.289 187.758L222.055 189.303L215.446 184.677L216.191 183.612ZM217.498 200.677L209.119 193.436L208.224 194.472L211.32 197.147L209.354 199.422C209.283 199.504 209.203 199.604 209.114 199.723C209.024 199.842 208.942 199.961 208.867 200.079C208.548 200.59 208.376 201.102 208.352 201.616C208.328 202.138 208.432 202.634 208.662 203.104C208.893 203.581 209.23 204.011 209.672 204.393C210.118 204.779 210.59 205.052 211.089 205.212C211.592 205.375 212.097 205.405 212.606 205.303C213.112 205.204 213.595 204.958 214.057 204.565C214.167 204.477 214.273 204.378 214.374 204.269C214.479 204.163 214.566 204.07 214.637 203.988L217.498 200.677ZM210.367 200.237L212.303 197.997L215.62 200.863L213.684 203.104C213.62 203.177 213.544 203.257 213.456 203.344C213.368 203.437 213.276 203.517 213.179 203.582C212.889 203.799 212.589 203.919 212.278 203.942C211.964 203.968 211.661 203.923 211.369 203.806C211.08 203.693 210.82 203.536 210.587 203.334C210.354 203.133 210.159 202.897 210.001 202.625C209.847 202.356 209.76 202.064 209.741 201.749C209.722 201.442 209.798 201.127 209.967 200.806C210.021 200.704 210.086 200.601 210.162 200.497C210.235 200.398 210.303 200.311 210.367 200.237ZM204.136 199.224L209.232 209.732L207.868 211.066L197.474 205.743L198.491 204.748L200.929 205.988L204.312 202.678L203.119 200.219L204.136 199.224ZM204.903 203.896L202.137 206.603L207.553 209.359L204.903 203.896ZM204.11 214.604L197.147 205.992L196.07 206.863L201.515 213.596L191.579 210.494L190.503 211.364L197.466 219.976L198.542 219.106L193.102 212.378L203.033 215.474L204.11 214.604ZM187.878 213.139L190.464 216.951L197.181 220.21L195.864 221.104L190.772 218.638L191.186 224.277L189.868 225.17L189.318 217.728L186.733 213.916L187.878 213.139ZM178.021 226.594L176.799 226.359L176.494 228.25L174.855 227.267L174.252 228.356L175.96 229.213L174.516 230.482L175.366 231.392L176.713 230.024L177.468 231.802L178.596 231.274L177.716 229.555L179.629 229.399L179.476 228.163L177.576 228.457L178.021 226.594ZM161.402 226.262L164.42 236.917L160.269 238.093C159.632 238.273 159.053 238.296 158.53 238.162C158.002 238.029 157.559 237.781 157.2 237.419C156.838 237.064 156.588 236.639 156.448 236.146C156.284 235.569 156.289 235.021 156.462 234.503C156.579 234.154 156.76 233.853 157.006 233.6C156.488 233.537 156.034 233.361 155.642 233.073C155.123 232.692 154.769 232.164 154.577 231.488C154.401 230.867 154.377 230.292 154.505 229.766C154.628 229.241 154.893 228.785 155.3 228.398C155.703 228.012 156.23 227.727 156.881 227.542L161.402 226.262ZM160.426 227.897L157.489 228.729C157.094 228.841 156.761 229.012 156.491 229.243C156.222 229.479 156.037 229.756 155.935 230.072C155.828 230.391 155.827 230.737 155.933 231.112C156.035 231.472 156.208 231.772 156.452 232.012C156.691 232.254 156.98 232.417 157.318 232.502C157.653 232.594 158.011 232.586 158.391 232.478L161.476 231.604L160.426 227.897ZM161.828 232.847L159.024 233.642C158.708 233.731 158.443 233.878 158.23 234.082C158.012 234.293 157.864 234.543 157.786 234.831C157.703 235.121 157.708 235.432 157.802 235.762C157.932 236.221 158.194 236.552 158.587 236.755C158.98 236.958 159.428 236.988 159.931 236.846L162.736 236.051L161.828 232.847ZM154.512 239.505L152.189 228.677L150.85 228.965L153.174 239.793L154.512 239.505ZM145.766 229.86L147.192 239.531L150.928 238.98L151.117 240.266L142.291 241.567L142.102 240.281L145.838 239.73L144.412 230.06L145.766 229.86ZM138.138 230.85C137.633 230.643 137.096 230.556 136.528 230.589C135.842 230.629 135.222 230.831 134.668 231.197C134.109 231.569 133.672 232.043 133.356 232.621C133.041 233.205 132.903 233.837 132.942 234.517C132.982 235.203 133.177 235.811 133.526 236.34C133.875 236.874 134.33 237.285 134.891 237.571C135.452 237.862 136.076 237.987 136.762 237.947C137.207 237.922 137.639 237.807 138.059 237.603C138.329 237.47 138.572 237.307 138.788 237.114L138.777 240.481L134.074 240.753L134.149 242.051L140.084 241.707L140.087 235.906L138.847 235.516C138.664 235.819 138.407 236.08 138.076 236.3C137.74 236.525 137.329 236.651 136.842 236.679C136.412 236.704 136.01 236.622 135.634 236.434C135.258 236.245 134.953 235.975 134.717 235.624C134.476 235.278 134.342 234.883 134.317 234.438C134.292 234.008 134.374 233.605 134.563 233.229C134.752 232.859 135.021 232.553 135.372 232.312C135.718 232.076 136.116 231.945 136.567 231.919C136.909 231.899 137.244 231.952 137.569 232.077C137.89 232.207 138.176 232.396 138.427 232.643C138.677 232.896 138.859 233.201 138.973 233.559L140.265 233.13C140.085 232.601 139.812 232.139 139.445 231.745C139.073 231.355 138.638 231.057 138.138 230.85ZM122.41 230.425C123.509 230.51 124.423 230.825 125.152 231.369C125.881 231.914 126.414 232.634 126.751 233.529C127.083 234.424 127.205 235.439 127.118 236.574C127.03 237.709 126.753 238.693 126.288 239.526C125.817 240.358 125.18 240.988 124.376 241.414C123.571 241.841 122.62 242.011 121.52 241.926C120.243 241.827 119.217 241.422 118.444 240.709C117.666 239.996 117.164 239.077 116.937 237.954L118.353 237.694C118.515 238.534 118.866 239.214 119.407 239.734C119.948 240.254 120.686 240.55 121.621 240.623C122.444 240.686 123.144 240.553 123.719 240.222C124.295 239.891 124.747 239.401 125.075 238.753C125.402 238.11 125.603 237.346 125.676 236.462C125.749 235.584 125.674 234.799 125.449 234.108C125.225 233.422 124.851 232.868 124.328 232.447C123.805 232.032 123.132 231.792 122.309 231.728C121.373 231.656 120.598 231.835 119.984 232.266C119.369 232.702 118.918 233.32 118.63 234.12L117.27 233.645C117.667 232.575 118.304 231.745 119.183 231.155C120.056 230.569 121.132 230.326 122.41 230.425ZM114.903 230.302C114.235 229.685 113.358 229.277 112.274 229.079C111.184 228.879 110.217 228.95 109.373 229.291C108.529 229.632 107.833 230.193 107.283 230.973C106.734 231.753 106.357 232.703 106.152 233.823C105.948 234.943 105.964 235.965 106.202 236.889C106.439 237.813 106.893 238.584 107.561 239.201C108.23 239.819 109.11 240.227 110.199 240.426C111.283 240.625 112.247 240.553 113.092 240.213C113.936 239.872 114.635 239.312 115.189 238.532C115.738 237.752 116.115 236.802 116.32 235.682C116.525 234.562 116.508 233.54 116.271 232.616C116.028 231.691 115.572 230.92 114.903 230.302ZM109.911 230.539C110.518 230.269 111.227 230.211 112.038 230.365C112.849 230.518 113.494 230.829 113.971 231.297C114.443 231.768 114.754 232.357 114.907 233.063C115.059 233.768 115.054 234.554 114.89 235.421C114.726 236.292 114.447 237.033 114.054 237.644C113.661 238.255 113.163 238.696 112.561 238.966C111.954 239.236 111.245 239.294 110.434 239.14C109.623 238.987 108.981 238.677 108.509 238.21C108.032 237.742 107.719 237.156 107.572 236.451C107.419 235.746 107.423 234.957 107.582 234.084C107.741 233.217 108.017 232.478 108.41 231.867C108.798 231.255 109.298 230.812 109.911 230.539ZM106.345 228.17L103.126 238.766L101.934 238.404L100.495 228.748L93.9495 235.979L92.7428 235.612L95.9596 225.023L97.2032 225.401L94.8604 233.113L100.804 226.487L101.503 226.699L102.756 235.511L105.101 227.792L106.345 228.17ZM90.4934 234.682L94.8074 224.482L93.5467 223.949L91.9529 227.717L89.1834 226.546C89.0842 226.504 88.9642 226.459 88.8232 226.41C88.6823 226.362 88.5441 226.32 88.4086 226.285C87.8249 226.138 87.2846 226.132 86.7878 226.267C86.2842 226.405 85.8441 226.656 85.4674 227.02C85.0841 227.387 84.7786 227.839 84.5509 228.378C84.3212 228.921 84.2069 229.454 84.2081 229.978C84.2072 230.506 84.3338 230.997 84.5877 231.449C84.8369 231.9 85.2198 232.284 85.7363 232.603C85.8538 232.681 85.98 232.751 86.115 232.813C86.2479 232.881 86.364 232.935 86.4631 232.977L90.4934 234.682ZM88.7196 227.761L91.4465 228.914L89.7389 232.952L87.0119 231.798C86.9222 231.76 86.8227 231.713 86.7134 231.655C86.5973 231.601 86.4933 231.537 86.4014 231.465C86.1056 231.256 85.899 231.007 85.7819 230.719C85.66 230.428 85.6098 230.125 85.6312 229.811C85.6506 229.502 85.7202 229.206 85.84 228.923C85.9598 228.639 86.1249 228.381 86.3352 228.147C86.5435 227.918 86.7944 227.745 87.0881 227.63C87.375 227.518 87.6974 227.493 88.0551 227.555C88.169 227.575 88.287 227.606 88.409 227.646C88.5263 227.685 88.6299 227.723 88.7196 227.761ZM87.726 221.504L79.2787 229.568L77.5919 228.678L79.4827 217.153L80.7409 217.818L80.305 220.518L84.4912 222.727L86.4677 220.84L87.726 221.504ZM83.5117 223.663L80.089 221.856L79.1204 227.856L83.5117 223.663ZM73.1896 226.246L79.237 216.969L78.0773 216.213L73.3486 223.467L73.2389 213.059L72.0792 212.303L66.0318 221.581L67.1915 222.337L71.916 215.088L72.0299 225.49L73.1896 226.246ZM69.538 210.307L66.6941 213.931L65.6354 221.322L64.3831 220.339L65.181 214.738L59.9363 216.849L58.6839 215.867L65.6051 213.076L68.449 209.452L69.538 210.307ZM53.73 205.067L53.579 203.831L51.6857 204.122L52.1179 202.26L50.8969 202.02L50.6051 203.908L48.954 202.923L48.3485 204.011L50.0639 204.873L48.6032 206.137L49.4516 207.05L50.8181 205.684L51.5535 207.458L52.6827 206.933L51.8201 205.215L53.73 205.067ZM48.9564 189.201L39.746 195.35L37.3504 191.762C36.9832 191.212 36.7831 190.667 36.75 190.128C36.7141 189.585 36.8133 189.087 37.0476 188.635C37.2749 188.181 37.6017 187.812 38.0281 187.527C38.527 187.194 39.0495 187.03 39.5955 187.036C39.9637 187.039 40.3058 187.119 40.6218 187.275C40.5229 186.763 40.5503 186.277 40.7038 185.815C40.9068 185.205 41.3004 184.705 41.8845 184.315C42.4218 183.956 42.9606 183.756 43.5009 183.716C44.0384 183.672 44.554 183.784 45.0476 184.052C45.5383 184.316 45.9716 184.73 46.3474 185.293L48.9564 189.201ZM47.1005 188.775L45.4052 186.236C45.1775 185.895 44.9121 185.631 44.6091 185.445C44.3018 185.262 43.9818 185.171 43.6491 185.171C43.3135 185.167 42.9836 185.273 42.6596 185.489C42.3483 185.697 42.116 185.954 41.9626 186.26C41.8064 186.561 41.7398 186.886 41.7627 187.235C41.7786 187.582 41.8961 187.919 42.1153 188.248L43.896 190.915L47.1005 188.775ZM42.8214 191.632L41.2031 189.208C41.0209 188.935 40.7996 188.728 40.5393 188.588C40.2719 188.446 39.9889 188.382 39.6902 188.396C39.3888 188.407 39.0952 188.507 38.8095 188.698C38.413 188.962 38.1786 189.313 38.1063 189.75C38.0341 190.186 38.1432 190.622 38.4335 191.057L40.0519 193.481L42.8214 191.632ZM34.3013 186.86L43.8775 181.297L43.1899 180.114L33.6138 185.676L34.3013 186.86ZM40.7261 175.509L31.9661 179.846L33.6414 183.23L32.4766 183.806L28.5186 175.811L29.6834 175.235L31.3587 178.619L40.1187 174.282L40.7261 175.509ZM37.4557 168.657C37.4955 168.113 37.4114 167.576 37.2035 167.046C36.9525 166.407 36.567 165.88 36.0471 165.468C35.5204 165.052 34.9333 164.784 34.2857 164.663C33.6334 164.545 32.9898 164.61 32.355 164.859C31.7155 165.11 31.1984 165.484 30.8039 165.98C30.4046 166.478 30.1562 167.039 30.0588 167.661C29.9567 168.284 30.0311 168.916 30.2821 169.556C30.445 169.971 30.6887 170.346 31.0131 170.682C31.2231 170.897 31.4533 171.077 31.7037 171.223L28.5008 172.259L26.7799 167.873L25.57 168.348L27.7417 173.882L33.2561 172.082L33.2417 170.782C32.8966 170.702 32.5683 170.539 32.2566 170.293C31.9384 170.043 31.6903 169.692 31.5123 169.238C31.355 168.837 31.3077 168.429 31.3704 168.013C31.4331 167.598 31.5946 167.223 31.8548 166.89C32.1083 166.553 32.4427 166.304 32.8579 166.141C33.2588 165.983 33.6671 165.936 34.0828 165.999C34.4936 166.063 34.8682 166.225 35.2064 166.483C35.5379 166.739 35.7861 167.076 35.9509 167.496C36.0764 167.816 36.1304 168.15 36.1129 168.498C36.0888 168.844 35.998 169.174 35.8408 169.489C35.6788 169.806 35.4452 170.074 35.14 170.293L35.9498 171.388C36.3966 171.053 36.7505 170.65 37.0116 170.178C37.2661 169.704 37.4141 169.197 37.4557 168.657ZM33.0956 154.008C33.3556 155.079 33.3395 156.046 33.0475 156.908C32.7556 157.77 32.2363 158.5 31.4898 159.098C30.742 159.691 29.8151 160.122 28.709 160.39C27.6029 160.659 26.5817 160.701 25.6454 160.516C24.7078 160.327 23.9117 159.916 23.257 159.284C22.6023 158.651 22.145 157.799 21.8851 156.728C21.5829 155.483 21.6508 154.382 22.0889 153.426C22.5258 152.465 23.243 151.703 24.2405 151.139L24.9275 152.405C24.1785 152.819 23.6406 153.364 23.3139 154.039C22.9871 154.714 22.9344 155.508 23.1556 156.42C23.3503 157.222 23.6941 157.846 24.1872 158.29C24.6803 158.735 25.2858 159.013 26.0038 159.124C26.7168 159.236 27.5049 159.189 28.3681 158.985C29.2263 158.782 29.9491 158.467 30.5365 158.04C31.1189 157.613 31.5292 157.087 31.7673 156.459C32.0005 155.833 32.0197 155.118 31.8251 154.316C31.6039 153.404 31.1932 152.723 30.5933 152.273C29.9883 151.823 29.2606 151.586 28.4102 151.56L28.4407 150.12C29.5807 150.165 30.5675 150.514 31.4011 151.167C32.2285 151.815 32.7934 152.762 33.0956 154.008ZM30.8693 146.865C31.2486 146.037 31.3642 145.077 31.216 143.985C31.0671 142.887 30.6996 141.99 30.1136 141.294C29.5276 140.597 28.7784 140.109 27.866 139.829C26.9537 139.549 25.9335 139.486 24.8057 139.639C23.6778 139.792 22.7114 140.125 21.9066 140.638C21.1017 141.15 20.5097 141.821 20.1304 142.648C19.7512 143.476 19.636 144.438 19.7848 145.536C19.933 146.628 20.3001 147.522 20.8862 148.219C21.4722 148.915 22.2217 149.406 23.1348 149.691C24.0472 149.971 25.0673 150.034 26.1951 149.881C27.323 149.728 28.2894 149.395 29.0942 148.883C29.8984 148.365 30.4901 147.692 30.8693 146.865ZM29.0947 142.193C29.5393 142.686 29.8146 143.342 29.9204 144.161C30.0263 144.979 29.931 145.688 29.6346 146.287C29.3324 146.882 28.8697 147.361 28.2464 147.725C27.6232 148.089 26.8743 148.327 25.9998 148.441C25.1201 148.555 24.3289 148.52 23.6262 148.336C22.9234 148.152 22.3501 147.816 21.9061 147.328C21.4615 146.834 21.1863 146.178 21.0804 145.36C20.9745 144.541 21.0701 143.835 21.3672 143.241C21.6637 142.642 22.1239 142.163 22.7478 141.804C23.371 141.44 24.1221 141.199 25.0011 141.079C25.8749 140.961 26.6632 140.994 27.366 141.178C28.068 141.357 28.6443 141.695 29.0947 142.193ZM148.713 24.7286L149.562 25.6383L150.921 24.289L151.668 26.0483L152.796 25.5237L151.921 23.8254L153.835 23.6497L153.684 22.4137L151.79 22.7265L152.227 20.845L151.004 20.6069L150.703 22.5149L149.064 21.5142L148.46 22.6032L150.169 23.4844L148.713 24.7286ZM161.904 34.7018L165.756 24.3187L169.801 25.8192C170.421 26.0493 170.903 26.3728 171.246 26.7898C171.593 27.2086 171.805 27.6699 171.881 28.1737C171.963 28.6745 171.915 29.1652 171.736 29.6459C171.528 30.2084 171.201 30.6476 170.756 30.9636C170.455 31.1767 170.131 31.3127 169.784 31.3715C170.164 31.7282 170.428 32.1385 170.574 32.6025C170.768 33.2157 170.742 33.8515 170.498 34.5101C170.273 35.1158 169.954 35.5934 169.54 35.9429C169.131 36.2942 168.648 36.5059 168.09 36.5781C167.538 36.6521 166.945 36.5714 166.31 36.336L161.904 34.7018ZM163.657 33.9574L166.52 35.0193C166.904 35.162 167.274 35.2197 167.628 35.1927C167.985 35.1608 168.297 35.0472 168.567 34.8518C168.841 34.6582 169.046 34.3787 169.181 34.0134C169.311 33.6625 169.349 33.3182 169.294 32.9806C169.243 32.6447 169.107 32.3424 168.884 32.0738C168.667 31.8021 168.374 31.5977 168.004 31.4604L164.997 30.345L163.657 33.9574ZM165.446 29.1337L168.179 30.1474C168.487 30.2615 168.787 30.2991 169.081 30.2603C169.38 30.2184 169.647 30.104 169.88 29.9172C170.119 29.7321 170.297 29.4785 170.417 29.1565C170.583 28.7094 170.567 28.2879 170.369 27.892C170.172 27.496 169.828 27.2071 169.337 27.0252L166.605 26.0115L165.446 29.1337ZM175.68 28.2121L171.139 38.3126L172.387 38.8739L176.929 28.7734L175.68 28.2121ZM176.687 40.9595L181.249 32.3149L177.91 30.5524L178.517 29.403L186.406 33.5669L185.8 34.7164L182.46 32.9539L177.898 41.5985L176.687 40.9595ZM183.741 44.8077C184.027 45.273 184.408 45.6602 184.886 45.9692C185.463 46.3422 186.083 46.5447 186.746 46.5767C187.416 46.6071 188.05 46.4823 188.646 46.2024C189.245 45.9181 189.73 45.4896 190.1 44.917C190.473 44.3401 190.675 43.735 190.706 43.1017C190.74 42.4641 190.615 41.8643 190.331 41.3023C190.05 40.736 189.621 40.2663 189.044 39.8932C188.669 39.651 188.253 39.4883 187.793 39.4052C187.497 39.3528 187.205 39.3405 186.917 39.3683L188.914 36.6588L192.87 39.2168L193.576 38.1253L188.584 34.8974L185.155 39.5765L185.925 40.6238C186.251 40.487 186.613 40.4279 187.01 40.4465C187.414 40.4636 187.821 40.6044 188.23 40.8688C188.592 41.1027 188.868 41.4067 189.06 41.7809C189.251 42.1551 189.339 42.5534 189.322 42.9761C189.312 43.3971 189.186 43.795 188.944 44.1695C188.71 44.5312 188.406 44.8078 188.032 44.9993C187.66 45.1866 187.262 45.2739 186.837 45.2614C186.418 45.2473 186.02 45.1178 185.641 44.8728C185.352 44.6863 185.114 44.4464 184.925 44.1533C184.743 43.8586 184.624 43.5375 184.568 43.1898C184.514 42.8379 184.548 42.484 184.668 42.1282L183.372 41.7112C183.204 42.244 183.152 42.778 183.215 43.3133C183.285 43.847 183.46 44.3452 183.741 44.8077ZM195.961 54.2248C195.125 53.5071 194.573 52.713 194.307 51.8426C194.04 50.9722 194.035 50.0763 194.292 49.1549C194.553 48.2369 195.053 47.346 195.795 46.4821C196.536 45.6183 197.34 44.9877 198.208 44.5905C199.079 44.1966 199.966 44.0652 200.866 44.1963C201.767 44.3274 202.636 44.7518 203.473 45.4695C204.445 46.3041 205.033 47.2372 205.236 48.2689C205.442 49.3039 205.305 50.3415 204.825 51.3818L203.528 50.7556C203.894 49.9822 204.013 49.226 203.883 48.4868C203.754 47.7477 203.333 47.0727 202.621 46.4618C201.995 45.9243 201.352 45.619 200.691 45.5459C200.031 45.4727 199.378 45.6009 198.73 45.9304C198.086 46.256 197.473 46.7537 196.892 47.4235C196.314 48.0895 195.911 48.7675 195.684 49.4575C195.46 50.1437 195.435 50.811 195.608 51.4595C195.785 52.1041 196.186 52.6951 196.813 53.2326C197.525 53.8435 198.256 54.1566 199.006 54.172C199.76 54.1834 200.489 53.9513 201.194 53.4756L202.01 54.6621C201.059 55.2912 200.054 55.5844 198.996 55.5417C197.946 55.4984 196.934 55.0594 195.961 54.2248ZM201.937 58.6952C202.114 59.5882 202.582 60.4343 203.342 61.2333C204.104 62.036 204.927 62.5483 205.81 62.7703C206.693 62.9922 207.586 62.9496 208.49 62.6426C209.393 62.3356 210.258 61.79 211.083 61.0059C211.908 60.2218 212.497 59.3864 212.849 58.4996C213.202 57.6128 213.29 56.7229 213.113 55.8299C212.936 54.9369 212.466 54.089 211.703 53.2863C210.944 52.4873 210.123 51.9768 209.24 51.7549C208.357 51.533 207.462 51.5737 206.555 51.877C205.652 52.184 204.787 52.7296 203.962 53.5137C203.137 54.2978 202.548 55.1332 202.196 56.02C201.847 56.9105 201.761 57.8023 201.937 58.6952ZM206.11 61.4452C205.461 61.3053 204.854 60.9345 204.289 60.3326C203.724 59.7308 203.387 59.1002 203.277 58.441C203.174 57.782 203.268 57.1226 203.561 56.4627C203.853 55.8029 204.321 55.1711 204.964 54.5673C205.61 53.9599 206.272 53.5253 206.95 53.2633C207.627 53.0013 208.289 52.9383 208.935 53.0744C209.584 53.2142 210.191 53.5851 210.756 54.187C211.321 54.7888 211.656 55.4175 211.763 56.073C211.873 56.7322 211.78 57.3899 211.484 58.046C211.192 58.7058 210.724 59.3413 210.081 59.9523C209.442 60.5598 208.784 60.9946 208.106 61.2566C207.432 61.5223 206.767 61.5852 206.11 61.4452ZM207.624 65.4378L216.459 58.7609L217.21 59.7549L212.695 68.411L222.241 66.412L223.002 67.4182L214.173 74.0905L213.389 73.0536L219.819 68.1943L211.116 70.0579L210.675 69.475L214.844 61.6108L208.408 66.4747L207.624 65.4378ZM224.284 69.4572L214.812 75.1948L215.521 76.3657L219.021 74.246L220.579 76.8179C220.634 76.91 220.705 77.017 220.791 77.1389C220.877 77.2607 220.964 77.3755 221.054 77.4833C221.441 77.9442 221.875 78.2655 222.357 78.4473C222.846 78.6307 223.349 78.6853 223.868 78.6111C224.393 78.5385 224.906 78.3508 225.406 78.048C225.91 77.7425 226.315 77.3772 226.621 76.9521C226.932 76.5244 227.117 76.0527 227.176 75.5372C227.238 75.0261 227.153 74.4901 226.921 73.9292C226.871 73.7975 226.81 73.6668 226.738 73.5369C226.669 73.4045 226.607 73.2922 226.551 73.2001L224.284 69.4572ZM221.666 76.1051L220.132 73.5726L223.882 71.3015L225.416 73.834C225.466 73.9173 225.519 74.0142 225.574 74.1248C225.636 74.2371 225.683 74.3494 225.715 74.4618C225.833 74.8043 225.854 75.1269 225.78 75.4297C225.708 75.7368 225.572 76.0113 225.371 76.2531C225.174 76.4922 224.944 76.6914 224.681 76.8508C224.418 77.0102 224.132 77.1231 223.825 77.1894C223.522 77.2531 223.217 77.2456 222.912 77.1669C222.614 77.0899 222.338 76.9213 222.084 76.6613C222.004 76.5781 221.926 76.4843 221.851 76.38C221.778 76.28 221.717 76.1884 221.666 76.1051ZM218.717 81.5549L230.286 79.9636L231.132 81.6728L222.852 89.9083L222.221 88.6332L224.155 86.6993L222.055 82.4572L219.348 82.83L218.717 81.5549ZM229.412 81.4444L225.114 85.7409L223.397 82.2725L229.412 81.4444ZM233.364 86.3547L223.025 90.3229L223.521 91.6153L231.606 88.5124L225.591 97.0074L226.087 98.2998L236.426 94.3316L235.93 93.0392L227.852 96.1394L233.86 87.6471L233.364 86.3547ZM226.972 101.338L231.399 100.066L236.585 94.6947L237.025 96.2247L233.098 100.298L238.586 101.657L239.026 103.187L231.781 101.396L227.354 102.668L226.972 101.338ZM236.71 114.761L236.109 115.85L237.814 116.724L236.373 117.98L237.222 118.89L238.565 117.53L239.326 119.295L240.454 118.768L239.569 117.064L241.493 116.896L241.34 115.659L239.432 115.965L239.875 114.097L238.652 113.861L238.345 115.759L236.71 114.761Z" fill="url(#paint3_linear_9_2697)"/>
<circle cx="131.157" cy="130.894" r="118.535" stroke="url(#paint4_linear_9_2697)" stroke-width="1.31706"/>
<defs>
<filter id="filter0_bi_9_2697" x="-223.847" y="-224.11" width="710.008" height="710.008" filterUnits="userSpaceOnUse" color-interpolation-filters="sRGB">
<feFlood flood-opacity="0" result="BackgroundImageFix"/>
<feGaussianBlur in="BackgroundImage" stdDeviation="117.905"/>
<feComposite in2="SourceAlpha" operator="in" result="effect1_backgroundBlur_9_2697"/>
<feBlend mode="normal" in="SourceGraphic" in2="effect1_backgroundBlur_9_2697" result="shape"/>
<feColorMatrix in="SourceAlpha" type="matrix" values="0 0 0 0 0 0 0 0 0 0 0 0 0 0 0 0 0 0 127 0" result="hardAlpha"/>
<feOffset dx="5.15432" dy="2.57716"/>
<feGaussianBlur stdDeviation="6.44291"/>
<feComposite in2="hardAlpha" operator="arithmetic" k2="-1" k3="1"/>
<feColorMatrix type="matrix" values="0 0 0 0 1 0 0 0 0 1 0 0 0 0 1 0 0 0 0.4 0"/>
<feBlend mode="normal" in2="shape" result="effect2_innerShadow_9_2697"/>
</filter>
<filter id="filter1_dd_9_2697" x="82.5061" y="58.7149" width="122.976" height="143.74" filterUnits="userSpaceOnUse" color-interpolation-filters="sRGB">
<feFlood flood-opacity="0" result="BackgroundImageFix"/>
<feColorMatrix in="SourceAlpha" type="matrix" values="0 0 0 0 0 0 0 0 0 0 0 0 0 0 0 0 0 0 127 0" result="hardAlpha"/>
<feOffset dx="-3.6287" dy="-3.6287"/>
<feGaussianBlur stdDeviation="3.66504"/>
<feColorMatrix type="matrix" values="0 0 0 0 1 0 0 0 0 1 0 0 0 0 1 0 0 0 0.27 0"/>
<feBlend mode="normal" in2="BackgroundImageFix" result="effect1_dropShadow_9_2697"/>
<feColorMatrix in="SourceAlpha" type="matrix" values="0 0 0 0 0 0 0 0 0 0 0 0 0 0 0 0 0 0 127 0" result="hardAlpha"/>
<feOffset dx="4.83827" dy="4.83827"/>
<feGaussianBlur stdDeviation="3.66504"/>
<feColorMatrix type="matrix" values="0 0 0 0 0.0352941 0 0 0 0 0.0392157 0 0 0 0 0.0509804 0 0 0 0.45 0"/>
<feBlend mode="normal" in2="effect1_dropShadow_9_2697" result="effect2_dropShadow_9_2697"/>
<feBlend mode="normal" in="SourceGraphic" in2="effect2_dropShadow_9_2697" result="shape"/>
</filter>
<linearGradient id="paint0_linear_9_2697" x1="131.156" y1="0" x2="311.827" y2="180.67" gradientUnits="userSpaceOnUse">
<stop stop-color="#E9E9E9"/>
<stop offset="1" stop-color="#E9E9E9" stop-opacity="0"/>
</linearGradient>
<linearGradient id="paint1_linear_9_2697" x1="64.6129" y1="26.325" x2="207.938" y2="250.088" gradientUnits="userSpaceOnUse">
<stop stop-color="white"/>
<stop offset="1" stop-color="white" stop-opacity="0"/>
</linearGradient>
<linearGradient id="paint2_linear_9_2697" x1="93.744" y1="84.7165" x2="164.679" y2="236.004" gradientUnits="userSpaceOnUse">
<stop offset="0.202192" stop-color="#E9E9E9"/>
<stop offset="0.989589" stop-color="#E9E9E9" stop-opacity="0"/>
</linearGradient>
<linearGradient id="paint3_linear_9_2697" x1="130.637" y1="18.6534" x2="284.813" y2="172.859" gradientUnits="userSpaceOnUse">
<stop stop-color="#E9E9E9"/>
<stop offset="1" stop-color="#E9E9E9" stop-opacity="0"/>
</linearGradient>
<linearGradient id="paint4_linear_9_2697" x1="131.157" y1="11.7" x2="295.678" y2="176.221" gradientUnits="userSpaceOnUse">
<stop stop-color="#E9E9E9"/>
<stop offset="1" stop-color="#E9E9E9" stop-opacity="0"/>
</linearGradient>
</defs>
</svg>
