<svg width="266" height="267" viewBox="0 0 266 267" fill="none" xmlns="http://www.w3.org/2000/svg">
<circle cx="132.95" cy="128.325" r="64.155" stroke="url(#paint0_linear_40_1493)" stroke-width="117.39" stroke-dasharray="2.73 2.73"/>
<g filter="url(#filter0_d_40_1493)">
<path fill-rule="evenodd" clip-rule="evenodd" d="M132.832 255.562C203.168 255.562 260.187 198.543 260.187 128.207C260.187 57.8698 203.168 0.850586 132.832 0.850586C62.4948 0.850586 5.47559 57.8698 5.47559 128.207C5.47559 198.543 62.4948 255.562 132.832 255.562ZM132.268 244.046C196.319 244.046 248.243 192.122 248.243 128.07C248.243 64.0184 196.319 12.0943 132.268 12.0943C68.216 12.0943 16.2919 64.0184 16.2919 128.07C16.2919 192.122 68.216 244.046 132.268 244.046Z" fill="url(#paint1_linear_40_1493)"/>
</g>
<g filter="url(#filter1_d_40_1493)">
<path fill-rule="evenodd" clip-rule="evenodd" d="M132.832 255.562C203.168 255.562 260.187 198.543 260.187 128.207C260.187 57.8698 203.168 0.850586 132.832 0.850586C62.4948 0.850586 5.47559 57.8698 5.47559 128.207C5.47559 198.543 62.4948 255.562 132.832 255.562ZM132.268 244.046C196.319 244.046 248.243 192.122 248.243 128.07C248.243 64.0184 196.319 12.0943 132.268 12.0943C68.216 12.0943 16.2919 64.0184 16.2919 128.07C16.2919 192.122 68.216 244.046 132.268 244.046Z" fill="url(#paint2_linear_40_1493)"/>
</g>
<g filter="url(#filter2_ddi_40_1493)">
<path fill-rule="evenodd" clip-rule="evenodd" d="M157 26.1077C155.538 38.6209 144.901 48.3314 131.995 48.3314C119.127 48.3314 108.514 38.6775 107.003 26.2172C69.434 35.5246 39.8823 65.1505 30.6813 102.761C42.2334 105.047 50.9436 115.235 50.9436 127.458C50.9436 139.719 42.18 149.932 30.5752 152.177C39.689 190.144 69.522 220.049 107.448 229.268C110.003 218.07 120.023 209.714 131.995 209.714C144.004 209.714 154.049 218.122 156.565 229.373C194.661 220.287 224.666 190.349 233.847 152.29C221.93 150.3 212.848 139.94 212.848 127.458C212.848 115.014 221.876 104.679 233.739 102.645C224.469 64.9408 194.742 35.281 157 26.1077ZM195.955 127.12C195.955 162.758 167.065 191.647 131.428 191.647C95.7907 191.647 66.901 162.758 66.901 127.12C66.901 91.4831 95.7907 62.5934 131.428 62.5934C146.809 62.5934 160.934 67.9752 172.021 76.9585H161.842L160.95 92.1198L165.127 93.433C165.519 92.982 166.08 92.5575 166.81 92.1596C167.554 91.7616 168.486 91.5627 169.609 91.5627C170.541 91.5627 171.4 91.7882 172.184 92.2392C172.968 92.6769 173.59 93.2804 174.05 94.0498C174.523 94.8058 174.759 95.6481 174.759 96.5766C174.759 97.5052 174.529 98.3541 174.07 99.1234C173.61 99.8795 172.988 100.483 172.204 100.934C171.42 101.385 170.555 101.611 169.609 101.611C168.879 101.611 168.169 101.458 167.479 101.153C166.803 100.848 166.209 100.417 165.695 99.8596C165.195 99.3025 164.85 98.6393 164.661 97.8699L159.956 99.1035C160.362 100.51 161.024 101.743 161.943 102.804C162.876 103.865 163.985 104.701 165.269 105.311C166.553 105.908 167.939 106.207 169.426 106.207C171.265 106.207 172.955 105.776 174.496 104.913C176.05 104.051 177.301 102.897 178.247 101.451C179.194 99.9922 179.667 98.3673 179.667 96.5766C179.667 94.7859 179.261 93.1876 178.45 91.7815C177.652 90.3755 176.544 89.2679 175.124 88.4588C173.718 87.6364 172.103 87.2252 170.278 87.2252C169.345 87.2252 168.378 87.391 167.378 87.7226C166.792 87.9167 166.249 88.1698 165.746 88.4821L166.179 81.4551H177.018C188.717 93.1352 195.955 109.282 195.955 127.12ZM98.5083 174.995V87.4255H133.232C139.151 87.4255 143.996 88.6215 147.766 91.0134C151.577 93.3648 154.394 96.3851 156.219 100.074C158.084 103.764 159.016 107.575 159.016 111.507C159.016 116.331 157.861 120.426 155.55 123.791C154.127 125.9 152.378 127.579 150.302 128.828C153.854 130.281 156.678 132.473 158.773 135.406C161.651 139.379 163.091 143.9 163.091 148.967C163.091 154.156 162.097 158.697 160.111 162.589C158.124 166.481 155.165 169.522 151.232 171.711C147.34 173.9 142.516 174.995 136.759 174.995H98.5083ZM113.346 161.19H134.935C137.489 161.19 139.779 160.684 141.806 159.67C143.833 158.616 145.415 157.157 146.55 155.292C147.725 153.386 148.313 151.136 148.313 148.541C148.313 146.19 147.806 144.082 146.793 142.217C145.779 140.352 144.3 138.872 142.354 137.778C140.408 136.643 138.077 136.075 135.36 136.075H113.346V161.19ZM113.346 122.392H133.049C135.158 122.392 137.043 121.987 138.705 121.176C140.367 120.365 141.685 119.169 142.658 117.588C143.631 116.007 144.117 114.061 144.117 111.75C144.117 108.71 143.144 106.176 141.198 104.149C139.252 102.122 136.536 101.108 133.049 101.108H113.346V122.392Z" fill="url(#paint3_linear_40_1493)"/>
<path fill-rule="evenodd" clip-rule="evenodd" d="M157 26.1077C155.538 38.6209 144.901 48.3314 131.995 48.3314C119.127 48.3314 108.514 38.6775 107.003 26.2172C69.434 35.5246 39.8823 65.1505 30.6813 102.761C42.2334 105.047 50.9436 115.235 50.9436 127.458C50.9436 139.719 42.18 149.932 30.5752 152.177C39.689 190.144 69.522 220.049 107.448 229.268C110.003 218.07 120.023 209.714 131.995 209.714C144.004 209.714 154.049 218.122 156.565 229.373C194.661 220.287 224.666 190.349 233.847 152.29C221.93 150.3 212.848 139.94 212.848 127.458C212.848 115.014 221.876 104.679 233.739 102.645C224.469 64.9408 194.742 35.281 157 26.1077ZM195.955 127.12C195.955 162.758 167.065 191.647 131.428 191.647C95.7907 191.647 66.901 162.758 66.901 127.12C66.901 91.4831 95.7907 62.5934 131.428 62.5934C146.809 62.5934 160.934 67.9752 172.021 76.9585H161.842L160.95 92.1198L165.127 93.433C165.519 92.982 166.08 92.5575 166.81 92.1596C167.554 91.7616 168.486 91.5627 169.609 91.5627C170.541 91.5627 171.4 91.7882 172.184 92.2392C172.968 92.6769 173.59 93.2804 174.05 94.0498C174.523 94.8058 174.759 95.6481 174.759 96.5766C174.759 97.5052 174.529 98.3541 174.07 99.1234C173.61 99.8795 172.988 100.483 172.204 100.934C171.42 101.385 170.555 101.611 169.609 101.611C168.879 101.611 168.169 101.458 167.479 101.153C166.803 100.848 166.209 100.417 165.695 99.8596C165.195 99.3025 164.85 98.6393 164.661 97.8699L159.956 99.1035C160.362 100.51 161.024 101.743 161.943 102.804C162.876 103.865 163.985 104.701 165.269 105.311C166.553 105.908 167.939 106.207 169.426 106.207C171.265 106.207 172.955 105.776 174.496 104.913C176.05 104.051 177.301 102.897 178.247 101.451C179.194 99.9922 179.667 98.3673 179.667 96.5766C179.667 94.7859 179.261 93.1876 178.45 91.7815C177.652 90.3755 176.544 89.2679 175.124 88.4588C173.718 87.6364 172.103 87.2252 170.278 87.2252C169.345 87.2252 168.378 87.391 167.378 87.7226C166.792 87.9167 166.249 88.1698 165.746 88.4821L166.179 81.4551H177.018C188.717 93.1352 195.955 109.282 195.955 127.12ZM98.5083 174.995V87.4255H133.232C139.151 87.4255 143.996 88.6215 147.766 91.0134C151.577 93.3648 154.394 96.3851 156.219 100.074C158.084 103.764 159.016 107.575 159.016 111.507C159.016 116.331 157.861 120.426 155.55 123.791C154.127 125.9 152.378 127.579 150.302 128.828C153.854 130.281 156.678 132.473 158.773 135.406C161.651 139.379 163.091 143.9 163.091 148.967C163.091 154.156 162.097 158.697 160.111 162.589C158.124 166.481 155.165 169.522 151.232 171.711C147.34 173.9 142.516 174.995 136.759 174.995H98.5083ZM113.346 161.19H134.935C137.489 161.19 139.779 160.684 141.806 159.67C143.833 158.616 145.415 157.157 146.55 155.292C147.725 153.386 148.313 151.136 148.313 148.541C148.313 146.19 147.806 144.082 146.793 142.217C145.779 140.352 144.3 138.872 142.354 137.778C140.408 136.643 138.077 136.075 135.36 136.075H113.346V161.19ZM113.346 122.392H133.049C135.158 122.392 137.043 121.987 138.705 121.176C140.367 120.365 141.685 119.169 142.658 117.588C143.631 116.007 144.117 114.061 144.117 111.75C144.117 108.71 143.144 106.176 141.198 104.149C139.252 102.122 136.536 101.108 133.049 101.108H113.346V122.392Z" fill="url(#paint4_linear_40_1493)"/>
</g>
<defs>
<filter id="filter0_d_40_1493" x="0.0324979" y="0.850586" width="265.598" height="265.598" filterUnits="userSpaceOnUse" color-interpolation-filters="sRGB">
<feFlood flood-opacity="0" result="BackgroundImageFix"/>
<feColorMatrix in="SourceAlpha" type="matrix" values="0 0 0 0 0 0 0 0 0 0 0 0 0 0 0 0 0 0 127 0" result="hardAlpha"/>
<feOffset dy="5.44309"/>
<feGaussianBlur stdDeviation="2.72154"/>
<feColorMatrix type="matrix" values="0 0 0 0 0 0 0 0 0 0 0 0 0 0 0 0 0 0 0.39 0"/>
<feBlend mode="normal" in2="BackgroundImageFix" result="effect1_dropShadow_40_1493"/>
<feBlend mode="normal" in="SourceGraphic" in2="effect1_dropShadow_40_1493" result="shape"/>
</filter>
<filter id="filter1_d_40_1493" x="0.0324979" y="0.850586" width="265.598" height="265.598" filterUnits="userSpaceOnUse" color-interpolation-filters="sRGB">
<feFlood flood-opacity="0" result="BackgroundImageFix"/>
<feColorMatrix in="SourceAlpha" type="matrix" values="0 0 0 0 0 0 0 0 0 0 0 0 0 0 0 0 0 0 127 0" result="hardAlpha"/>
<feOffset dy="5.44309"/>
<feGaussianBlur stdDeviation="2.72154"/>
<feColorMatrix type="matrix" values="0 0 0 0 0 0 0 0 0 0 0 0 0 0 0 0 0 0 0.39 0"/>
<feBlend mode="normal" in2="BackgroundImageFix" result="effect1_dropShadow_40_1493"/>
<feBlend mode="normal" in="SourceGraphic" in2="effect1_dropShadow_40_1493" result="shape"/>
</filter>
<filter id="filter2_ddi_40_1493" x="11.4059" y="6.93833" width="235.22" height="235.213" filterUnits="userSpaceOnUse" color-interpolation-filters="sRGB">
<feFlood flood-opacity="0" result="BackgroundImageFix"/>
<feColorMatrix in="SourceAlpha" type="matrix" values="0 0 0 0 0 0 0 0 0 0 0 0 0 0 0 0 0 0 127 0" result="hardAlpha"/>
<feOffset dx="-3.81072" dy="-3.81072"/>
<feGaussianBlur stdDeviation="7.6793"/>
<feComposite in2="hardAlpha" operator="out"/>
<feColorMatrix type="matrix" values="0 0 0 0 1 0 0 0 0 0.773289 0 0 0 0 0.566667 0 0 0 0.32 0"/>
<feBlend mode="normal" in2="BackgroundImageFix" result="effect1_dropShadow_40_1493"/>
<feColorMatrix in="SourceAlpha" type="matrix" values="0 0 0 0 0 0 0 0 0 0 0 0 0 0 0 0 0 0 127 0" result="hardAlpha"/>
<feOffset dx="5.08097" dy="5.08097"/>
<feGaussianBlur stdDeviation="3.84888"/>
<feComposite in2="hardAlpha" operator="out"/>
<feColorMatrix type="matrix" values="0 0 0 0 0.0416667 0 0 0 0 0.0266165 0 0 0 0 0.0128472 0 0 0 0.5 0"/>
<feBlend mode="normal" in2="effect1_dropShadow_40_1493" result="effect2_dropShadow_40_1493"/>
<feBlend mode="normal" in="SourceGraphic" in2="effect2_dropShadow_40_1493" result="shape"/>
<feColorMatrix in="SourceAlpha" type="matrix" values="0 0 0 0 0 0 0 0 0 0 0 0 0 0 0 0 0 0 127 0" result="hardAlpha"/>
<feOffset dy="4.60758"/>
<feGaussianBlur stdDeviation="3.07172"/>
<feComposite in2="hardAlpha" operator="arithmetic" k2="-1" k3="1"/>
<feColorMatrix type="matrix" values="0 0 0 0 1 0 0 0 0 0.704193 0 0 0 0 0.433333 0 0 0 1 0"/>
<feBlend mode="normal" in2="shape" result="effect3_innerShadow_40_1493"/>
</filter>
<linearGradient id="paint0_linear_40_1493" x1="132.95" y1="5.47498" x2="302.517" y2="175.043" gradientUnits="userSpaceOnUse">
<stop stop-color="#EE9B4F"/>
<stop offset="1" stop-color="#EE9B4F" stop-opacity="0"/>
</linearGradient>
<linearGradient id="paint1_linear_40_1493" x1="132.832" y1="0.850586" x2="308.619" y2="176.638" gradientUnits="userSpaceOnUse">
<stop stop-color="#EE9B4F"/>
<stop offset="1" stop-color="#EE9B4F" stop-opacity="0"/>
</linearGradient>
<linearGradient id="paint2_linear_40_1493" x1="132.832" y1="0.850586" x2="308.619" y2="176.638" gradientUnits="userSpaceOnUse">
<stop stop-color="#EE9B4F"/>
<stop offset="1" stop-color="#EE9B4F" stop-opacity="0"/>
</linearGradient>
<linearGradient id="paint3_linear_40_1493" x1="132.211" y1="26.1077" x2="272.492" y2="166.394" gradientUnits="userSpaceOnUse">
<stop stop-color="#EE9B4F"/>
<stop offset="1" stop-color="#EE9B4F" stop-opacity="0"/>
</linearGradient>
<linearGradient id="paint4_linear_40_1493" x1="132.211" y1="26.1077" x2="-34.7562" y2="132.114" gradientUnits="userSpaceOnUse">
<stop stop-color="#EE9B4F"/>
<stop offset="1" stop-color="#EE9B4F" stop-opacity="0"/>
</linearGradient>
</defs>
</svg>
