<svg width="373" height="299" viewBox="0 0 373 299" fill="none" xmlns="http://www.w3.org/2000/svg">
<mask id="mask0_32_967" style="mask-type:alpha" maskUnits="userSpaceOnUse" x="0" y="0" width="373" height="299">
<rect width="373" height="298.4" fill="#D9D9D9"/>
</mask>
<g mask="url(#mask0_32_967)">
<path d="M25.5352 255.996H679.562" stroke="#14161C" stroke-width="0.728456"/>
<path d="M25.5352 186.187H679.562" stroke="#14161C" stroke-width="0.728456"/>
<path d="M25.5352 116.377H679.562" stroke="#14161C" stroke-width="0.728456"/>
<path d="M25.5352 46.5676H679.562" stroke="#14161C" stroke-width="0.728456"/>
<path d="M25.9468 -23.6538V256.408" stroke="#14161C" stroke-width="0.728456"/>
<path d="M243.681 -23.6539V256.408" stroke="#14161C" stroke-width="0.728456"/>
<path d="M16.7983 255.216V256.164C16.7983 256.673 16.7528 257.103 16.6617 257.453C16.5707 257.803 16.4398 258.084 16.2691 258.298C16.0983 258.511 15.892 258.666 15.6502 258.763C15.4111 258.857 15.1408 258.904 14.8392 258.904C14.6002 258.904 14.3796 258.874 14.1776 258.814C13.9756 258.755 13.7935 258.659 13.6313 258.528C13.4719 258.395 13.3353 258.221 13.2215 258.008C13.1077 257.794 13.0209 257.535 12.9611 257.231C12.9014 256.926 12.8715 256.571 12.8715 256.164V255.216C12.8715 254.707 12.917 254.28 13.0081 253.936C13.102 253.591 13.2343 253.315 13.405 253.108C13.5758 252.897 13.7806 252.746 14.0197 252.655C14.2615 252.564 14.5319 252.519 14.8306 252.519C15.0725 252.519 15.2945 252.548 15.4965 252.608C15.7014 252.665 15.8835 252.758 16.0428 252.886C16.2022 253.011 16.3374 253.179 16.4483 253.389C16.5622 253.597 16.6489 253.852 16.7087 254.153C16.7685 254.455 16.7983 254.809 16.7983 255.216ZM16.0044 256.292V255.084C16.0044 254.805 15.9874 254.56 15.9532 254.35C15.9219 254.136 15.875 253.954 15.8124 253.803C15.7498 253.653 15.6701 253.53 15.5733 253.436C15.4794 253.342 15.3699 253.274 15.2447 253.231C15.1223 253.186 14.9843 253.163 14.8306 253.163C14.6428 253.163 14.4764 253.199 14.3313 253.27C14.1861 253.338 14.0638 253.448 13.9642 253.598C13.8674 253.749 13.7935 253.947 13.7422 254.192C13.691 254.436 13.6654 254.734 13.6654 255.084V256.292C13.6654 256.571 13.6811 256.817 13.7124 257.03C13.7465 257.244 13.7963 257.429 13.8617 257.585C13.9272 257.739 14.0069 257.865 14.1008 257.965C14.1947 258.065 14.3028 258.139 14.4252 258.187C14.5504 258.232 14.6884 258.255 14.8392 258.255C15.0327 258.255 15.202 258.218 15.3471 258.144C15.4922 258.07 15.6132 257.955 15.7099 257.798C15.8095 257.639 15.8835 257.436 15.9319 257.188C15.9802 256.938 16.0044 256.639 16.0044 256.292Z" fill="#444751"/>
<path d="M5.6583 182.76V189.009H4.86867V183.746L3.27659 184.327V183.614L5.53452 182.76H5.6583ZM8.97904 186.051L8.34733 185.889L8.65892 182.794H11.8473V183.524H9.32904L9.14123 185.214C9.25505 185.149 9.39875 185.088 9.57233 185.031C9.74875 184.974 9.95079 184.945 10.1784 184.945C10.4658 184.945 10.7233 184.995 10.951 185.095C11.1786 185.192 11.3721 185.331 11.5315 185.513C11.6937 185.695 11.8175 185.914 11.9028 186.17C11.9882 186.427 12.0309 186.713 12.0309 187.028C12.0309 187.327 11.9896 187.602 11.9071 187.852C11.8274 188.103 11.7065 188.322 11.5443 188.51C11.3821 188.694 11.1772 188.838 10.9296 188.941C10.6849 189.043 10.3961 189.094 10.0632 189.094C9.81278 189.094 9.57518 189.06 9.35038 188.992C9.12843 188.921 8.92924 188.814 8.75282 188.672C8.57924 188.527 8.43696 188.347 8.32599 188.134C8.21786 187.918 8.14957 187.664 8.12111 187.374H8.87233C8.90648 187.607 8.97477 187.804 9.07721 187.963C9.17965 188.123 9.31339 188.243 9.47843 188.326C9.64631 188.406 9.84123 188.445 10.0632 188.445C10.251 188.445 10.4175 188.413 10.5626 188.347C10.7077 188.282 10.8301 188.188 10.9296 188.066C11.0292 187.943 11.1046 187.795 11.1559 187.622C11.2099 187.448 11.237 187.253 11.237 187.037C11.237 186.841 11.2099 186.659 11.1559 186.491C11.1018 186.323 11.0207 186.176 10.9126 186.051C10.8073 185.926 10.6778 185.829 10.5242 185.761C10.3705 185.69 10.1941 185.654 9.99489 185.654C9.73026 185.654 9.52965 185.69 9.39306 185.761C9.25932 185.832 9.12131 185.929 8.97904 186.051ZM16.7986 185.406V186.354C16.7986 186.863 16.753 187.293 16.662 187.643C16.5709 187.993 16.44 188.275 16.2693 188.488C16.0986 188.702 15.8923 188.857 15.6504 188.953C15.4114 189.047 15.141 189.094 14.8394 189.094C14.6004 189.094 14.3799 189.064 14.1778 189.005C13.9758 188.945 13.7937 188.85 13.6315 188.719C13.4721 188.585 13.3355 188.411 13.2217 188.198C13.1079 187.985 13.0211 187.726 12.9614 187.421C12.9016 187.117 12.8717 186.761 12.8717 186.354V185.406C12.8717 184.897 12.9173 184.47 13.0083 184.126C13.1022 183.782 13.2345 183.506 13.4053 183.298C13.576 183.087 13.7809 182.937 14.0199 182.845C14.2618 182.754 14.5321 182.709 14.8309 182.709C15.0727 182.709 15.2947 182.739 15.4967 182.799C15.7016 182.855 15.8837 182.948 16.0431 183.076C16.2024 183.201 16.3376 183.369 16.4486 183.58C16.5624 183.787 16.6492 184.042 16.7089 184.344C16.7687 184.645 16.7986 185 16.7986 185.406ZM16.0047 186.482V185.274C16.0047 184.995 15.9876 184.751 15.9534 184.54C15.9221 184.327 15.8752 184.144 15.8126 183.994C15.75 183.843 15.6703 183.72 15.5736 183.627C15.4797 183.533 15.3701 183.464 15.2449 183.422C15.1225 183.376 14.9845 183.353 14.8309 183.353C14.6431 183.353 14.4766 183.389 14.3315 183.46C14.1864 183.528 14.064 183.638 13.9644 183.789C13.8677 183.94 13.7937 184.137 13.7425 184.382C13.6912 184.627 13.6656 184.924 13.6656 185.274V186.482C13.6656 186.761 13.6813 187.007 13.7126 187.22C13.7467 187.434 13.7965 187.619 13.862 187.775C13.9274 187.929 14.0071 188.056 14.101 188.155C14.1949 188.255 14.303 188.329 14.4254 188.377C14.5506 188.423 14.6886 188.445 14.8394 188.445C15.0329 188.445 15.2022 188.409 15.3473 188.335C15.4925 188.261 15.6134 188.145 15.7101 187.989C15.8097 187.829 15.8837 187.626 15.9321 187.378C15.9805 187.128 16.0047 186.829 16.0047 186.482Z" fill="#444751"/>
<path d="M4.21562 115.703H4.77903C5.05505 115.703 5.28269 115.658 5.46196 115.567C5.64408 115.473 5.77924 115.346 5.86745 115.187C5.95851 115.025 6.00403 114.843 6.00403 114.641C6.00403 114.402 5.9642 114.201 5.88452 114.039C5.80485 113.877 5.68534 113.754 5.52599 113.672C5.36664 113.589 5.1646 113.548 4.91989 113.548C4.69794 113.548 4.50159 113.592 4.33086 113.68C4.16298 113.766 4.03066 113.888 3.93391 114.047C3.84001 114.207 3.79306 114.395 3.79306 114.611H3.00342C3.00342 114.295 3.0831 114.008 3.24245 113.749C3.4018 113.49 3.62517 113.283 3.91257 113.13C4.20281 112.976 4.53859 112.899 4.91989 112.899C5.2955 112.899 5.62416 112.966 5.90586 113.1C6.18757 113.231 6.40668 113.427 6.56318 113.689C6.71969 113.948 6.79794 114.271 6.79794 114.658C6.79794 114.814 6.76095 114.982 6.68696 115.161C6.61582 115.338 6.50343 115.503 6.34977 115.657C6.19895 115.81 6.00261 115.937 5.76074 116.036C5.51887 116.133 5.22863 116.182 4.89001 116.182H4.21562V115.703ZM4.21562 116.352V115.878H4.89001C5.28554 115.878 5.61277 115.925 5.87172 116.019C6.13066 116.113 6.33412 116.238 6.48208 116.395C6.6329 116.551 6.73818 116.724 6.79794 116.911C6.86054 117.096 6.89184 117.281 6.89184 117.466C6.89184 117.757 6.84204 118.014 6.74245 118.239C6.6457 118.464 6.50769 118.654 6.32843 118.811C6.152 118.967 5.94428 119.085 5.70525 119.165C5.46623 119.245 5.20586 119.285 4.92416 119.285C4.65383 119.285 4.39916 119.246 4.16013 119.169C3.92395 119.093 3.71481 118.982 3.53269 118.836C3.35058 118.688 3.2083 118.508 3.10586 118.294C3.00342 118.078 2.9522 117.832 2.9522 117.556H3.74184C3.74184 117.772 3.78879 117.961 3.88269 118.124C3.97944 118.286 4.11603 118.412 4.29245 118.503C4.47172 118.592 4.68229 118.636 4.92416 118.636C5.16603 118.636 5.37375 118.595 5.54733 118.512C5.72375 118.427 5.85891 118.299 5.95282 118.128C6.04956 117.957 6.09794 117.742 6.09794 117.483C6.09794 117.224 6.04387 117.012 5.93574 116.847C5.82761 116.68 5.67395 116.556 5.47477 116.476C5.27842 116.394 5.04651 116.352 4.77903 116.352H4.21562ZM11.8815 115.597V116.544C11.8815 117.054 11.836 117.483 11.7449 117.833C11.6538 118.183 11.5229 118.465 11.3522 118.678C11.1815 118.892 10.9752 119.047 10.7333 119.144C10.4943 119.238 10.224 119.285 9.92233 119.285C9.68331 119.285 9.46278 119.255 9.26075 119.195C9.05871 119.135 8.8766 119.04 8.7144 118.909C8.55505 118.775 8.41847 118.602 8.30465 118.388C8.19083 118.175 8.10404 117.916 8.04428 117.611C7.98452 117.307 7.95465 116.951 7.95465 116.544V115.597C7.95465 115.087 8.00017 114.661 8.09123 114.316C8.18513 113.972 8.31745 113.696 8.48818 113.488C8.65892 113.278 8.86379 113.127 9.10282 113.036C9.34469 112.945 9.61501 112.899 9.91379 112.899C10.1557 112.899 10.3776 112.929 10.5796 112.989C10.7845 113.046 10.9666 113.138 11.126 113.266C11.2853 113.391 11.4205 113.559 11.5315 113.77C11.6453 113.978 11.7321 114.232 11.7918 114.534C11.8516 114.836 11.8815 115.19 11.8815 115.597ZM11.0876 116.672V115.464C11.0876 115.186 11.0705 114.941 11.0364 114.73C11.0051 114.517 10.9581 114.335 10.8955 114.184C10.8329 114.033 10.7532 113.911 10.6565 113.817C10.5626 113.723 10.453 113.655 10.3278 113.612C10.2055 113.566 10.0675 113.544 9.91379 113.544C9.72599 113.544 9.55953 113.579 9.4144 113.65C9.26928 113.719 9.14692 113.828 9.04733 113.979C8.95058 114.13 8.8766 114.328 8.82538 114.572C8.77416 114.817 8.74855 115.114 8.74855 115.464V116.672C8.74855 116.951 8.7642 117.197 8.7955 117.411C8.82965 117.624 8.87944 117.809 8.94489 117.966C9.01034 118.119 9.09001 118.246 9.18392 118.346C9.27782 118.445 9.38595 118.519 9.50831 118.568C9.63351 118.613 9.77152 118.636 9.92233 118.636C10.1158 118.636 10.2851 118.599 10.4303 118.525C10.5754 118.451 10.6963 118.336 10.7931 118.179C10.8927 118.02 10.9666 117.816 11.015 117.569C11.0634 117.318 11.0876 117.02 11.0876 116.672ZM16.7986 115.597V116.544C16.7986 117.054 16.753 117.483 16.662 117.833C16.5709 118.183 16.44 118.465 16.2693 118.678C16.0986 118.892 15.8923 119.047 15.6504 119.144C15.4114 119.238 15.141 119.285 14.8394 119.285C14.6004 119.285 14.3799 119.255 14.1778 119.195C13.9758 119.135 13.7937 119.04 13.6315 118.909C13.4721 118.775 13.3355 118.602 13.2217 118.388C13.1079 118.175 13.0211 117.916 12.9614 117.611C12.9016 117.307 12.8717 116.951 12.8717 116.544V115.597C12.8717 115.087 12.9173 114.661 13.0083 114.316C13.1022 113.972 13.2345 113.696 13.4053 113.488C13.576 113.278 13.7809 113.127 14.0199 113.036C14.2618 112.945 14.5321 112.899 14.8309 112.899C15.0727 112.899 15.2947 112.929 15.4967 112.989C15.7016 113.046 15.8837 113.138 16.0431 113.266C16.2024 113.391 16.3376 113.559 16.4486 113.77C16.5624 113.978 16.6492 114.232 16.7089 114.534C16.7687 114.836 16.7986 115.19 16.7986 115.597ZM16.0047 116.672V115.464C16.0047 115.186 15.9876 114.941 15.9534 114.73C15.9221 114.517 15.8752 114.335 15.8126 114.184C15.75 114.033 15.6703 113.911 15.5736 113.817C15.4797 113.723 15.3701 113.655 15.2449 113.612C15.1225 113.566 14.9845 113.544 14.8309 113.544C14.6431 113.544 14.4766 113.579 14.3315 113.65C14.1864 113.719 14.064 113.828 13.9644 113.979C13.8677 114.13 13.7937 114.328 13.7425 114.572C13.6912 114.817 13.6656 115.114 13.6656 115.464V116.672C13.6656 116.951 13.6813 117.197 13.7126 117.411C13.7467 117.624 13.7965 117.809 13.862 117.966C13.9274 118.119 14.0071 118.246 14.101 118.346C14.1949 118.445 14.303 118.519 14.4254 118.568C14.5506 118.613 14.6886 118.636 14.8394 118.636C15.0329 118.636 15.2022 118.599 15.3473 118.525C15.4925 118.451 15.6134 118.336 15.7101 118.179C15.8097 118.02 15.8837 117.816 15.9321 117.569C15.9805 117.318 16.0047 117.02 16.0047 116.672Z" fill="#444751"/>
<path d="M7.26318 47.2983V47.9471H2.77293V47.4818L5.55586 43.1751H6.20038L5.50891 44.4215L3.66928 47.2983H7.26318ZM6.39672 43.1751V49.3898H5.60708V43.1751H6.39672ZM8.97904 46.4318L8.34733 46.2696L8.65892 43.1751H11.8473V43.905H9.32904L9.14123 45.5953C9.25505 45.5298 9.39875 45.4686 9.57233 45.4117C9.74875 45.3548 9.95079 45.3264 10.1784 45.3264C10.4658 45.3264 10.7233 45.3761 10.951 45.4757C11.1786 45.5725 11.3721 45.7119 11.5315 45.894C11.6937 46.0761 11.8175 46.2953 11.9028 46.5514C11.9882 46.8075 12.0309 47.0934 12.0309 47.4093C12.0309 47.7081 11.9896 47.9827 11.9071 48.2331C11.8274 48.4835 11.7065 48.7026 11.5443 48.8904C11.3821 49.0753 11.1772 49.219 10.9296 49.3215C10.6849 49.4239 10.3961 49.4751 10.0632 49.4751C9.81278 49.4751 9.57518 49.441 9.35038 49.3727C9.12843 49.3016 8.92924 49.1949 8.75282 49.0526C8.57924 48.9075 8.43696 48.7282 8.32599 48.5148C8.21786 48.2985 8.14957 48.0453 8.12111 47.755H8.87233C8.90648 47.9883 8.97477 48.1847 9.07721 48.344C9.17965 48.5034 9.31339 48.6243 9.47843 48.7068C9.64631 48.7865 9.84123 48.8264 10.0632 48.8264C10.251 48.8264 10.4175 48.7936 10.5626 48.7282C10.7077 48.6627 10.8301 48.5688 10.9296 48.4465C11.0292 48.3241 11.1046 48.1762 11.1559 48.0026C11.2099 47.829 11.237 47.6341 11.237 47.4178C11.237 47.2215 11.2099 47.0394 11.1559 46.8715C11.1018 46.7036 11.0207 46.557 10.9126 46.4318C10.8073 46.3066 10.6778 46.2099 10.5242 46.1416C10.3705 46.0705 10.1941 46.0349 9.99489 46.0349C9.73026 46.0349 9.52965 46.0705 9.39306 46.1416C9.25932 46.2127 9.12131 46.3095 8.97904 46.4318ZM16.7986 45.7873V46.7349C16.7986 47.2442 16.753 47.6739 16.662 48.0239C16.5709 48.3739 16.44 48.6556 16.2693 48.869C16.0986 49.0825 15.8923 49.2375 15.6504 49.3343C15.4114 49.4282 15.141 49.4751 14.8394 49.4751C14.6004 49.4751 14.3799 49.4453 14.1778 49.3855C13.9758 49.3257 13.7937 49.2304 13.6315 49.0995C13.4721 48.9658 13.3355 48.7922 13.2217 48.5788C13.1079 48.3654 13.0211 48.1064 12.9614 47.802C12.9016 47.4975 12.8717 47.1418 12.8717 46.7349V45.7873C12.8717 45.278 12.9173 44.8511 13.0083 44.5068C13.1022 44.1625 13.2345 43.8865 13.4053 43.6788C13.576 43.4682 13.7809 43.3174 14.0199 43.2264C14.2618 43.1353 14.5321 43.0898 14.8309 43.0898C15.0727 43.0898 15.2947 43.1196 15.4967 43.1794C15.7016 43.2363 15.8837 43.3288 16.0431 43.4568C16.2024 43.582 16.3376 43.7499 16.4486 43.9605C16.5624 44.1682 16.6492 44.4229 16.7089 44.7245C16.7687 45.0261 16.7986 45.3804 16.7986 45.7873ZM16.0047 46.8629V45.655C16.0047 45.3761 15.9876 45.1314 15.9534 44.9209C15.9221 44.7074 15.8752 44.5253 15.8126 44.3745C15.75 44.2237 15.6703 44.1014 15.5736 44.0074C15.4797 43.9135 15.3701 43.8453 15.2449 43.8026C15.1225 43.757 14.9845 43.7343 14.8309 43.7343C14.6431 43.7343 14.4766 43.7698 14.3315 43.841C14.1864 43.9093 14.064 44.0188 13.9644 44.1696C13.8677 44.3205 13.7937 44.5182 13.7425 44.7629C13.6912 45.0077 13.6656 45.305 13.6656 45.655V46.8629C13.6656 47.1418 13.6813 47.3879 13.7126 47.6014C13.7467 47.8148 13.7965 47.9997 13.862 48.1562C13.9274 48.3099 14.0071 48.4365 14.101 48.5361C14.1949 48.6357 14.303 48.7097 14.4254 48.7581C14.5506 48.8036 14.6886 48.8264 14.8394 48.8264C15.0329 48.8264 15.2022 48.7894 15.3473 48.7154C15.4925 48.6414 15.6134 48.5262 15.7101 48.3696C15.8097 48.2103 15.8837 48.0068 15.9321 47.7593C15.9805 47.5089 16.0047 47.2101 16.0047 46.8629Z" fill="#444751"/>
<path d="M20.104 273.392C19.664 273.392 19.291 273.272 18.9851 273.033C18.6791 272.794 18.4693 272.474 18.3557 272.072L19.1293 271.888C19.1759 272.101 19.2881 272.281 19.4659 272.43C19.6465 272.579 19.8534 272.653 20.0865 272.653C20.238 272.653 20.3925 272.616 20.5498 272.544C20.7072 272.468 20.8281 272.345 20.9126 272.176C20.9709 272.06 21.0044 271.932 21.0131 271.792C21.0218 271.649 21.0262 271.482 21.0262 271.289V266.971H21.8129V271.289C21.8129 271.47 21.8115 271.632 21.8086 271.774C21.8086 271.917 21.794 272.054 21.7649 272.185C21.7386 272.313 21.6862 272.445 21.6075 272.579C21.4502 272.855 21.2389 273.061 20.9738 273.195C20.7115 273.326 20.4216 273.392 20.104 273.392ZM24.4667 273.396C24.1142 273.396 23.8184 273.332 23.5795 273.204C23.3435 273.072 23.1643 272.901 23.0419 272.688C22.9224 272.475 22.8627 272.242 22.8627 271.989C22.8627 271.741 22.9093 271.527 23.0025 271.346C23.0987 271.162 23.2327 271.011 23.4046 270.891C23.5766 270.769 23.782 270.673 24.0209 270.603C24.2453 270.542 24.4959 270.489 24.7727 270.446C25.0524 270.399 25.3351 270.357 25.6206 270.319C25.9062 270.281 26.1728 270.245 26.4205 270.21L26.1407 270.371C26.1495 269.952 26.065 269.641 25.8872 269.44C25.7124 269.239 25.4094 269.139 24.9781 269.139C24.6926 269.139 24.442 269.204 24.2263 269.335C24.0136 269.464 23.8636 269.673 23.7762 269.965L23.0375 269.742C23.1511 269.328 23.3711 269.003 23.6975 268.767C24.0238 268.531 24.4536 268.413 24.9869 268.413C25.4152 268.413 25.7823 268.49 26.0883 268.645C26.3971 268.796 26.6186 269.027 26.7526 269.335C26.8196 269.481 26.8619 269.64 26.8794 269.812C26.8969 269.981 26.9056 270.159 26.9056 270.345V273.265H26.215V272.133L26.3767 272.238C26.199 272.619 25.9499 272.908 25.6294 273.103C25.3117 273.298 24.9242 273.396 24.4667 273.396ZM24.5847 272.745C24.8645 272.745 25.1063 272.695 25.3103 272.596C25.5172 272.494 25.6833 272.361 25.8086 272.198C25.9338 272.032 26.0154 271.852 26.0533 271.656C26.097 271.511 26.1203 271.349 26.1232 271.171C26.1291 270.991 26.132 270.852 26.132 270.756L26.403 270.874C26.1495 270.909 25.9003 270.942 25.6556 270.975C25.4108 271.007 25.1792 271.042 24.9606 271.079C24.7421 271.114 24.5454 271.157 24.3706 271.206C24.2424 271.247 24.1214 271.299 24.0078 271.364C23.8971 271.428 23.8068 271.511 23.7368 271.613C23.6698 271.712 23.6363 271.836 23.6363 271.984C23.6363 272.112 23.6683 272.235 23.7325 272.351C23.7995 272.468 23.9015 272.563 24.0384 272.635C24.1783 272.708 24.3604 272.745 24.5847 272.745ZM31.4031 273.265V270.9C31.4031 270.676 31.3827 270.46 31.3419 270.253C31.304 270.046 31.2355 269.861 31.1365 269.698C31.0403 269.532 30.9092 269.401 30.7431 269.305C30.5799 269.209 30.3731 269.161 30.1225 269.161C29.9272 269.161 29.7495 269.194 29.5892 269.261C29.4319 269.325 29.2964 269.424 29.1828 269.558C29.0691 269.692 28.9802 269.861 28.9161 270.065C28.855 270.266 28.8244 270.504 28.8244 270.778L28.313 270.62C28.313 270.163 28.3946 269.771 28.5577 269.445C28.7238 269.115 28.9555 268.863 29.2527 268.689C29.5528 268.511 29.9054 268.422 30.3104 268.422C30.6164 268.422 30.8771 268.47 31.0928 268.566C31.3084 268.662 31.4876 268.791 31.6304 268.951C31.7731 269.108 31.8853 269.286 31.9669 269.484C32.0485 269.679 32.1053 269.879 32.1374 270.083C32.1723 270.284 32.1898 270.475 32.1898 270.655V273.265H31.4031ZM28.0376 273.265V268.544H28.7369V269.808H28.8244V273.265H28.0376Z" fill="#444751"/>
<path d="M236.789 273.264V266.971H240.46V267.749H237.567V269.728H239.936V270.506H237.567V273.264H236.789ZM243.163 273.396C242.699 273.396 242.294 273.294 241.948 273.09C241.604 272.883 241.336 272.596 241.143 272.229C240.951 271.858 240.855 271.427 240.855 270.935C240.855 270.419 240.95 269.973 241.139 269.597C241.328 269.219 241.592 268.927 241.93 268.723C242.271 268.516 242.67 268.413 243.128 268.413C243.603 268.413 244.006 268.522 244.338 268.741C244.673 268.959 244.924 269.271 245.09 269.676C245.259 270.081 245.332 270.563 245.309 271.123H244.522V270.843C244.513 270.263 244.395 269.83 244.168 269.545C243.941 269.256 243.603 269.112 243.154 269.112C242.673 269.112 242.307 269.267 242.057 269.576C241.806 269.884 241.681 270.327 241.681 270.904C241.681 271.461 241.806 271.892 242.057 272.198C242.307 272.504 242.664 272.657 243.128 272.657C243.439 272.657 243.71 272.585 243.941 272.443C244.171 272.3 244.351 272.095 244.483 271.826L245.23 272.084C245.046 272.501 244.77 272.824 244.4 273.055C244.032 273.282 243.62 273.396 243.163 273.396ZM241.419 271.123V270.498H244.907V271.123H241.419ZM248.45 273.396C248.007 273.396 247.634 273.286 247.331 273.068C247.028 272.846 246.798 272.548 246.64 272.172C246.486 271.793 246.409 271.369 246.409 270.9C246.409 270.425 246.486 269.999 246.64 269.624C246.798 269.248 247.028 268.952 247.331 268.736C247.637 268.521 248.011 268.413 248.454 268.413C248.891 268.413 249.267 268.522 249.582 268.741C249.899 268.956 250.143 269.252 250.312 269.628C250.481 270.004 250.565 270.428 250.565 270.9C250.565 271.372 250.481 271.796 250.312 272.172C250.143 272.548 249.899 272.846 249.582 273.068C249.267 273.286 248.89 273.396 248.45 273.396ZM246.277 273.264V266.971H247.06V269.79H246.972V273.264H246.277ZM248.353 272.683C248.665 272.683 248.923 272.604 249.127 272.447C249.331 272.29 249.484 272.077 249.586 271.809C249.688 271.538 249.739 271.235 249.739 270.9C249.739 270.568 249.688 270.268 249.586 269.999C249.487 269.731 249.333 269.519 249.123 269.361C248.916 269.204 248.652 269.125 248.332 269.125C248.026 269.125 247.772 269.201 247.571 269.353C247.37 269.501 247.22 269.71 247.121 269.978C247.022 270.243 246.972 270.55 246.972 270.9C246.972 271.244 247.02 271.551 247.117 271.822C247.216 272.09 247.367 272.301 247.571 272.456C247.775 272.607 248.036 272.683 248.353 272.683Z" fill="#444751"/>
<path opacity="0.15" fill-rule="evenodd" clip-rule="evenodd" d="M25.5352 256.408C79.9001 256.408 80.1747 209.731 134.54 209.731C188.905 209.731 189.179 163.054 243.544 163.054C297.909 163.054 298.184 116.377 352.549 116.377C406.914 116.377 407.188 69.7002 461.553 69.7002C515.918 69.7002 516.193 23.0232 570.558 23.0232C624.923 23.0232 625.197 -23.6538 679.562 -23.6538V256.408H25.5352Z" fill="url(#paint0_linear_32_967)"/>
<path d="M25.5352 256.408C79.9001 256.408 80.1747 209.731 134.54 209.731C188.905 209.731 189.179 163.054 243.544 163.054C297.909 163.054 298.184 116.377 352.549 116.377C406.914 116.377 407.188 69.7002 461.553 69.7002C515.918 69.7002 516.193 23.0232 570.558 23.0232C624.923 23.0232 625.197 -23.6538 679.562 -23.6538" stroke="#EE9B4F" stroke-opacity="0.3" stroke-width="0.728456" stroke-linejoin="round"/>
<g opacity="0.7">
<circle cx="25.5351" cy="256.408" r="1.18794" fill="#ED9B4E" stroke="#ED9B4E" stroke-width="0.728456"/>
<circle cx="134.54" cy="209.731" r="1.18794" fill="#ED9B4E" stroke="#ED9B4E" stroke-width="0.728456"/>
<circle cx="243.544" cy="163.054" r="1.18794" fill="#ED9B4E" stroke="#ED9B4E" stroke-width="0.728456"/>
<circle cx="352.549" cy="116.377" r="1.18794" fill="#ED9B4E" stroke="#ED9B4E" stroke-width="0.728456"/>
</g>
</g>
<defs>
<linearGradient id="paint0_linear_32_967" x1="-202.464" y1="-5.35519" x2="-187.67" y2="276.032" gradientUnits="userSpaceOnUse">
<stop stop-color="#EE9B4F"/>
<stop offset="1" stop-color="#EE9B4F" stop-opacity="0"/>
</linearGradient>
</defs>
</svg>
