<svg width="16" height="16" viewBox="0 0 16 16" fill="none" xmlns="http://www.w3.org/2000/svg">
<path fill-rule="evenodd" clip-rule="evenodd" d="M16 8C16 12.4183 12.4183 16 8 16C3.58172 16 0 12.4183 0 8C0 3.58172 3.58172 0 8 0C12.4183 0 16 3.58172 16 8ZM12.172 6.83514C12.8116 6.83514 13.3367 7.35066 13.3367 7.99982C13.3367 8.47715 13.0503 8.88765 12.6493 9.06903C12.6684 9.18359 12.678 9.3077 12.678 9.42225C12.678 11.2265 10.5873 12.6776 8.00969 12.6776C5.43213 12.6776 3.34144 11.217 3.34144 9.42225C3.34144 9.29815 3.35098 9.18359 3.37008 9.06903C2.96912 8.88765 2.68273 8.48669 2.68273 8.00937C2.68273 7.36975 3.19824 6.84469 3.8474 6.84469C4.16244 6.84469 4.44884 6.96879 4.65886 7.16927C5.47032 6.58693 6.58726 6.21462 7.82831 6.17643L8.4202 3.38884C8.42974 3.33156 8.45838 3.28383 8.50611 3.25519C8.5443 3.22655 8.60158 3.217 8.65886 3.22655L10.5968 3.63705C10.7305 3.3602 11.0169 3.16927 11.3414 3.16927C11.7997 3.16927 12.172 3.54159 12.172 3.99982C12.172 4.45805 11.7997 4.83037 11.3414 4.83037C10.8927 4.83037 10.53 4.47715 10.5109 4.03801L8.77342 3.66569L8.23881 6.16688C9.46077 6.21462 10.5586 6.58693 11.3605 7.15972C11.5706 6.95925 11.8569 6.83514 12.172 6.83514ZM6.16721 7.99982C5.70898 7.99982 5.33666 8.37213 5.33666 8.83037C5.33666 9.2886 5.70898 9.67046 6.16721 9.66092C6.62545 9.66092 6.99776 9.2886 6.99776 8.83037C6.99776 8.37213 6.62545 7.99982 6.16721 7.99982ZM8.00969 11.6466C8.32473 11.6466 9.41304 11.6084 9.98583 11.0356C10.0622 10.9497 10.0622 10.816 9.98583 10.7301C9.89991 10.6442 9.76626 10.6442 9.68034 10.7301C9.32712 11.0929 8.55385 11.217 8.00969 11.217C7.46554 11.217 6.70182 11.0929 6.33905 10.7301C6.25313 10.6442 6.11948 10.6442 6.03356 10.7301C5.94764 10.816 5.94764 10.9497 6.03356 11.0356C6.59681 11.5989 7.68511 11.6466 8.00969 11.6466ZM9.00253 8.83992C9.00253 9.29815 9.37485 9.67046 9.83308 9.67046C10.2913 9.67046 10.6636 9.2886 10.6636 8.83992C10.6636 8.38168 10.2913 8.00937 9.83308 8.00937C9.37485 8.00937 9.00253 8.38168 9.00253 8.83992Z" fill="#444751"/>
</svg>
