<svg width="14" height="14" viewBox="0 0 14 14" fill="none" xmlns="http://www.w3.org/2000/svg">
<g clip-path="url(#clip0_32_1388)">
<path d="M12.9353 3.26749L12.9519 3.37551C12.792 2.80837 12.3605 2.37075 11.8121 2.21146L11.8005 2.20871C10.7693 1.92872 6.61959 1.92872 6.61959 1.92872C6.61959 1.92872 2.48038 1.92321 1.43869 2.20871C0.879812 2.37075 0.447704 2.80837 0.290623 3.36394L0.287867 3.37551C-0.0973931 5.3878 -0.100149 7.80573 0.304953 9.96022L0.287867 9.85109C0.447704 10.4182 0.879261 10.8558 1.42766 11.0151L1.43924 11.0179C2.46936 11.2984 6.62014 11.2984 6.62014 11.2984C6.62014 11.2984 10.7588 11.2984 11.801 11.0179C12.3605 10.8558 12.7926 10.4182 12.9497 9.86266L12.9524 9.85109C13.1277 8.91522 13.228 7.83825 13.228 6.73814C13.228 6.6979 13.228 6.65712 13.2274 6.61633C13.228 6.57885 13.228 6.53421 13.228 6.48956C13.228 5.3889 13.1277 4.31193 12.9353 3.26749ZM5.2957 8.62586L5.2957 4.60625L8.74927 6.61909L5.2957 8.62586Z" fill="#444751"/>
</g>
<defs>
<clipPath id="clip0_32_1388">
<rect width="13.2278" height="13.2278" fill="white"/>
</clipPath>
</defs>
</svg>
